M48
; DRILL file {KiCad 7.0.9} date Tue Feb  6 23:46:40 2024
; FORMAT={-:-/ absolute / inch / decimal}
; #@! TF.CreationDate,2024-02-06T23:46:40-08:00
; #@! TF.GenerationSoftware,Kicad,Pcbnew,7.0.9
; #@! TF.FileFunction,Plated,1,2,PTH
FMAT,2
INCH
; #@! TA.AperFunction,Plated,PTH,ComponentDrill
T1C0.0295
; #@! TA.AperFunction,Plated,PTH,ComponentDrill
T2C0.0315
; #@! TA.AperFunction,Plated,PTH,ComponentDrill
T3C0.0394
; #@! TA.AperFunction,Plated,PTH,ComponentDrill
T4C0.0433
; #@! TA.AperFunction,Plated,PTH,ComponentDrill
T5C0.0512
; #@! TA.AperFunction,Plated,PTH,ComponentDrill
T6C0.0630
%
G90
G05
T1
X4.6Y-4.15
X4.6Y-4.2
X4.6Y-4.25
T2
X5.3Y-3.6
X5.3Y-3.85
X5.3Y-4.1
X5.3Y-4.35
X5.3Y-4.6
X5.5Y-3.6
X5.5Y-3.85
X5.5Y-4.1
X5.5Y-4.35
X5.5Y-4.6
T3
X4.2Y-3.4
X4.2Y-3.5
X4.2Y-4.3
X4.2Y-4.4
X5.8Y-3.6
X5.8Y-3.85
X5.8Y-4.1
X5.8Y-4.35
X5.8Y-4.6
X5.9Y-3.6
X5.9Y-3.85
X5.9Y-4.1
X5.9Y-4.35
X5.9Y-4.6
X6.0Y-3.0
X6.0Y-3.1
X6.0Y-3.2
X6.0Y-3.3
X6.0Y-3.4
X6.0Y-3.6
X6.0Y-3.85
X6.0Y-4.1
X6.0Y-4.35
X6.0Y-4.6
T4
X4.4Y-4.4
X4.8Y-4.4
X5.0Y-4.0
X5.0Y-4.4
T5
X4.4941Y-3.9
X4.7933Y-3.9
T6
X4.5Y-3.4
X4.7874Y-3.2996
X5.0063Y-3.2
X5.7937Y-3.2
T0
M30
