%TF.GenerationSoftware,KiCad,Pcbnew,7.0.9*%
%TF.CreationDate,2024-02-06T23:46:10-08:00*%
%TF.ProjectId,AaronMotorDriver,4161726f-6e4d-46f7-946f-724472697665,rev?*%
%TF.SameCoordinates,Original*%
%TF.FileFunction,Legend,Top*%
%TF.FilePolarity,Positive*%
%FSLAX46Y46*%
G04 Gerber Fmt 4.6, Leading zero omitted, Abs format (unit mm)*
G04 Created by KiCad (PCBNEW 7.0.9) date 2024-02-06 23:46:10*
%MOMM*%
%LPD*%
G01*
G04 APERTURE LIST*
%ADD10C,0.150000*%
%ADD11C,0.120000*%
G04 APERTURE END LIST*
D10*
X100203095Y-111189819D02*
X100203095Y-110189819D01*
X100203095Y-110666009D02*
X100774523Y-110666009D01*
X100774523Y-111189819D02*
X100774523Y-110189819D01*
X101679285Y-110523152D02*
X101679285Y-111189819D01*
X101441190Y-110142200D02*
X101203095Y-110856485D01*
X101203095Y-110856485D02*
X101822142Y-110856485D01*
X160528095Y-111189819D02*
X160528095Y-110189819D01*
X160528095Y-110666009D02*
X161099523Y-110666009D01*
X161099523Y-111189819D02*
X161099523Y-110189819D01*
X161480476Y-110189819D02*
X162099523Y-110189819D01*
X162099523Y-110189819D02*
X161766190Y-110570771D01*
X161766190Y-110570771D02*
X161909047Y-110570771D01*
X161909047Y-110570771D02*
X162004285Y-110618390D01*
X162004285Y-110618390D02*
X162051904Y-110666009D01*
X162051904Y-110666009D02*
X162099523Y-110761247D01*
X162099523Y-110761247D02*
X162099523Y-110999342D01*
X162099523Y-110999342D02*
X162051904Y-111094580D01*
X162051904Y-111094580D02*
X162004285Y-111142200D01*
X162004285Y-111142200D02*
X161909047Y-111189819D01*
X161909047Y-111189819D02*
X161623333Y-111189819D01*
X161623333Y-111189819D02*
X161528095Y-111142200D01*
X161528095Y-111142200D02*
X161480476Y-111094580D01*
X160528095Y-72454819D02*
X160528095Y-71454819D01*
X160528095Y-71931009D02*
X161099523Y-71931009D01*
X161099523Y-72454819D02*
X161099523Y-71454819D01*
X161528095Y-71550057D02*
X161575714Y-71502438D01*
X161575714Y-71502438D02*
X161670952Y-71454819D01*
X161670952Y-71454819D02*
X161909047Y-71454819D01*
X161909047Y-71454819D02*
X162004285Y-71502438D01*
X162004285Y-71502438D02*
X162051904Y-71550057D01*
X162051904Y-71550057D02*
X162099523Y-71645295D01*
X162099523Y-71645295D02*
X162099523Y-71740533D01*
X162099523Y-71740533D02*
X162051904Y-71883390D01*
X162051904Y-71883390D02*
X161480476Y-72454819D01*
X161480476Y-72454819D02*
X162099523Y-72454819D01*
X100203095Y-72454819D02*
X100203095Y-71454819D01*
X100203095Y-71931009D02*
X100774523Y-71931009D01*
X100774523Y-72454819D02*
X100774523Y-71454819D01*
X101774523Y-72454819D02*
X101203095Y-72454819D01*
X101488809Y-72454819D02*
X101488809Y-71454819D01*
X101488809Y-71454819D02*
X101393571Y-71597676D01*
X101393571Y-71597676D02*
X101298333Y-71692914D01*
X101298333Y-71692914D02*
X101203095Y-71740533D01*
X135874286Y-113774819D02*
X136445714Y-113774819D01*
X136160000Y-114774819D02*
X136160000Y-113774819D01*
X136779048Y-114774819D02*
X136779048Y-113774819D01*
X136779048Y-114251009D02*
X137350476Y-114251009D01*
X137350476Y-114774819D02*
X137350476Y-113774819D01*
X138302857Y-113774819D02*
X137826667Y-113774819D01*
X137826667Y-113774819D02*
X137779048Y-114251009D01*
X137779048Y-114251009D02*
X137826667Y-114203390D01*
X137826667Y-114203390D02*
X137921905Y-114155771D01*
X137921905Y-114155771D02*
X138160000Y-114155771D01*
X138160000Y-114155771D02*
X138255238Y-114203390D01*
X138255238Y-114203390D02*
X138302857Y-114251009D01*
X138302857Y-114251009D02*
X138350476Y-114346247D01*
X138350476Y-114346247D02*
X138350476Y-114584342D01*
X138350476Y-114584342D02*
X138302857Y-114679580D01*
X138302857Y-114679580D02*
X138255238Y-114727200D01*
X138255238Y-114727200D02*
X138160000Y-114774819D01*
X138160000Y-114774819D02*
X137921905Y-114774819D01*
X137921905Y-114774819D02*
X137826667Y-114727200D01*
X137826667Y-114727200D02*
X137779048Y-114679580D01*
X135874286Y-107424819D02*
X136445714Y-107424819D01*
X136160000Y-108424819D02*
X136160000Y-107424819D01*
X136779048Y-108424819D02*
X136779048Y-107424819D01*
X136779048Y-107901009D02*
X137350476Y-107901009D01*
X137350476Y-108424819D02*
X137350476Y-107424819D01*
X138255238Y-107758152D02*
X138255238Y-108424819D01*
X138017143Y-107377200D02*
X137779048Y-108091485D01*
X137779048Y-108091485D02*
X138398095Y-108091485D01*
X135874286Y-101074819D02*
X136445714Y-101074819D01*
X136160000Y-102074819D02*
X136160000Y-101074819D01*
X136779048Y-102074819D02*
X136779048Y-101074819D01*
X136779048Y-101551009D02*
X137350476Y-101551009D01*
X137350476Y-102074819D02*
X137350476Y-101074819D01*
X137731429Y-101074819D02*
X138350476Y-101074819D01*
X138350476Y-101074819D02*
X138017143Y-101455771D01*
X138017143Y-101455771D02*
X138160000Y-101455771D01*
X138160000Y-101455771D02*
X138255238Y-101503390D01*
X138255238Y-101503390D02*
X138302857Y-101551009D01*
X138302857Y-101551009D02*
X138350476Y-101646247D01*
X138350476Y-101646247D02*
X138350476Y-101884342D01*
X138350476Y-101884342D02*
X138302857Y-101979580D01*
X138302857Y-101979580D02*
X138255238Y-102027200D01*
X138255238Y-102027200D02*
X138160000Y-102074819D01*
X138160000Y-102074819D02*
X137874286Y-102074819D01*
X137874286Y-102074819D02*
X137779048Y-102027200D01*
X137779048Y-102027200D02*
X137731429Y-101979580D01*
X135874286Y-94724819D02*
X136445714Y-94724819D01*
X136160000Y-95724819D02*
X136160000Y-94724819D01*
X136779048Y-95724819D02*
X136779048Y-94724819D01*
X136779048Y-95201009D02*
X137350476Y-95201009D01*
X137350476Y-95724819D02*
X137350476Y-94724819D01*
X137779048Y-94820057D02*
X137826667Y-94772438D01*
X137826667Y-94772438D02*
X137921905Y-94724819D01*
X137921905Y-94724819D02*
X138160000Y-94724819D01*
X138160000Y-94724819D02*
X138255238Y-94772438D01*
X138255238Y-94772438D02*
X138302857Y-94820057D01*
X138302857Y-94820057D02*
X138350476Y-94915295D01*
X138350476Y-94915295D02*
X138350476Y-95010533D01*
X138350476Y-95010533D02*
X138302857Y-95153390D01*
X138302857Y-95153390D02*
X137731429Y-95724819D01*
X137731429Y-95724819D02*
X138350476Y-95724819D01*
X135874286Y-88374819D02*
X136445714Y-88374819D01*
X136160000Y-89374819D02*
X136160000Y-88374819D01*
X136779048Y-89374819D02*
X136779048Y-88374819D01*
X136779048Y-88851009D02*
X137350476Y-88851009D01*
X137350476Y-89374819D02*
X137350476Y-88374819D01*
X138350476Y-89374819D02*
X137779048Y-89374819D01*
X138064762Y-89374819D02*
X138064762Y-88374819D01*
X138064762Y-88374819D02*
X137969524Y-88517676D01*
X137969524Y-88517676D02*
X137874286Y-88612914D01*
X137874286Y-88612914D02*
X137779048Y-88660533D01*
X113830057Y-106775238D02*
X113782438Y-106870476D01*
X113782438Y-106870476D02*
X113687200Y-106965714D01*
X113687200Y-106965714D02*
X113544342Y-107108571D01*
X113544342Y-107108571D02*
X113496723Y-107203809D01*
X113496723Y-107203809D02*
X113496723Y-107299047D01*
X113734819Y-107251428D02*
X113687200Y-107346666D01*
X113687200Y-107346666D02*
X113591961Y-107441904D01*
X113591961Y-107441904D02*
X113401485Y-107489523D01*
X113401485Y-107489523D02*
X113068152Y-107489523D01*
X113068152Y-107489523D02*
X112877676Y-107441904D01*
X112877676Y-107441904D02*
X112782438Y-107346666D01*
X112782438Y-107346666D02*
X112734819Y-107251428D01*
X112734819Y-107251428D02*
X112734819Y-107060952D01*
X112734819Y-107060952D02*
X112782438Y-106965714D01*
X112782438Y-106965714D02*
X112877676Y-106870476D01*
X112877676Y-106870476D02*
X113068152Y-106822857D01*
X113068152Y-106822857D02*
X113401485Y-106822857D01*
X113401485Y-106822857D02*
X113591961Y-106870476D01*
X113591961Y-106870476D02*
X113687200Y-106965714D01*
X113687200Y-106965714D02*
X113734819Y-107060952D01*
X113734819Y-107060952D02*
X113734819Y-107251428D01*
X113734819Y-105870476D02*
X113734819Y-106441904D01*
X113734819Y-106156190D02*
X112734819Y-106156190D01*
X112734819Y-106156190D02*
X112877676Y-106251428D01*
X112877676Y-106251428D02*
X112972914Y-106346666D01*
X112972914Y-106346666D02*
X113020533Y-106441904D01*
X106346666Y-90684819D02*
X106346666Y-91399104D01*
X106346666Y-91399104D02*
X106299047Y-91541961D01*
X106299047Y-91541961D02*
X106203809Y-91637200D01*
X106203809Y-91637200D02*
X106060952Y-91684819D01*
X106060952Y-91684819D02*
X105965714Y-91684819D01*
X106870476Y-91684819D02*
X107060952Y-91684819D01*
X107060952Y-91684819D02*
X107156190Y-91637200D01*
X107156190Y-91637200D02*
X107203809Y-91589580D01*
X107203809Y-91589580D02*
X107299047Y-91446723D01*
X107299047Y-91446723D02*
X107346666Y-91256247D01*
X107346666Y-91256247D02*
X107346666Y-90875295D01*
X107346666Y-90875295D02*
X107299047Y-90780057D01*
X107299047Y-90780057D02*
X107251428Y-90732438D01*
X107251428Y-90732438D02*
X107156190Y-90684819D01*
X107156190Y-90684819D02*
X106965714Y-90684819D01*
X106965714Y-90684819D02*
X106870476Y-90732438D01*
X106870476Y-90732438D02*
X106822857Y-90780057D01*
X106822857Y-90780057D02*
X106775238Y-90875295D01*
X106775238Y-90875295D02*
X106775238Y-91113390D01*
X106775238Y-91113390D02*
X106822857Y-91208628D01*
X106822857Y-91208628D02*
X106870476Y-91256247D01*
X106870476Y-91256247D02*
X106965714Y-91303866D01*
X106965714Y-91303866D02*
X107156190Y-91303866D01*
X107156190Y-91303866D02*
X107251428Y-91256247D01*
X107251428Y-91256247D02*
X107299047Y-91208628D01*
X107299047Y-91208628D02*
X107346666Y-91113390D01*
X152066666Y-73324819D02*
X152066666Y-74039104D01*
X152066666Y-74039104D02*
X152019047Y-74181961D01*
X152019047Y-74181961D02*
X151923809Y-74277200D01*
X151923809Y-74277200D02*
X151780952Y-74324819D01*
X151780952Y-74324819D02*
X151685714Y-74324819D01*
X152685714Y-73753390D02*
X152590476Y-73705771D01*
X152590476Y-73705771D02*
X152542857Y-73658152D01*
X152542857Y-73658152D02*
X152495238Y-73562914D01*
X152495238Y-73562914D02*
X152495238Y-73515295D01*
X152495238Y-73515295D02*
X152542857Y-73420057D01*
X152542857Y-73420057D02*
X152590476Y-73372438D01*
X152590476Y-73372438D02*
X152685714Y-73324819D01*
X152685714Y-73324819D02*
X152876190Y-73324819D01*
X152876190Y-73324819D02*
X152971428Y-73372438D01*
X152971428Y-73372438D02*
X153019047Y-73420057D01*
X153019047Y-73420057D02*
X153066666Y-73515295D01*
X153066666Y-73515295D02*
X153066666Y-73562914D01*
X153066666Y-73562914D02*
X153019047Y-73658152D01*
X153019047Y-73658152D02*
X152971428Y-73705771D01*
X152971428Y-73705771D02*
X152876190Y-73753390D01*
X152876190Y-73753390D02*
X152685714Y-73753390D01*
X152685714Y-73753390D02*
X152590476Y-73801009D01*
X152590476Y-73801009D02*
X152542857Y-73848628D01*
X152542857Y-73848628D02*
X152495238Y-73943866D01*
X152495238Y-73943866D02*
X152495238Y-74134342D01*
X152495238Y-74134342D02*
X152542857Y-74229580D01*
X152542857Y-74229580D02*
X152590476Y-74277200D01*
X152590476Y-74277200D02*
X152685714Y-74324819D01*
X152685714Y-74324819D02*
X152876190Y-74324819D01*
X152876190Y-74324819D02*
X152971428Y-74277200D01*
X152971428Y-74277200D02*
X153019047Y-74229580D01*
X153019047Y-74229580D02*
X153066666Y-74134342D01*
X153066666Y-74134342D02*
X153066666Y-73943866D01*
X153066666Y-73943866D02*
X153019047Y-73848628D01*
X153019047Y-73848628D02*
X152971428Y-73801009D01*
X152971428Y-73801009D02*
X152876190Y-73753390D01*
X106346666Y-106344819D02*
X106346666Y-107059104D01*
X106346666Y-107059104D02*
X106299047Y-107201961D01*
X106299047Y-107201961D02*
X106203809Y-107297200D01*
X106203809Y-107297200D02*
X106060952Y-107344819D01*
X106060952Y-107344819D02*
X105965714Y-107344819D01*
X106727619Y-106344819D02*
X107394285Y-106344819D01*
X107394285Y-106344819D02*
X106965714Y-107344819D01*
X154184819Y-117173333D02*
X154899104Y-117173333D01*
X154899104Y-117173333D02*
X155041961Y-117220952D01*
X155041961Y-117220952D02*
X155137200Y-117316190D01*
X155137200Y-117316190D02*
X155184819Y-117459047D01*
X155184819Y-117459047D02*
X155184819Y-117554285D01*
X154184819Y-116220952D02*
X154184819Y-116697142D01*
X154184819Y-116697142D02*
X154661009Y-116744761D01*
X154661009Y-116744761D02*
X154613390Y-116697142D01*
X154613390Y-116697142D02*
X154565771Y-116601904D01*
X154565771Y-116601904D02*
X154565771Y-116363809D01*
X154565771Y-116363809D02*
X154613390Y-116268571D01*
X154613390Y-116268571D02*
X154661009Y-116220952D01*
X154661009Y-116220952D02*
X154756247Y-116173333D01*
X154756247Y-116173333D02*
X154994342Y-116173333D01*
X154994342Y-116173333D02*
X155089580Y-116220952D01*
X155089580Y-116220952D02*
X155137200Y-116268571D01*
X155137200Y-116268571D02*
X155184819Y-116363809D01*
X155184819Y-116363809D02*
X155184819Y-116601904D01*
X155184819Y-116601904D02*
X155137200Y-116697142D01*
X155137200Y-116697142D02*
X155089580Y-116744761D01*
X154184819Y-110823333D02*
X154899104Y-110823333D01*
X154899104Y-110823333D02*
X155041961Y-110870952D01*
X155041961Y-110870952D02*
X155137200Y-110966190D01*
X155137200Y-110966190D02*
X155184819Y-111109047D01*
X155184819Y-111109047D02*
X155184819Y-111204285D01*
X154518152Y-109918571D02*
X155184819Y-109918571D01*
X154137200Y-110156666D02*
X154851485Y-110394761D01*
X154851485Y-110394761D02*
X154851485Y-109775714D01*
X154184819Y-104473333D02*
X154899104Y-104473333D01*
X154899104Y-104473333D02*
X155041961Y-104520952D01*
X155041961Y-104520952D02*
X155137200Y-104616190D01*
X155137200Y-104616190D02*
X155184819Y-104759047D01*
X155184819Y-104759047D02*
X155184819Y-104854285D01*
X154184819Y-104092380D02*
X154184819Y-103473333D01*
X154184819Y-103473333D02*
X154565771Y-103806666D01*
X154565771Y-103806666D02*
X154565771Y-103663809D01*
X154565771Y-103663809D02*
X154613390Y-103568571D01*
X154613390Y-103568571D02*
X154661009Y-103520952D01*
X154661009Y-103520952D02*
X154756247Y-103473333D01*
X154756247Y-103473333D02*
X154994342Y-103473333D01*
X154994342Y-103473333D02*
X155089580Y-103520952D01*
X155089580Y-103520952D02*
X155137200Y-103568571D01*
X155137200Y-103568571D02*
X155184819Y-103663809D01*
X155184819Y-103663809D02*
X155184819Y-103949523D01*
X155184819Y-103949523D02*
X155137200Y-104044761D01*
X155137200Y-104044761D02*
X155089580Y-104092380D01*
X154184819Y-98123333D02*
X154899104Y-98123333D01*
X154899104Y-98123333D02*
X155041961Y-98170952D01*
X155041961Y-98170952D02*
X155137200Y-98266190D01*
X155137200Y-98266190D02*
X155184819Y-98409047D01*
X155184819Y-98409047D02*
X155184819Y-98504285D01*
X154280057Y-97694761D02*
X154232438Y-97647142D01*
X154232438Y-97647142D02*
X154184819Y-97551904D01*
X154184819Y-97551904D02*
X154184819Y-97313809D01*
X154184819Y-97313809D02*
X154232438Y-97218571D01*
X154232438Y-97218571D02*
X154280057Y-97170952D01*
X154280057Y-97170952D02*
X154375295Y-97123333D01*
X154375295Y-97123333D02*
X154470533Y-97123333D01*
X154470533Y-97123333D02*
X154613390Y-97170952D01*
X154613390Y-97170952D02*
X155184819Y-97742380D01*
X155184819Y-97742380D02*
X155184819Y-97123333D01*
X154184819Y-91773333D02*
X154899104Y-91773333D01*
X154899104Y-91773333D02*
X155041961Y-91820952D01*
X155041961Y-91820952D02*
X155137200Y-91916190D01*
X155137200Y-91916190D02*
X155184819Y-92059047D01*
X155184819Y-92059047D02*
X155184819Y-92154285D01*
X155184819Y-90773333D02*
X155184819Y-91344761D01*
X155184819Y-91059047D02*
X154184819Y-91059047D01*
X154184819Y-91059047D02*
X154327676Y-91154285D01*
X154327676Y-91154285D02*
X154422914Y-91249523D01*
X154422914Y-91249523D02*
X154470533Y-91344761D01*
X124984819Y-107418094D02*
X123984819Y-107418094D01*
X123984819Y-107418094D02*
X123984819Y-107179999D01*
X123984819Y-107179999D02*
X124032438Y-107037142D01*
X124032438Y-107037142D02*
X124127676Y-106941904D01*
X124127676Y-106941904D02*
X124222914Y-106894285D01*
X124222914Y-106894285D02*
X124413390Y-106846666D01*
X124413390Y-106846666D02*
X124556247Y-106846666D01*
X124556247Y-106846666D02*
X124746723Y-106894285D01*
X124746723Y-106894285D02*
X124841961Y-106941904D01*
X124841961Y-106941904D02*
X124937200Y-107037142D01*
X124937200Y-107037142D02*
X124984819Y-107179999D01*
X124984819Y-107179999D02*
X124984819Y-107418094D01*
X123984819Y-106513332D02*
X123984819Y-105894285D01*
X123984819Y-105894285D02*
X124365771Y-106227618D01*
X124365771Y-106227618D02*
X124365771Y-106084761D01*
X124365771Y-106084761D02*
X124413390Y-105989523D01*
X124413390Y-105989523D02*
X124461009Y-105941904D01*
X124461009Y-105941904D02*
X124556247Y-105894285D01*
X124556247Y-105894285D02*
X124794342Y-105894285D01*
X124794342Y-105894285D02*
X124889580Y-105941904D01*
X124889580Y-105941904D02*
X124937200Y-105989523D01*
X124937200Y-105989523D02*
X124984819Y-106084761D01*
X124984819Y-106084761D02*
X124984819Y-106370475D01*
X124984819Y-106370475D02*
X124937200Y-106465713D01*
X124937200Y-106465713D02*
X124889580Y-106513332D01*
X125354819Y-112021904D02*
X124354819Y-112021904D01*
X125354819Y-111450476D02*
X124783390Y-111879047D01*
X124354819Y-111450476D02*
X124926247Y-112021904D01*
X116101905Y-114684819D02*
X116101905Y-113684819D01*
X116101905Y-113684819D02*
X116340000Y-113684819D01*
X116340000Y-113684819D02*
X116482857Y-113732438D01*
X116482857Y-113732438D02*
X116578095Y-113827676D01*
X116578095Y-113827676D02*
X116625714Y-113922914D01*
X116625714Y-113922914D02*
X116673333Y-114113390D01*
X116673333Y-114113390D02*
X116673333Y-114256247D01*
X116673333Y-114256247D02*
X116625714Y-114446723D01*
X116625714Y-114446723D02*
X116578095Y-114541961D01*
X116578095Y-114541961D02*
X116482857Y-114637200D01*
X116482857Y-114637200D02*
X116340000Y-114684819D01*
X116340000Y-114684819D02*
X116101905Y-114684819D01*
X117054286Y-113780057D02*
X117101905Y-113732438D01*
X117101905Y-113732438D02*
X117197143Y-113684819D01*
X117197143Y-113684819D02*
X117435238Y-113684819D01*
X117435238Y-113684819D02*
X117530476Y-113732438D01*
X117530476Y-113732438D02*
X117578095Y-113780057D01*
X117578095Y-113780057D02*
X117625714Y-113875295D01*
X117625714Y-113875295D02*
X117625714Y-113970533D01*
X117625714Y-113970533D02*
X117578095Y-114113390D01*
X117578095Y-114113390D02*
X117006667Y-114684819D01*
X117006667Y-114684819D02*
X117625714Y-114684819D01*
X121658095Y-114314819D02*
X121658095Y-113314819D01*
X122229523Y-114314819D02*
X121800952Y-113743390D01*
X122229523Y-113314819D02*
X121658095Y-113886247D01*
X136421905Y-87404819D02*
X136421905Y-86404819D01*
X136421905Y-86404819D02*
X136660000Y-86404819D01*
X136660000Y-86404819D02*
X136802857Y-86452438D01*
X136802857Y-86452438D02*
X136898095Y-86547676D01*
X136898095Y-86547676D02*
X136945714Y-86642914D01*
X136945714Y-86642914D02*
X136993333Y-86833390D01*
X136993333Y-86833390D02*
X136993333Y-86976247D01*
X136993333Y-86976247D02*
X136945714Y-87166723D01*
X136945714Y-87166723D02*
X136898095Y-87261961D01*
X136898095Y-87261961D02*
X136802857Y-87357200D01*
X136802857Y-87357200D02*
X136660000Y-87404819D01*
X136660000Y-87404819D02*
X136421905Y-87404819D01*
X137945714Y-87404819D02*
X137374286Y-87404819D01*
X137660000Y-87404819D02*
X137660000Y-86404819D01*
X137660000Y-86404819D02*
X137564762Y-86547676D01*
X137564762Y-86547676D02*
X137469524Y-86642914D01*
X137469524Y-86642914D02*
X137374286Y-86690533D01*
X146898095Y-84334819D02*
X146898095Y-83334819D01*
X147469523Y-84334819D02*
X147040952Y-83763390D01*
X147469523Y-83334819D02*
X146898095Y-83906247D01*
D11*
%TO.C,TH5*%
X132850000Y-118230000D02*
X141470000Y-118230000D01*
X132850000Y-115450000D02*
X132850000Y-118230000D01*
X132850000Y-115450000D02*
X141470000Y-115450000D01*
X141470000Y-115450000D02*
X141470000Y-118230000D01*
%TO.C,TH4*%
X132850000Y-111880000D02*
X141470000Y-111880000D01*
X132850000Y-109100000D02*
X132850000Y-111880000D01*
X132850000Y-109100000D02*
X141470000Y-109100000D01*
X141470000Y-109100000D02*
X141470000Y-111880000D01*
%TO.C,TH3*%
X141470000Y-102750000D02*
X141470000Y-105530000D01*
X132850000Y-102750000D02*
X141470000Y-102750000D01*
X132850000Y-102750000D02*
X132850000Y-105530000D01*
X132850000Y-105530000D02*
X141470000Y-105530000D01*
%TO.C,TH2*%
X132850000Y-99180000D02*
X141470000Y-99180000D01*
X132850000Y-96400000D02*
X132850000Y-99180000D01*
X132850000Y-96400000D02*
X141470000Y-96400000D01*
X141470000Y-96400000D02*
X141470000Y-99180000D01*
%TO.C,TH1*%
X132850000Y-92830000D02*
X141470000Y-92830000D01*
X132850000Y-90050000D02*
X132850000Y-92830000D01*
X132850000Y-90050000D02*
X141470000Y-90050000D01*
X141470000Y-90050000D02*
X141470000Y-92830000D01*
%TO.C,Q1*%
X118690000Y-108480000D02*
X118690000Y-104880000D01*
X118678478Y-104841522D02*
G75*
G03*
X114240000Y-106680000I-1838478J-1838478D01*
G01*
X114240000Y-106680000D02*
G75*
G03*
X118678478Y-108518478I2600000J0D01*
G01*
%TO.C,J9*%
X108010000Y-88900000D02*
X108010000Y-90230000D01*
X108010000Y-85030000D02*
X105350000Y-85030000D01*
X108010000Y-87630000D02*
X108010000Y-85030000D01*
X108010000Y-87630000D02*
X105350000Y-87630000D01*
X108010000Y-90230000D02*
X106680000Y-90230000D01*
X105350000Y-87630000D02*
X105350000Y-85030000D01*
%TO.C,J8*%
X153730000Y-77470000D02*
X153730000Y-87690000D01*
X151070000Y-74870000D02*
X152400000Y-74870000D01*
X151070000Y-77470000D02*
X151070000Y-87690000D01*
X151070000Y-87690000D02*
X153730000Y-87690000D01*
X151070000Y-77470000D02*
X153730000Y-77470000D01*
X151070000Y-76200000D02*
X151070000Y-74870000D01*
%TO.C,J7*%
X105350000Y-109220000D02*
X105350000Y-107890000D01*
X105350000Y-113090000D02*
X108010000Y-113090000D01*
X105350000Y-110490000D02*
X105350000Y-113090000D01*
X105350000Y-110490000D02*
X108010000Y-110490000D01*
X105350000Y-107890000D02*
X106680000Y-107890000D01*
X108010000Y-110490000D02*
X108010000Y-113090000D01*
%TO.C,J5*%
X151130000Y-115510000D02*
X151130000Y-118170000D01*
X153730000Y-115510000D02*
X153730000Y-116840000D01*
X151130000Y-118170000D02*
X145990000Y-118170000D01*
X152400000Y-115510000D02*
X153730000Y-115510000D01*
X151130000Y-115510000D02*
X145990000Y-115510000D01*
X145990000Y-115510000D02*
X145990000Y-118170000D01*
%TO.C,J4*%
X145990000Y-109160000D02*
X145990000Y-111820000D01*
X151130000Y-109160000D02*
X145990000Y-109160000D01*
X152400000Y-109160000D02*
X153730000Y-109160000D01*
X151130000Y-111820000D02*
X145990000Y-111820000D01*
X153730000Y-109160000D02*
X153730000Y-110490000D01*
X151130000Y-109160000D02*
X151130000Y-111820000D01*
%TO.C,J3*%
X145990000Y-102810000D02*
X145990000Y-105470000D01*
X151130000Y-102810000D02*
X145990000Y-102810000D01*
X152400000Y-102810000D02*
X153730000Y-102810000D01*
X151130000Y-105470000D02*
X145990000Y-105470000D01*
X153730000Y-102810000D02*
X153730000Y-104140000D01*
X151130000Y-102810000D02*
X151130000Y-105470000D01*
%TO.C,J2*%
X145990000Y-96460000D02*
X145990000Y-99120000D01*
X151130000Y-96460000D02*
X145990000Y-96460000D01*
X152400000Y-96460000D02*
X153730000Y-96460000D01*
X151130000Y-99120000D02*
X145990000Y-99120000D01*
X153730000Y-96460000D02*
X153730000Y-97790000D01*
X151130000Y-96460000D02*
X151130000Y-99120000D01*
%TO.C,J1*%
X151130000Y-90110000D02*
X151130000Y-92770000D01*
X153730000Y-90110000D02*
X153730000Y-91440000D01*
X151130000Y-92770000D02*
X145990000Y-92770000D01*
X152400000Y-90110000D02*
X153730000Y-90110000D01*
X151130000Y-90110000D02*
X145990000Y-90110000D01*
X145990000Y-90110000D02*
X145990000Y-92770000D01*
%TO.C,D3*%
X125530000Y-108500000D02*
X128470000Y-108500000D01*
X125530000Y-108380000D02*
X128470000Y-108380000D01*
X128470000Y-109400000D02*
X128470000Y-103960000D01*
X127000000Y-102940000D02*
X127000000Y-103960000D01*
X125530000Y-109400000D02*
X128470000Y-109400000D01*
X125530000Y-108620000D02*
X128470000Y-108620000D01*
X128470000Y-103960000D02*
X125530000Y-103960000D01*
X127000000Y-110420000D02*
X127000000Y-109400000D01*
X125530000Y-103960000D02*
X125530000Y-109400000D01*
%TO.C,D2*%
X118660000Y-113230000D02*
X118660000Y-110290000D01*
X118540000Y-113230000D02*
X118540000Y-110290000D01*
X119560000Y-110290000D02*
X114120000Y-110290000D01*
X113100000Y-111760000D02*
X114120000Y-111760000D01*
X119560000Y-113230000D02*
X119560000Y-110290000D01*
X118780000Y-113230000D02*
X118780000Y-110290000D01*
X114120000Y-110290000D02*
X114120000Y-113230000D01*
X120580000Y-111760000D02*
X119560000Y-111760000D01*
X114120000Y-113230000D02*
X119560000Y-113230000D01*
%TO.C,D1*%
X140225000Y-85950000D02*
X140225000Y-76610000D01*
X129000000Y-81280000D02*
X132490000Y-81280000D01*
X141830000Y-76610000D02*
X132490000Y-76610000D01*
X132490000Y-85950000D02*
X141830000Y-85950000D01*
X132490000Y-76610000D02*
X132490000Y-85950000D01*
X140465000Y-85950000D02*
X140465000Y-76610000D01*
X141830000Y-85950000D02*
X141830000Y-76610000D01*
X140345000Y-85950000D02*
X140345000Y-76610000D01*
X145320000Y-81280000D02*
X141830000Y-81280000D01*
%TD*%
M02*
