%TF.GenerationSoftware,KiCad,Pcbnew,7.0.9*%
%TF.CreationDate,2024-02-06T23:46:10-08:00*%
%TF.ProjectId,AaronMotorDriver,4161726f-6e4d-46f7-946f-724472697665,rev?*%
%TF.SameCoordinates,Original*%
%TF.FileFunction,Copper,L2,Bot*%
%TF.FilePolarity,Positive*%
%FSLAX46Y46*%
G04 Gerber Fmt 4.6, Leading zero omitted, Abs format (unit mm)*
G04 Created by KiCad (PCBNEW 7.0.9) date 2024-02-06 23:46:10*
%MOMM*%
%LPD*%
G01*
G04 APERTURE LIST*
%TA.AperFunction,ComponentPad*%
%ADD10C,1.600000*%
%TD*%
%TA.AperFunction,ComponentPad*%
%ADD11R,1.500000X1.050000*%
%TD*%
%TA.AperFunction,ComponentPad*%
%ADD12O,1.500000X1.050000*%
%TD*%
%TA.AperFunction,ComponentPad*%
%ADD13R,1.950000X1.950000*%
%TD*%
%TA.AperFunction,ComponentPad*%
%ADD14C,1.950000*%
%TD*%
%TA.AperFunction,ComponentPad*%
%ADD15C,2.400000*%
%TD*%
%TA.AperFunction,ComponentPad*%
%ADD16R,1.700000X1.700000*%
%TD*%
%TA.AperFunction,ComponentPad*%
%ADD17O,1.700000X1.700000*%
%TD*%
%TA.AperFunction,ComponentPad*%
%ADD18R,2.200000X2.200000*%
%TD*%
%TA.AperFunction,ComponentPad*%
%ADD19O,2.200000X2.200000*%
%TD*%
%TA.AperFunction,ComponentPad*%
%ADD20R,3.200000X3.200000*%
%TD*%
%TA.AperFunction,ComponentPad*%
%ADD21O,3.200000X3.200000*%
%TD*%
%TA.AperFunction,Conductor*%
%ADD22C,1.000000*%
%TD*%
G04 APERTURE END LIST*
D10*
%TO.P,TH5,2*%
%TO.N,Net-(J5-Pin_2)*%
X139700000Y-116840000D03*
%TO.P,TH5,1*%
%TO.N,Net-(D1-K)*%
X134620000Y-116840000D03*
%TD*%
%TO.P,TH4,2*%
%TO.N,Net-(J4-Pin_2)*%
X139700000Y-110490000D03*
%TO.P,TH4,1*%
%TO.N,Net-(D1-K)*%
X134620000Y-110490000D03*
%TD*%
%TO.P,TH3,1*%
%TO.N,Net-(D1-K)*%
X134620000Y-104140000D03*
%TO.P,TH3,2*%
%TO.N,Net-(J3-Pin_2)*%
X139700000Y-104140000D03*
%TD*%
%TO.P,TH2,2*%
%TO.N,Net-(J2-Pin_2)*%
X139700000Y-97790000D03*
%TO.P,TH2,1*%
%TO.N,Net-(D1-K)*%
X134620000Y-97790000D03*
%TD*%
%TO.P,TH1,2*%
%TO.N,Net-(J1-Pin_2)*%
X139700000Y-91440000D03*
%TO.P,TH1,1*%
%TO.N,Net-(D1-K)*%
X134620000Y-91440000D03*
%TD*%
D11*
%TO.P,Q1,1,C*%
%TO.N,Net-(D3-A)*%
X116840000Y-107950000D03*
D12*
%TO.P,Q1,2,B*%
%TO.N,RelayControl*%
X116840000Y-106680000D03*
%TO.P,Q1,3,E*%
%TO.N,GND*%
X116840000Y-105410000D03*
%TD*%
D13*
%TO.P,K1,1,COIL_1*%
%TO.N,VCC*%
X121750000Y-99060000D03*
D14*
%TO.P,K1,2,COIL_2*%
%TO.N,Net-(D3-A)*%
X114150000Y-99060000D03*
D15*
%TO.P,K1,3,COM*%
%TO.N,5V*%
X114300000Y-86360000D03*
%TO.P,K1,4,NO*%
%TO.N,Net-(D1-A)*%
X121600000Y-83810000D03*
%TD*%
D16*
%TO.P,J9,1,Pin_1*%
%TO.N,GND*%
X106680000Y-88900000D03*
D17*
%TO.P,J9,2,Pin_2*%
%TO.N,5V*%
X106680000Y-86360000D03*
%TD*%
D16*
%TO.P,J8,1,Pin_1*%
%TO.N,PWM4*%
X152400000Y-76200000D03*
D17*
%TO.P,J8,2,Pin_2*%
%TO.N,PWM3*%
X152400000Y-78740000D03*
%TO.P,J8,3,Pin_3*%
%TO.N,PWM2*%
X152400000Y-81280000D03*
%TO.P,J8,4,Pin_4*%
%TO.N,PWM1*%
X152400000Y-83820000D03*
%TO.P,J8,5,Pin_5*%
%TO.N,PWM0*%
X152400000Y-86360000D03*
%TD*%
D16*
%TO.P,J7,1,Pin_1*%
%TO.N,RelayControl*%
X106680000Y-109220000D03*
D17*
%TO.P,J7,2,Pin_2*%
%TO.N,VCC*%
X106680000Y-111760000D03*
%TD*%
%TO.P,J5,3,Pin_3*%
%TO.N,GND*%
X147320000Y-116840000D03*
%TO.P,J5,2,Pin_2*%
%TO.N,Net-(J5-Pin_2)*%
X149860000Y-116840000D03*
D16*
%TO.P,J5,1,Pin_1*%
%TO.N,PWM4*%
X152400000Y-116840000D03*
%TD*%
%TO.P,J4,1,Pin_1*%
%TO.N,PWM3*%
X152400000Y-110490000D03*
D17*
%TO.P,J4,2,Pin_2*%
%TO.N,Net-(J4-Pin_2)*%
X149860000Y-110490000D03*
%TO.P,J4,3,Pin_3*%
%TO.N,GND*%
X147320000Y-110490000D03*
%TD*%
D16*
%TO.P,J3,1,Pin_1*%
%TO.N,PWM2*%
X152400000Y-104140000D03*
D17*
%TO.P,J3,2,Pin_2*%
%TO.N,Net-(J3-Pin_2)*%
X149860000Y-104140000D03*
%TO.P,J3,3,Pin_3*%
%TO.N,GND*%
X147320000Y-104140000D03*
%TD*%
D16*
%TO.P,J2,1,Pin_1*%
%TO.N,PWM1*%
X152400000Y-97790000D03*
D17*
%TO.P,J2,2,Pin_2*%
%TO.N,Net-(J2-Pin_2)*%
X149860000Y-97790000D03*
%TO.P,J2,3,Pin_3*%
%TO.N,GND*%
X147320000Y-97790000D03*
%TD*%
%TO.P,J1,3,Pin_3*%
%TO.N,GND*%
X147320000Y-91440000D03*
%TO.P,J1,2,Pin_2*%
%TO.N,Net-(J1-Pin_2)*%
X149860000Y-91440000D03*
D16*
%TO.P,J1,1,Pin_1*%
%TO.N,PWM0*%
X152400000Y-91440000D03*
%TD*%
D18*
%TO.P,D3,1,K*%
%TO.N,Net-(D2-K)*%
X127000000Y-111760000D03*
D19*
%TO.P,D3,2,A*%
%TO.N,Net-(D3-A)*%
X127000000Y-101600000D03*
%TD*%
D18*
%TO.P,D2,1,K*%
%TO.N,Net-(D2-K)*%
X121920000Y-111760000D03*
D19*
%TO.P,D2,2,A*%
%TO.N,VCC*%
X111760000Y-111760000D03*
%TD*%
D20*
%TO.P,D1,1,K*%
%TO.N,Net-(D1-K)*%
X147160000Y-81280000D03*
D21*
%TO.P,D1,2,A*%
%TO.N,Net-(D1-A)*%
X127160000Y-81280000D03*
%TD*%
D22*
%TO.N,GND*%
X116840000Y-105410000D02*
X118110000Y-105410000D01*
X115570000Y-105410000D02*
X116840000Y-105410000D01*
%TD*%
%TA.AperFunction,Conductor*%
%TO.N,GND*%
G36*
X166216288Y-71773954D02*
G01*
X166297070Y-71827930D01*
X166351046Y-71908712D01*
X166370000Y-72004000D01*
X166370000Y-120401000D01*
X166351046Y-120496288D01*
X166297070Y-120577070D01*
X166216288Y-120631046D01*
X166121000Y-120650000D01*
X97404000Y-120650000D01*
X97308712Y-120631046D01*
X97227930Y-120577070D01*
X97173954Y-120496288D01*
X97155000Y-120401000D01*
X97155000Y-116840000D01*
X132814451Y-116840000D01*
X132834616Y-117109100D01*
X132894663Y-117372187D01*
X132894667Y-117372198D01*
X132993256Y-117623395D01*
X132993257Y-117623398D01*
X133128188Y-117857107D01*
X133292426Y-118063053D01*
X133296439Y-118068085D01*
X133494259Y-118251635D01*
X133717226Y-118403651D01*
X133960359Y-118520738D01*
X134218228Y-118600280D01*
X134485071Y-118640500D01*
X134485074Y-118640500D01*
X134754926Y-118640500D01*
X134754929Y-118640500D01*
X135021772Y-118600280D01*
X135279641Y-118520738D01*
X135522775Y-118403651D01*
X135527076Y-118400719D01*
X135745738Y-118251637D01*
X135745737Y-118251637D01*
X135745741Y-118251635D01*
X135943561Y-118068085D01*
X136111815Y-117857102D01*
X136246743Y-117623398D01*
X136345334Y-117372195D01*
X136405383Y-117109103D01*
X136425549Y-116840000D01*
X137894451Y-116840000D01*
X137914616Y-117109100D01*
X137974663Y-117372187D01*
X137974667Y-117372198D01*
X138073256Y-117623395D01*
X138073257Y-117623398D01*
X138208188Y-117857107D01*
X138372426Y-118063053D01*
X138376439Y-118068085D01*
X138574259Y-118251635D01*
X138797226Y-118403651D01*
X139040359Y-118520738D01*
X139298228Y-118600280D01*
X139565071Y-118640500D01*
X139565074Y-118640500D01*
X139834926Y-118640500D01*
X139834929Y-118640500D01*
X140101772Y-118600280D01*
X140359641Y-118520738D01*
X140602775Y-118403651D01*
X140607076Y-118400719D01*
X140825738Y-118251637D01*
X140825737Y-118251637D01*
X140825741Y-118251635D01*
X141023561Y-118068085D01*
X141191815Y-117857102D01*
X141326743Y-117623398D01*
X141425334Y-117372195D01*
X141485383Y-117109103D01*
X141486814Y-117090001D01*
X145989363Y-117090001D01*
X146046566Y-117303483D01*
X146046566Y-117303485D01*
X146146399Y-117517576D01*
X146281889Y-117711076D01*
X146448923Y-117878110D01*
X146642423Y-118013600D01*
X146856511Y-118113431D01*
X147070000Y-118170635D01*
X147070000Y-117275501D01*
X147177685Y-117324680D01*
X147284237Y-117340000D01*
X147355763Y-117340000D01*
X147462315Y-117324680D01*
X147570000Y-117275501D01*
X147570000Y-118170635D01*
X147783488Y-118113431D01*
X147997577Y-118013600D01*
X148081712Y-117954688D01*
X148170639Y-117915559D01*
X148267771Y-117913439D01*
X148358321Y-117948651D01*
X148423867Y-118009435D01*
X148457913Y-118054915D01*
X148645085Y-118242087D01*
X148856989Y-118400716D01*
X149089311Y-118527574D01*
X149337322Y-118620077D01*
X149595974Y-118676343D01*
X149860000Y-118695227D01*
X150124026Y-118676343D01*
X150382678Y-118620077D01*
X150630689Y-118527574D01*
X150701338Y-118488995D01*
X150794051Y-118459964D01*
X150890819Y-118468622D01*
X150976908Y-118513652D01*
X150977950Y-118514497D01*
X150996593Y-118529698D01*
X151176951Y-118623909D01*
X151372582Y-118679886D01*
X151491963Y-118690500D01*
X153308036Y-118690499D01*
X153308039Y-118690499D01*
X153359199Y-118685950D01*
X153427418Y-118679886D01*
X153623049Y-118623909D01*
X153803407Y-118529698D01*
X153961109Y-118401109D01*
X154089698Y-118243407D01*
X154183909Y-118063049D01*
X154239886Y-117867418D01*
X154250500Y-117748037D01*
X154250499Y-115931964D01*
X154247797Y-115901575D01*
X154240803Y-115822898D01*
X154239886Y-115812582D01*
X154183909Y-115616951D01*
X154089698Y-115436593D01*
X153961109Y-115278891D01*
X153803407Y-115150302D01*
X153803405Y-115150301D01*
X153803402Y-115150299D01*
X153623053Y-115056093D01*
X153623052Y-115056092D01*
X153623049Y-115056091D01*
X153436693Y-115002768D01*
X159435787Y-115002768D01*
X159465328Y-115271238D01*
X159465414Y-115272018D01*
X159533928Y-115534088D01*
X159619513Y-115735487D01*
X159639869Y-115783387D01*
X159639872Y-115783394D01*
X159780976Y-116014601D01*
X159780978Y-116014605D01*
X159780982Y-116014610D01*
X159780987Y-116014616D01*
X159780990Y-116014620D01*
X159954254Y-116222819D01*
X159954255Y-116222820D01*
X160125790Y-116376516D01*
X160155996Y-116403580D01*
X160155999Y-116403583D01*
X160381903Y-116553040D01*
X160381906Y-116553041D01*
X160381910Y-116553044D01*
X160627176Y-116668020D01*
X160886569Y-116746060D01*
X161154561Y-116785500D01*
X161154567Y-116785500D01*
X161357634Y-116785500D01*
X161382610Y-116783671D01*
X161560156Y-116770677D01*
X161824553Y-116711780D01*
X162077558Y-116615014D01*
X162156166Y-116570897D01*
X162313773Y-116482444D01*
X162401055Y-116415048D01*
X162528177Y-116316888D01*
X162716186Y-116121881D01*
X162873799Y-115901579D01*
X162997656Y-115660675D01*
X163073652Y-115437914D01*
X163085117Y-115404309D01*
X163108283Y-115278893D01*
X163134319Y-115137933D01*
X163144212Y-114867235D01*
X163114586Y-114597982D01*
X163046072Y-114335912D01*
X162940130Y-114086610D01*
X162799018Y-113855390D01*
X162625745Y-113647180D01*
X162424002Y-113466418D01*
X162424000Y-113466416D01*
X162198096Y-113316959D01*
X162198090Y-113316956D01*
X161952824Y-113201980D01*
X161693431Y-113123940D01*
X161693427Y-113123939D01*
X161693426Y-113123939D01*
X161631715Y-113114857D01*
X161425439Y-113084500D01*
X161222369Y-113084500D01*
X161222366Y-113084500D01*
X161165012Y-113088698D01*
X161019844Y-113099323D01*
X161019840Y-113099323D01*
X161019837Y-113099324D01*
X160755442Y-113158221D01*
X160502436Y-113254988D01*
X160266226Y-113387555D01*
X160051826Y-113553108D01*
X159863811Y-113748122D01*
X159706204Y-113968416D01*
X159706199Y-113968424D01*
X159582344Y-114209323D01*
X159582343Y-114209325D01*
X159494882Y-114465690D01*
X159445681Y-114732062D01*
X159445680Y-114732073D01*
X159435788Y-115002765D01*
X159435787Y-115002768D01*
X153436693Y-115002768D01*
X153427418Y-115000114D01*
X153403541Y-114997991D01*
X153308041Y-114989500D01*
X153308037Y-114989500D01*
X152270281Y-114989500D01*
X151491961Y-114989501D01*
X151372585Y-115000113D01*
X151176954Y-115056090D01*
X151176946Y-115056093D01*
X150996596Y-115150299D01*
X150996593Y-115150301D01*
X150978024Y-115165443D01*
X150892196Y-115210969D01*
X150795479Y-115220184D01*
X150702597Y-115191686D01*
X150701340Y-115191004D01*
X150630691Y-115152427D01*
X150630687Y-115152425D01*
X150559177Y-115125753D01*
X150382678Y-115059923D01*
X150180293Y-115015897D01*
X150124027Y-115003657D01*
X149860000Y-114984773D01*
X149595972Y-115003657D01*
X149483440Y-115028137D01*
X149337322Y-115059923D01*
X149284244Y-115079720D01*
X149089312Y-115152425D01*
X149089308Y-115152427D01*
X148856995Y-115279280D01*
X148856989Y-115279284D01*
X148645085Y-115437913D01*
X148645084Y-115437914D01*
X148457909Y-115625089D01*
X148423868Y-115670564D01*
X148351590Y-115735487D01*
X148259969Y-115767809D01*
X148162954Y-115762608D01*
X148081714Y-115725312D01*
X147997579Y-115666400D01*
X147783484Y-115566566D01*
X147570001Y-115509363D01*
X147570000Y-115509364D01*
X147570000Y-116404498D01*
X147462315Y-116355320D01*
X147355763Y-116340000D01*
X147284237Y-116340000D01*
X147177685Y-116355320D01*
X147070000Y-116404498D01*
X147070000Y-115509364D01*
X147069998Y-115509363D01*
X146856516Y-115566566D01*
X146856505Y-115566570D01*
X146642428Y-115666396D01*
X146642420Y-115666400D01*
X146448923Y-115801889D01*
X146281889Y-115968923D01*
X146146400Y-116162420D01*
X146146396Y-116162428D01*
X146046570Y-116376505D01*
X146046566Y-116376516D01*
X145989363Y-116589998D01*
X145989364Y-116590000D01*
X146886314Y-116590000D01*
X146860507Y-116630156D01*
X146820000Y-116768111D01*
X146820000Y-116911889D01*
X146860507Y-117049844D01*
X146886314Y-117090000D01*
X145989364Y-117090000D01*
X145989363Y-117090001D01*
X141486814Y-117090001D01*
X141505549Y-116840000D01*
X141485383Y-116570897D01*
X141447195Y-116403583D01*
X141425336Y-116307812D01*
X141425334Y-116307809D01*
X141425334Y-116307805D01*
X141326743Y-116056602D01*
X141191815Y-115822898D01*
X141191813Y-115822895D01*
X141191811Y-115822892D01*
X141023562Y-115611916D01*
X140825738Y-115428362D01*
X140602778Y-115276350D01*
X140602773Y-115276348D01*
X140359649Y-115159265D01*
X140359644Y-115159263D01*
X140359641Y-115159262D01*
X140101772Y-115079720D01*
X139834929Y-115039500D01*
X139565071Y-115039500D01*
X139364938Y-115069665D01*
X139298227Y-115079720D01*
X139124439Y-115133326D01*
X139069417Y-115150299D01*
X139040353Y-115159264D01*
X138797227Y-115276348D01*
X138574257Y-115428366D01*
X138376437Y-115611916D01*
X138208189Y-115822892D01*
X138208188Y-115822892D01*
X138073257Y-116056601D01*
X138073256Y-116056604D01*
X137974667Y-116307801D01*
X137974663Y-116307812D01*
X137914616Y-116570899D01*
X137894451Y-116840000D01*
X136425549Y-116840000D01*
X136405383Y-116570897D01*
X136367195Y-116403583D01*
X136345336Y-116307812D01*
X136345334Y-116307809D01*
X136345334Y-116307805D01*
X136246743Y-116056602D01*
X136111815Y-115822898D01*
X136111813Y-115822895D01*
X136111811Y-115822892D01*
X135943562Y-115611916D01*
X135745738Y-115428362D01*
X135522778Y-115276350D01*
X135522773Y-115276348D01*
X135279649Y-115159265D01*
X135279644Y-115159263D01*
X135279641Y-115159262D01*
X135021772Y-115079720D01*
X134754929Y-115039500D01*
X134485071Y-115039500D01*
X134284938Y-115069665D01*
X134218227Y-115079720D01*
X134044439Y-115133326D01*
X133989417Y-115150299D01*
X133960353Y-115159264D01*
X133717227Y-115276348D01*
X133494257Y-115428366D01*
X133296437Y-115611916D01*
X133128189Y-115822892D01*
X133128188Y-115822892D01*
X132993257Y-116056601D01*
X132993256Y-116056604D01*
X132894667Y-116307801D01*
X132894663Y-116307812D01*
X132834616Y-116570899D01*
X132814451Y-116840000D01*
X97155000Y-116840000D01*
X97155000Y-115002768D01*
X99110787Y-115002768D01*
X99140328Y-115271238D01*
X99140414Y-115272018D01*
X99208928Y-115534088D01*
X99294513Y-115735487D01*
X99314869Y-115783387D01*
X99314872Y-115783394D01*
X99455976Y-116014601D01*
X99455978Y-116014605D01*
X99455982Y-116014610D01*
X99455987Y-116014616D01*
X99455990Y-116014620D01*
X99629254Y-116222819D01*
X99629255Y-116222820D01*
X99800790Y-116376516D01*
X99830996Y-116403580D01*
X99830999Y-116403583D01*
X100056903Y-116553040D01*
X100056906Y-116553041D01*
X100056910Y-116553044D01*
X100302176Y-116668020D01*
X100561569Y-116746060D01*
X100829561Y-116785500D01*
X100829567Y-116785500D01*
X101032634Y-116785500D01*
X101057610Y-116783671D01*
X101235156Y-116770677D01*
X101499553Y-116711780D01*
X101752558Y-116615014D01*
X101831166Y-116570897D01*
X101988773Y-116482444D01*
X102076055Y-116415048D01*
X102203177Y-116316888D01*
X102391186Y-116121881D01*
X102548799Y-115901579D01*
X102672656Y-115660675D01*
X102748652Y-115437914D01*
X102760117Y-115404309D01*
X102783283Y-115278893D01*
X102809319Y-115137933D01*
X102819212Y-114867235D01*
X102789586Y-114597982D01*
X102721072Y-114335912D01*
X102615130Y-114086610D01*
X102474018Y-113855390D01*
X102300745Y-113647180D01*
X102099002Y-113466418D01*
X102099000Y-113466416D01*
X101873096Y-113316959D01*
X101873090Y-113316956D01*
X101627824Y-113201980D01*
X101368431Y-113123940D01*
X101368427Y-113123939D01*
X101368426Y-113123939D01*
X101306715Y-113114857D01*
X101100439Y-113084500D01*
X100897369Y-113084500D01*
X100897366Y-113084500D01*
X100840012Y-113088698D01*
X100694844Y-113099323D01*
X100694840Y-113099323D01*
X100694837Y-113099324D01*
X100430442Y-113158221D01*
X100177436Y-113254988D01*
X99941226Y-113387555D01*
X99726826Y-113553108D01*
X99538811Y-113748122D01*
X99381204Y-113968416D01*
X99381199Y-113968424D01*
X99257344Y-114209323D01*
X99257343Y-114209325D01*
X99169882Y-114465690D01*
X99120681Y-114732062D01*
X99120680Y-114732073D01*
X99110788Y-115002765D01*
X99110787Y-115002768D01*
X97155000Y-115002768D01*
X97155000Y-111760000D01*
X104824773Y-111760000D01*
X104843657Y-112024027D01*
X104849549Y-112051110D01*
X104899923Y-112282678D01*
X104965753Y-112459177D01*
X104992425Y-112530687D01*
X104992427Y-112530691D01*
X105029617Y-112598800D01*
X105119284Y-112763011D01*
X105277913Y-112974915D01*
X105465085Y-113162087D01*
X105676989Y-113320716D01*
X105909311Y-113447574D01*
X106157322Y-113540077D01*
X106415974Y-113596343D01*
X106680000Y-113615227D01*
X106944026Y-113596343D01*
X107202678Y-113540077D01*
X107450689Y-113447574D01*
X107683011Y-113320716D01*
X107894915Y-113162087D01*
X108082087Y-112974915D01*
X108240716Y-112763011D01*
X108367574Y-112530689D01*
X108460077Y-112282678D01*
X108516343Y-112024026D01*
X108535227Y-111760000D01*
X109654592Y-111760000D01*
X109674202Y-112046689D01*
X109674203Y-112046692D01*
X109699980Y-112170738D01*
X109732666Y-112328032D01*
X109733325Y-112329885D01*
X109828897Y-112598800D01*
X109828898Y-112598802D01*
X109913985Y-112763010D01*
X109961099Y-112853936D01*
X110126811Y-113088698D01*
X110322947Y-113298708D01*
X110529088Y-113466416D01*
X110545853Y-113480055D01*
X110768132Y-113615227D01*
X110791375Y-113629361D01*
X111054942Y-113743844D01*
X111331642Y-113821371D01*
X111331646Y-113821371D01*
X111331648Y-113821372D01*
X111411429Y-113832337D01*
X111616322Y-113860500D01*
X111616330Y-113860500D01*
X111903670Y-113860500D01*
X111903678Y-113860500D01*
X112188358Y-113821371D01*
X112465058Y-113743844D01*
X112728625Y-113629361D01*
X112974147Y-113480055D01*
X113197053Y-113298708D01*
X113393189Y-113088698D01*
X113558901Y-112853936D01*
X113691104Y-112598797D01*
X113787334Y-112328032D01*
X113845798Y-112046686D01*
X113865408Y-111760000D01*
X113845798Y-111473314D01*
X113787334Y-111191968D01*
X113691104Y-110921203D01*
X113558901Y-110666064D01*
X113513650Y-110601958D01*
X119819500Y-110601958D01*
X119819501Y-112918039D01*
X119830113Y-113037414D01*
X119830113Y-113037417D01*
X119830114Y-113037418D01*
X119886091Y-113233049D01*
X119980302Y-113413407D01*
X120108891Y-113571109D01*
X120266593Y-113699698D01*
X120446951Y-113793909D01*
X120642582Y-113849886D01*
X120761963Y-113860500D01*
X123078036Y-113860499D01*
X123078039Y-113860499D01*
X123135629Y-113855379D01*
X123197418Y-113849886D01*
X123393049Y-113793909D01*
X123573407Y-113699698D01*
X123731109Y-113571109D01*
X123859698Y-113413407D01*
X123953909Y-113233049D01*
X124009886Y-113037418D01*
X124020500Y-112918037D01*
X124020499Y-110601964D01*
X124020498Y-110601958D01*
X124899500Y-110601958D01*
X124899501Y-112918039D01*
X124910113Y-113037414D01*
X124910113Y-113037417D01*
X124910114Y-113037418D01*
X124966091Y-113233049D01*
X125060302Y-113413407D01*
X125188891Y-113571109D01*
X125346593Y-113699698D01*
X125526951Y-113793909D01*
X125722582Y-113849886D01*
X125841963Y-113860500D01*
X128158036Y-113860499D01*
X128158039Y-113860499D01*
X128215629Y-113855379D01*
X128277418Y-113849886D01*
X128473049Y-113793909D01*
X128653407Y-113699698D01*
X128811109Y-113571109D01*
X128939698Y-113413407D01*
X129033909Y-113233049D01*
X129089886Y-113037418D01*
X129100500Y-112918037D01*
X129100499Y-110601964D01*
X129100498Y-110601958D01*
X129090545Y-110490000D01*
X132814451Y-110490000D01*
X132834616Y-110759100D01*
X132894663Y-111022187D01*
X132894667Y-111022198D01*
X132993256Y-111273395D01*
X132993257Y-111273398D01*
X133128188Y-111507107D01*
X133292426Y-111713053D01*
X133296439Y-111718085D01*
X133494259Y-111901635D01*
X133717226Y-112053651D01*
X133960359Y-112170738D01*
X134218228Y-112250280D01*
X134485071Y-112290500D01*
X134485074Y-112290500D01*
X134754926Y-112290500D01*
X134754929Y-112290500D01*
X135021772Y-112250280D01*
X135279641Y-112170738D01*
X135522775Y-112053651D01*
X135527076Y-112050719D01*
X135745738Y-111901637D01*
X135745737Y-111901637D01*
X135745741Y-111901635D01*
X135943561Y-111718085D01*
X136111815Y-111507102D01*
X136246743Y-111273398D01*
X136345334Y-111022195D01*
X136405383Y-110759103D01*
X136425549Y-110490000D01*
X137894451Y-110490000D01*
X137914616Y-110759100D01*
X137974663Y-111022187D01*
X137974667Y-111022198D01*
X138073256Y-111273395D01*
X138073257Y-111273398D01*
X138208188Y-111507107D01*
X138372426Y-111713053D01*
X138376439Y-111718085D01*
X138574259Y-111901635D01*
X138797226Y-112053651D01*
X139040359Y-112170738D01*
X139298228Y-112250280D01*
X139565071Y-112290500D01*
X139565074Y-112290500D01*
X139834926Y-112290500D01*
X139834929Y-112290500D01*
X140101772Y-112250280D01*
X140359641Y-112170738D01*
X140602775Y-112053651D01*
X140607076Y-112050719D01*
X140825738Y-111901637D01*
X140825737Y-111901637D01*
X140825741Y-111901635D01*
X141023561Y-111718085D01*
X141191815Y-111507102D01*
X141326743Y-111273398D01*
X141425334Y-111022195D01*
X141485383Y-110759103D01*
X141486814Y-110740001D01*
X145989363Y-110740001D01*
X146046566Y-110953483D01*
X146046566Y-110953485D01*
X146146399Y-111167576D01*
X146281889Y-111361076D01*
X146448923Y-111528110D01*
X146642423Y-111663600D01*
X146856511Y-111763431D01*
X147070000Y-111820635D01*
X147070000Y-110925501D01*
X147177685Y-110974680D01*
X147284237Y-110990000D01*
X147355763Y-110990000D01*
X147462315Y-110974680D01*
X147570000Y-110925501D01*
X147570000Y-111820635D01*
X147783488Y-111763431D01*
X147997577Y-111663600D01*
X148081712Y-111604688D01*
X148170639Y-111565559D01*
X148267771Y-111563439D01*
X148358321Y-111598651D01*
X148423867Y-111659435D01*
X148457913Y-111704915D01*
X148645085Y-111892087D01*
X148856989Y-112050716D01*
X149089311Y-112177574D01*
X149337322Y-112270077D01*
X149595974Y-112326343D01*
X149860000Y-112345227D01*
X150124026Y-112326343D01*
X150382678Y-112270077D01*
X150630689Y-112177574D01*
X150701338Y-112138995D01*
X150794051Y-112109964D01*
X150890819Y-112118622D01*
X150976908Y-112163652D01*
X150977950Y-112164497D01*
X150996593Y-112179698D01*
X151176951Y-112273909D01*
X151372582Y-112329886D01*
X151491963Y-112340500D01*
X153308036Y-112340499D01*
X153308039Y-112340499D01*
X153359199Y-112335950D01*
X153427418Y-112329886D01*
X153623049Y-112273909D01*
X153803407Y-112179698D01*
X153961109Y-112051109D01*
X154089698Y-111893407D01*
X154183909Y-111713049D01*
X154239886Y-111517418D01*
X154250500Y-111398037D01*
X154250499Y-109581964D01*
X154239886Y-109462582D01*
X154183909Y-109266951D01*
X154089698Y-109086593D01*
X153961109Y-108928891D01*
X153803407Y-108800302D01*
X153803405Y-108800301D01*
X153803402Y-108800299D01*
X153623053Y-108706093D01*
X153623052Y-108706092D01*
X153623049Y-108706091D01*
X153427418Y-108650114D01*
X153403541Y-108647991D01*
X153308041Y-108639500D01*
X153308037Y-108639500D01*
X152270281Y-108639500D01*
X151491961Y-108639501D01*
X151372585Y-108650113D01*
X151176954Y-108706090D01*
X151176946Y-108706093D01*
X150996596Y-108800299D01*
X150996593Y-108800301D01*
X150978024Y-108815443D01*
X150892196Y-108860969D01*
X150795479Y-108870184D01*
X150702597Y-108841686D01*
X150701340Y-108841004D01*
X150630691Y-108802427D01*
X150630687Y-108802425D01*
X150559177Y-108775753D01*
X150382678Y-108709923D01*
X150180293Y-108665897D01*
X150124027Y-108653657D01*
X149860000Y-108634773D01*
X149595972Y-108653657D01*
X149483440Y-108678137D01*
X149337322Y-108709923D01*
X149284244Y-108729720D01*
X149089312Y-108802425D01*
X149089308Y-108802427D01*
X148856995Y-108929280D01*
X148856989Y-108929284D01*
X148645085Y-109087913D01*
X148645084Y-109087914D01*
X148457909Y-109275089D01*
X148423868Y-109320564D01*
X148351590Y-109385487D01*
X148259969Y-109417809D01*
X148162954Y-109412608D01*
X148081714Y-109375312D01*
X147997579Y-109316400D01*
X147783484Y-109216566D01*
X147570001Y-109159363D01*
X147570000Y-109159364D01*
X147570000Y-110054498D01*
X147462315Y-110005320D01*
X147355763Y-109990000D01*
X147284237Y-109990000D01*
X147177685Y-110005320D01*
X147070000Y-110054498D01*
X147070000Y-109159364D01*
X147069998Y-109159363D01*
X146856516Y-109216566D01*
X146856505Y-109216570D01*
X146642428Y-109316396D01*
X146642420Y-109316400D01*
X146448923Y-109451889D01*
X146281889Y-109618923D01*
X146146400Y-109812420D01*
X146146396Y-109812428D01*
X146046570Y-110026505D01*
X146046566Y-110026516D01*
X145989363Y-110239998D01*
X145989364Y-110240000D01*
X146886314Y-110240000D01*
X146860507Y-110280156D01*
X146820000Y-110418111D01*
X146820000Y-110561889D01*
X146860507Y-110699844D01*
X146886314Y-110740000D01*
X145989364Y-110740000D01*
X145989363Y-110740001D01*
X141486814Y-110740001D01*
X141505549Y-110490000D01*
X141485383Y-110220897D01*
X141436179Y-110005320D01*
X141425336Y-109957812D01*
X141425334Y-109957809D01*
X141425334Y-109957805D01*
X141326743Y-109706602D01*
X141191815Y-109472898D01*
X141191813Y-109472895D01*
X141191811Y-109472892D01*
X141023562Y-109261916D01*
X140825738Y-109078362D01*
X140602778Y-108926350D01*
X140602773Y-108926348D01*
X140359649Y-108809265D01*
X140359644Y-108809263D01*
X140359641Y-108809262D01*
X140101772Y-108729720D01*
X139834929Y-108689500D01*
X139565071Y-108689500D01*
X139364938Y-108719665D01*
X139298227Y-108729720D01*
X139124439Y-108783326D01*
X139069417Y-108800299D01*
X139040353Y-108809264D01*
X138797227Y-108926348D01*
X138574257Y-109078366D01*
X138376437Y-109261916D01*
X138208189Y-109472892D01*
X138208188Y-109472892D01*
X138073257Y-109706601D01*
X138073256Y-109706604D01*
X137974667Y-109957801D01*
X137974663Y-109957812D01*
X137914616Y-110220899D01*
X137894451Y-110490000D01*
X136425549Y-110490000D01*
X136405383Y-110220897D01*
X136356179Y-110005320D01*
X136345336Y-109957812D01*
X136345334Y-109957809D01*
X136345334Y-109957805D01*
X136246743Y-109706602D01*
X136111815Y-109472898D01*
X136111813Y-109472895D01*
X136111811Y-109472892D01*
X135943562Y-109261916D01*
X135745738Y-109078362D01*
X135522778Y-108926350D01*
X135522773Y-108926348D01*
X135279649Y-108809265D01*
X135279644Y-108809263D01*
X135279641Y-108809262D01*
X135021772Y-108729720D01*
X134754929Y-108689500D01*
X134485071Y-108689500D01*
X134284938Y-108719665D01*
X134218227Y-108729720D01*
X134044439Y-108783326D01*
X133989417Y-108800299D01*
X133960353Y-108809264D01*
X133717227Y-108926348D01*
X133494257Y-109078366D01*
X133296437Y-109261916D01*
X133128189Y-109472892D01*
X133128188Y-109472892D01*
X132993257Y-109706601D01*
X132993256Y-109706604D01*
X132894667Y-109957801D01*
X132894663Y-109957812D01*
X132834616Y-110220899D01*
X132814451Y-110490000D01*
X129090545Y-110490000D01*
X129089886Y-110482585D01*
X129089886Y-110482582D01*
X129033909Y-110286951D01*
X128939698Y-110106593D01*
X128811109Y-109948891D01*
X128653407Y-109820302D01*
X128653402Y-109820299D01*
X128473053Y-109726093D01*
X128473052Y-109726092D01*
X128473049Y-109726091D01*
X128277418Y-109670114D01*
X128253541Y-109667991D01*
X128158041Y-109659500D01*
X128158037Y-109659500D01*
X126834566Y-109659500D01*
X125841961Y-109659501D01*
X125722585Y-109670113D01*
X125526954Y-109726090D01*
X125526946Y-109726093D01*
X125346597Y-109820299D01*
X125346592Y-109820302D01*
X125188893Y-109948889D01*
X125188889Y-109948893D01*
X125060302Y-110106592D01*
X125060299Y-110106597D01*
X124966093Y-110286946D01*
X124966090Y-110286954D01*
X124910115Y-110482578D01*
X124910114Y-110482582D01*
X124899500Y-110601958D01*
X124020498Y-110601958D01*
X124009886Y-110482585D01*
X124009886Y-110482582D01*
X123953909Y-110286951D01*
X123859698Y-110106593D01*
X123731109Y-109948891D01*
X123573407Y-109820302D01*
X123573402Y-109820299D01*
X123393053Y-109726093D01*
X123393052Y-109726092D01*
X123393049Y-109726091D01*
X123197418Y-109670114D01*
X123173541Y-109667991D01*
X123078041Y-109659500D01*
X123078037Y-109659500D01*
X121754566Y-109659500D01*
X120761961Y-109659501D01*
X120642585Y-109670113D01*
X120446954Y-109726090D01*
X120446946Y-109726093D01*
X120266597Y-109820299D01*
X120266592Y-109820302D01*
X120108893Y-109948889D01*
X120108889Y-109948893D01*
X119980302Y-110106592D01*
X119980299Y-110106597D01*
X119886093Y-110286946D01*
X119886090Y-110286954D01*
X119830115Y-110482578D01*
X119830114Y-110482582D01*
X119819500Y-110601958D01*
X113513650Y-110601958D01*
X113393189Y-110431302D01*
X113197053Y-110221292D01*
X112974147Y-110039945D01*
X112974146Y-110039944D01*
X112728626Y-109890639D01*
X112465057Y-109776155D01*
X112188351Y-109698627D01*
X111903681Y-109659500D01*
X111903678Y-109659500D01*
X111616322Y-109659500D01*
X111616318Y-109659500D01*
X111331648Y-109698627D01*
X111054942Y-109776155D01*
X110791373Y-109890639D01*
X110545853Y-110039944D01*
X110322949Y-110221290D01*
X110126810Y-110431303D01*
X110126809Y-110431304D01*
X109961098Y-110666065D01*
X109828898Y-110921197D01*
X109828897Y-110921199D01*
X109732666Y-111191968D01*
X109674203Y-111473307D01*
X109674202Y-111473310D01*
X109654592Y-111760000D01*
X108535227Y-111760000D01*
X108516343Y-111495974D01*
X108460077Y-111237322D01*
X108367574Y-110989311D01*
X108328994Y-110918658D01*
X108299964Y-110825943D01*
X108308623Y-110729175D01*
X108353655Y-110643087D01*
X108354230Y-110642375D01*
X108369698Y-110623407D01*
X108463909Y-110443049D01*
X108519886Y-110247418D01*
X108530500Y-110128037D01*
X108530499Y-108311964D01*
X108530498Y-108311958D01*
X108519886Y-108192585D01*
X108519886Y-108192582D01*
X108463909Y-107996951D01*
X108369698Y-107816593D01*
X108241109Y-107658891D01*
X108083407Y-107530302D01*
X108083402Y-107530299D01*
X107903053Y-107436093D01*
X107903052Y-107436092D01*
X107903049Y-107436091D01*
X107707418Y-107380114D01*
X107683541Y-107377991D01*
X107588041Y-107369500D01*
X107588037Y-107369500D01*
X106550281Y-107369500D01*
X105771961Y-107369501D01*
X105652585Y-107380113D01*
X105456954Y-107436090D01*
X105456946Y-107436093D01*
X105276597Y-107530299D01*
X105276592Y-107530302D01*
X105118893Y-107658889D01*
X105118889Y-107658893D01*
X104990302Y-107816592D01*
X104990299Y-107816597D01*
X104896093Y-107996946D01*
X104896090Y-107996954D01*
X104840115Y-108192578D01*
X104840114Y-108192582D01*
X104829500Y-108311958D01*
X104829501Y-110128039D01*
X104840113Y-110247414D01*
X104840113Y-110247417D01*
X104840114Y-110247418D01*
X104851425Y-110286946D01*
X104896090Y-110443045D01*
X104896093Y-110443053D01*
X104990299Y-110623402D01*
X104990306Y-110623413D01*
X105005440Y-110641973D01*
X105050968Y-110727800D01*
X105060185Y-110824517D01*
X105031688Y-110917399D01*
X105031004Y-110918660D01*
X104992427Y-110989308D01*
X104992425Y-110989312D01*
X104926595Y-111165810D01*
X104899923Y-111237322D01*
X104873002Y-111361076D01*
X104843657Y-111495972D01*
X104824773Y-111760000D01*
X97155000Y-111760000D01*
X97155000Y-106741626D01*
X115085778Y-106741626D01*
X115115466Y-106986132D01*
X115115466Y-106986133D01*
X115125433Y-107020543D01*
X115133737Y-107117342D01*
X115125657Y-107158311D01*
X115100115Y-107247578D01*
X115100114Y-107247582D01*
X115089500Y-107366958D01*
X115089501Y-108533040D01*
X115089501Y-108533039D01*
X115100113Y-108652414D01*
X115100113Y-108652417D01*
X115100114Y-108652418D01*
X115115472Y-108706090D01*
X115156090Y-108848045D01*
X115156093Y-108848053D01*
X115198524Y-108929284D01*
X115250302Y-109028407D01*
X115378891Y-109186109D01*
X115536593Y-109314698D01*
X115716951Y-109408909D01*
X115912582Y-109464886D01*
X116031963Y-109475500D01*
X117648036Y-109475499D01*
X117648039Y-109475499D01*
X117699199Y-109470950D01*
X117767418Y-109464886D01*
X117963049Y-109408909D01*
X118143407Y-109314698D01*
X118301109Y-109186109D01*
X118429698Y-109028407D01*
X118523909Y-108848049D01*
X118579886Y-108652418D01*
X118590500Y-108533037D01*
X118590499Y-107366964D01*
X118590498Y-107366958D01*
X118579886Y-107247587D01*
X118579886Y-107247582D01*
X118553583Y-107155660D01*
X118545593Y-107058839D01*
X118549005Y-107037375D01*
X118584304Y-106864477D01*
X118594222Y-106618374D01*
X118564533Y-106373868D01*
X118496008Y-106137290D01*
X118390420Y-105914769D01*
X118250504Y-105712066D01*
X118088506Y-105543407D01*
X118079882Y-105534428D01*
X118072377Y-105527780D01*
X118074277Y-105525634D01*
X118022011Y-105467241D01*
X117989850Y-105375564D01*
X117995222Y-105278557D01*
X118036380Y-105192232D01*
X118060285Y-105159999D01*
X118016559Y-105015851D01*
X118016558Y-105015849D01*
X117921378Y-104837782D01*
X117793298Y-104681715D01*
X117793284Y-104681701D01*
X117637217Y-104553621D01*
X117459150Y-104458441D01*
X117459147Y-104458440D01*
X117265935Y-104399829D01*
X117115361Y-104385000D01*
X117090001Y-104385000D01*
X117090000Y-104385001D01*
X117090000Y-104905500D01*
X117071046Y-105000788D01*
X117021004Y-105075681D01*
X117020948Y-105075637D01*
X116902576Y-105035000D01*
X116808927Y-105035000D01*
X116716554Y-105050414D01*
X116661882Y-105080001D01*
X116608954Y-105000788D01*
X116590000Y-104905500D01*
X116590000Y-104385001D01*
X116589999Y-104385000D01*
X116564638Y-104385000D01*
X116414064Y-104399829D01*
X116220852Y-104458440D01*
X116220849Y-104458441D01*
X116042782Y-104553621D01*
X115886715Y-104681701D01*
X115886701Y-104681715D01*
X115758621Y-104837782D01*
X115663441Y-105015849D01*
X115663440Y-105015851D01*
X115619713Y-105160000D01*
X115646520Y-105196145D01*
X115688059Y-105283972D01*
X115692826Y-105381010D01*
X115660095Y-105472486D01*
X115611639Y-105530852D01*
X115511225Y-105619811D01*
X115355458Y-105810592D01*
X115355451Y-105810602D01*
X115232304Y-106023898D01*
X115144962Y-106254199D01*
X115144962Y-106254200D01*
X115095695Y-106495523D01*
X115085778Y-106741626D01*
X97155000Y-106741626D01*
X97155000Y-104140000D01*
X132814451Y-104140000D01*
X132834616Y-104409100D01*
X132894663Y-104672187D01*
X132894666Y-104672195D01*
X132986232Y-104905500D01*
X132993256Y-104923395D01*
X132993257Y-104923398D01*
X133128188Y-105157107D01*
X133292426Y-105363053D01*
X133296439Y-105368085D01*
X133494259Y-105551635D01*
X133717226Y-105703651D01*
X133960359Y-105820738D01*
X134218228Y-105900280D01*
X134485071Y-105940500D01*
X134485074Y-105940500D01*
X134754926Y-105940500D01*
X134754929Y-105940500D01*
X135021772Y-105900280D01*
X135279641Y-105820738D01*
X135522775Y-105703651D01*
X135527076Y-105700719D01*
X135745738Y-105551637D01*
X135745737Y-105551637D01*
X135745741Y-105551635D01*
X135943561Y-105368085D01*
X136111815Y-105157102D01*
X136246743Y-104923398D01*
X136345334Y-104672195D01*
X136405383Y-104409103D01*
X136425549Y-104140000D01*
X137894451Y-104140000D01*
X137914616Y-104409100D01*
X137974663Y-104672187D01*
X137974666Y-104672195D01*
X138066232Y-104905500D01*
X138073256Y-104923395D01*
X138073257Y-104923398D01*
X138208188Y-105157107D01*
X138372426Y-105363053D01*
X138376439Y-105368085D01*
X138574259Y-105551635D01*
X138797226Y-105703651D01*
X139040359Y-105820738D01*
X139298228Y-105900280D01*
X139565071Y-105940500D01*
X139565074Y-105940500D01*
X139834926Y-105940500D01*
X139834929Y-105940500D01*
X140101772Y-105900280D01*
X140359641Y-105820738D01*
X140602775Y-105703651D01*
X140607076Y-105700719D01*
X140825738Y-105551637D01*
X140825737Y-105551637D01*
X140825741Y-105551635D01*
X141023561Y-105368085D01*
X141191815Y-105157102D01*
X141326743Y-104923398D01*
X141425334Y-104672195D01*
X141485383Y-104409103D01*
X141486814Y-104390001D01*
X145989363Y-104390001D01*
X146046566Y-104603483D01*
X146046566Y-104603485D01*
X146146399Y-104817576D01*
X146281889Y-105011076D01*
X146448923Y-105178110D01*
X146642423Y-105313600D01*
X146856511Y-105413431D01*
X147070000Y-105470635D01*
X147070000Y-104575501D01*
X147177685Y-104624680D01*
X147284237Y-104640000D01*
X147355763Y-104640000D01*
X147462315Y-104624680D01*
X147570000Y-104575501D01*
X147570000Y-105470635D01*
X147783488Y-105413431D01*
X147997577Y-105313600D01*
X148081712Y-105254688D01*
X148170639Y-105215559D01*
X148267771Y-105213439D01*
X148358321Y-105248651D01*
X148423867Y-105309435D01*
X148457913Y-105354915D01*
X148645085Y-105542087D01*
X148856989Y-105700716D01*
X149089311Y-105827574D01*
X149337322Y-105920077D01*
X149595974Y-105976343D01*
X149860000Y-105995227D01*
X150124026Y-105976343D01*
X150382678Y-105920077D01*
X150630689Y-105827574D01*
X150701338Y-105788995D01*
X150794051Y-105759964D01*
X150890819Y-105768622D01*
X150976908Y-105813652D01*
X150977950Y-105814497D01*
X150996593Y-105829698D01*
X151176951Y-105923909D01*
X151372582Y-105979886D01*
X151491963Y-105990500D01*
X153308036Y-105990499D01*
X153308039Y-105990499D01*
X153359199Y-105985950D01*
X153427418Y-105979886D01*
X153623049Y-105923909D01*
X153803407Y-105829698D01*
X153961109Y-105701109D01*
X154089698Y-105543407D01*
X154183909Y-105363049D01*
X154239886Y-105167418D01*
X154250500Y-105048037D01*
X154250499Y-103231964D01*
X154239886Y-103112582D01*
X154183909Y-102916951D01*
X154089698Y-102736593D01*
X153961109Y-102578891D01*
X153803407Y-102450302D01*
X153803405Y-102450301D01*
X153803402Y-102450299D01*
X153623053Y-102356093D01*
X153623052Y-102356092D01*
X153623049Y-102356091D01*
X153427418Y-102300114D01*
X153403541Y-102297991D01*
X153308041Y-102289500D01*
X153308037Y-102289500D01*
X152270281Y-102289500D01*
X151491961Y-102289501D01*
X151372585Y-102300113D01*
X151176954Y-102356090D01*
X151176946Y-102356093D01*
X150996596Y-102450299D01*
X150996593Y-102450301D01*
X150978024Y-102465443D01*
X150892196Y-102510969D01*
X150795479Y-102520184D01*
X150702597Y-102491686D01*
X150701340Y-102491004D01*
X150630691Y-102452427D01*
X150630687Y-102452425D01*
X150559177Y-102425753D01*
X150382678Y-102359923D01*
X150180293Y-102315897D01*
X150124027Y-102303657D01*
X149860000Y-102284773D01*
X149595972Y-102303657D01*
X149483440Y-102328137D01*
X149337322Y-102359923D01*
X149284244Y-102379720D01*
X149089312Y-102452425D01*
X149089308Y-102452427D01*
X148856995Y-102579280D01*
X148856989Y-102579284D01*
X148645085Y-102737913D01*
X148645084Y-102737914D01*
X148457909Y-102925089D01*
X148423868Y-102970564D01*
X148351590Y-103035487D01*
X148259969Y-103067809D01*
X148162954Y-103062608D01*
X148081714Y-103025312D01*
X147997579Y-102966400D01*
X147783484Y-102866566D01*
X147570001Y-102809363D01*
X147570000Y-102809364D01*
X147570000Y-103704498D01*
X147462315Y-103655320D01*
X147355763Y-103640000D01*
X147284237Y-103640000D01*
X147177685Y-103655320D01*
X147070000Y-103704498D01*
X147070000Y-102809364D01*
X147069998Y-102809363D01*
X146856516Y-102866566D01*
X146856505Y-102866570D01*
X146642428Y-102966396D01*
X146642420Y-102966400D01*
X146448923Y-103101889D01*
X146281889Y-103268923D01*
X146146400Y-103462420D01*
X146146396Y-103462428D01*
X146046570Y-103676505D01*
X146046566Y-103676516D01*
X145989363Y-103889998D01*
X145989364Y-103890000D01*
X146886314Y-103890000D01*
X146860507Y-103930156D01*
X146820000Y-104068111D01*
X146820000Y-104211889D01*
X146860507Y-104349844D01*
X146886314Y-104390000D01*
X145989364Y-104390000D01*
X145989363Y-104390001D01*
X141486814Y-104390001D01*
X141505549Y-104140000D01*
X141485383Y-103870897D01*
X141441014Y-103676505D01*
X141425336Y-103607812D01*
X141425334Y-103607809D01*
X141425334Y-103607805D01*
X141326743Y-103356602D01*
X141191815Y-103122898D01*
X141191813Y-103122895D01*
X141191811Y-103122892D01*
X141023562Y-102911916D01*
X140825738Y-102728362D01*
X140602778Y-102576350D01*
X140602773Y-102576348D01*
X140359649Y-102459265D01*
X140359644Y-102459263D01*
X140359641Y-102459262D01*
X140101772Y-102379720D01*
X139834929Y-102339500D01*
X139565071Y-102339500D01*
X139364938Y-102369665D01*
X139298227Y-102379720D01*
X139124439Y-102433326D01*
X139069417Y-102450299D01*
X139040353Y-102459264D01*
X138797227Y-102576348D01*
X138574257Y-102728366D01*
X138376437Y-102911916D01*
X138208189Y-103122892D01*
X138208188Y-103122892D01*
X138073257Y-103356601D01*
X138073256Y-103356604D01*
X137974667Y-103607801D01*
X137974663Y-103607812D01*
X137914616Y-103870899D01*
X137894451Y-104140000D01*
X136425549Y-104140000D01*
X136405383Y-103870897D01*
X136361014Y-103676505D01*
X136345336Y-103607812D01*
X136345334Y-103607809D01*
X136345334Y-103607805D01*
X136246743Y-103356602D01*
X136111815Y-103122898D01*
X136111813Y-103122895D01*
X136111811Y-103122892D01*
X135943562Y-102911916D01*
X135745738Y-102728362D01*
X135522778Y-102576350D01*
X135522773Y-102576348D01*
X135279649Y-102459265D01*
X135279644Y-102459263D01*
X135279641Y-102459262D01*
X135021772Y-102379720D01*
X134754929Y-102339500D01*
X134485071Y-102339500D01*
X134284938Y-102369665D01*
X134218227Y-102379720D01*
X134044439Y-102433326D01*
X133989417Y-102450299D01*
X133960353Y-102459264D01*
X133717227Y-102576348D01*
X133494257Y-102728366D01*
X133296437Y-102911916D01*
X133128189Y-103122892D01*
X133128188Y-103122892D01*
X132993257Y-103356601D01*
X132993256Y-103356604D01*
X132894667Y-103607801D01*
X132894663Y-103607812D01*
X132834616Y-103870899D01*
X132814451Y-104140000D01*
X97155000Y-104140000D01*
X97155000Y-101600000D01*
X124894592Y-101600000D01*
X124914202Y-101886689D01*
X124914203Y-101886692D01*
X124972666Y-102168032D01*
X125020867Y-102303657D01*
X125068897Y-102438800D01*
X125068898Y-102438802D01*
X125141486Y-102578889D01*
X125201099Y-102693936D01*
X125366811Y-102928698D01*
X125562947Y-103138708D01*
X125785853Y-103320055D01*
X126031375Y-103469361D01*
X126294942Y-103583844D01*
X126571642Y-103661371D01*
X126571646Y-103661371D01*
X126571648Y-103661372D01*
X126651429Y-103672337D01*
X126856322Y-103700500D01*
X126856330Y-103700500D01*
X127143670Y-103700500D01*
X127143678Y-103700500D01*
X127428358Y-103661371D01*
X127705058Y-103583844D01*
X127968625Y-103469361D01*
X128214147Y-103320055D01*
X128437053Y-103138708D01*
X128633189Y-102928698D01*
X128798901Y-102693936D01*
X128931104Y-102438797D01*
X129027334Y-102168032D01*
X129085798Y-101886686D01*
X129105408Y-101600000D01*
X129085798Y-101313314D01*
X129027334Y-101031968D01*
X128931104Y-100761203D01*
X128798901Y-100506064D01*
X128633189Y-100271302D01*
X128437053Y-100061292D01*
X128214147Y-99879945D01*
X128214146Y-99879944D01*
X127968626Y-99730639D01*
X127705057Y-99616155D01*
X127428351Y-99538627D01*
X127143681Y-99499500D01*
X127143678Y-99499500D01*
X126856322Y-99499500D01*
X126856318Y-99499500D01*
X126571648Y-99538627D01*
X126294942Y-99616155D01*
X126031373Y-99730639D01*
X125785853Y-99879944D01*
X125562949Y-100061290D01*
X125562947Y-100061292D01*
X125498065Y-100130764D01*
X125366810Y-100271303D01*
X125366809Y-100271304D01*
X125201098Y-100506065D01*
X125068898Y-100761197D01*
X125068897Y-100761199D01*
X124972666Y-101031968D01*
X124914203Y-101313307D01*
X124914202Y-101313310D01*
X124894592Y-101600000D01*
X97155000Y-101600000D01*
X97155000Y-99060000D01*
X112169454Y-99060000D01*
X112189613Y-99341861D01*
X112249680Y-99617984D01*
X112348432Y-99882749D01*
X112445923Y-100061290D01*
X112483860Y-100130766D01*
X112653198Y-100356976D01*
X112653200Y-100356978D01*
X112653203Y-100356982D01*
X112853018Y-100556797D01*
X112853021Y-100556799D01*
X112853023Y-100556801D01*
X112895244Y-100588407D01*
X113079236Y-100726141D01*
X113327251Y-100861568D01*
X113592016Y-100960320D01*
X113868139Y-101020387D01*
X114150000Y-101040546D01*
X114431861Y-101020387D01*
X114707984Y-100960320D01*
X114972749Y-100861568D01*
X115220764Y-100726141D01*
X115446982Y-100556797D01*
X115646797Y-100356982D01*
X115816141Y-100130764D01*
X115951568Y-99882749D01*
X116050320Y-99617984D01*
X116110387Y-99341861D01*
X116130546Y-99060000D01*
X116110387Y-98778139D01*
X116050320Y-98502016D01*
X115951568Y-98237251D01*
X115836739Y-98026958D01*
X119774500Y-98026958D01*
X119774501Y-100093039D01*
X119785113Y-100212414D01*
X119785113Y-100212417D01*
X119785114Y-100212418D01*
X119801964Y-100271304D01*
X119841090Y-100408045D01*
X119841093Y-100408053D01*
X119892289Y-100506064D01*
X119935302Y-100588407D01*
X120063891Y-100746109D01*
X120221593Y-100874698D01*
X120401951Y-100968909D01*
X120597582Y-101024886D01*
X120716963Y-101035500D01*
X122783036Y-101035499D01*
X122783039Y-101035499D01*
X122834199Y-101030950D01*
X122902418Y-101024886D01*
X123098049Y-100968909D01*
X123278407Y-100874698D01*
X123436109Y-100746109D01*
X123564698Y-100588407D01*
X123658909Y-100408049D01*
X123714886Y-100212418D01*
X123725500Y-100093037D01*
X123725499Y-98026964D01*
X123725498Y-98026958D01*
X123714886Y-97907585D01*
X123714886Y-97907582D01*
X123681242Y-97790000D01*
X132814451Y-97790000D01*
X132834616Y-98059100D01*
X132894663Y-98322187D01*
X132894667Y-98322198D01*
X132993256Y-98573395D01*
X132993257Y-98573398D01*
X133128188Y-98807107D01*
X133292426Y-99013053D01*
X133296439Y-99018085D01*
X133494259Y-99201635D01*
X133717226Y-99353651D01*
X133960359Y-99470738D01*
X134218228Y-99550280D01*
X134485071Y-99590500D01*
X134485074Y-99590500D01*
X134754926Y-99590500D01*
X134754929Y-99590500D01*
X135021772Y-99550280D01*
X135279641Y-99470738D01*
X135522775Y-99353651D01*
X135527076Y-99350719D01*
X135745738Y-99201637D01*
X135745737Y-99201637D01*
X135745741Y-99201635D01*
X135943561Y-99018085D01*
X136111815Y-98807102D01*
X136246743Y-98573398D01*
X136345334Y-98322195D01*
X136405383Y-98059103D01*
X136425549Y-97790000D01*
X137894451Y-97790000D01*
X137914616Y-98059100D01*
X137974663Y-98322187D01*
X137974667Y-98322198D01*
X138073256Y-98573395D01*
X138073257Y-98573398D01*
X138208188Y-98807107D01*
X138372426Y-99013053D01*
X138376439Y-99018085D01*
X138574259Y-99201635D01*
X138797226Y-99353651D01*
X139040359Y-99470738D01*
X139298228Y-99550280D01*
X139565071Y-99590500D01*
X139565074Y-99590500D01*
X139834926Y-99590500D01*
X139834929Y-99590500D01*
X140101772Y-99550280D01*
X140359641Y-99470738D01*
X140602775Y-99353651D01*
X140607076Y-99350719D01*
X140825738Y-99201637D01*
X140825737Y-99201637D01*
X140825741Y-99201635D01*
X141023561Y-99018085D01*
X141191815Y-98807102D01*
X141326743Y-98573398D01*
X141425334Y-98322195D01*
X141485383Y-98059103D01*
X141486814Y-98040001D01*
X145989363Y-98040001D01*
X146046566Y-98253483D01*
X146046566Y-98253485D01*
X146146399Y-98467576D01*
X146281889Y-98661076D01*
X146448923Y-98828110D01*
X146642423Y-98963600D01*
X146856511Y-99063431D01*
X147070000Y-99120635D01*
X147070000Y-98225501D01*
X147177685Y-98274680D01*
X147284237Y-98290000D01*
X147355763Y-98290000D01*
X147462315Y-98274680D01*
X147570000Y-98225501D01*
X147570000Y-99120635D01*
X147783488Y-99063431D01*
X147997577Y-98963600D01*
X148081712Y-98904688D01*
X148170639Y-98865559D01*
X148267771Y-98863439D01*
X148358321Y-98898651D01*
X148423867Y-98959435D01*
X148457913Y-99004915D01*
X148645085Y-99192087D01*
X148856989Y-99350716D01*
X149089311Y-99477574D01*
X149337322Y-99570077D01*
X149595974Y-99626343D01*
X149860000Y-99645227D01*
X150124026Y-99626343D01*
X150382678Y-99570077D01*
X150630689Y-99477574D01*
X150701338Y-99438995D01*
X150794051Y-99409964D01*
X150890819Y-99418622D01*
X150976908Y-99463652D01*
X150977950Y-99464497D01*
X150996593Y-99479698D01*
X151176951Y-99573909D01*
X151372582Y-99629886D01*
X151491963Y-99640500D01*
X153308036Y-99640499D01*
X153308039Y-99640499D01*
X153359199Y-99635950D01*
X153427418Y-99629886D01*
X153623049Y-99573909D01*
X153803407Y-99479698D01*
X153961109Y-99351109D01*
X154089698Y-99193407D01*
X154183909Y-99013049D01*
X154239886Y-98817418D01*
X154250500Y-98698037D01*
X154250499Y-96881964D01*
X154239886Y-96762582D01*
X154183909Y-96566951D01*
X154089698Y-96386593D01*
X153961109Y-96228891D01*
X153803407Y-96100302D01*
X153803405Y-96100301D01*
X153803402Y-96100299D01*
X153623053Y-96006093D01*
X153623052Y-96006092D01*
X153623049Y-96006091D01*
X153427418Y-95950114D01*
X153403541Y-95947991D01*
X153308041Y-95939500D01*
X153308037Y-95939500D01*
X152270281Y-95939500D01*
X151491961Y-95939501D01*
X151372585Y-95950113D01*
X151176954Y-96006090D01*
X151176946Y-96006093D01*
X150996596Y-96100299D01*
X150996593Y-96100301D01*
X150978024Y-96115443D01*
X150892196Y-96160969D01*
X150795479Y-96170184D01*
X150702597Y-96141686D01*
X150701340Y-96141004D01*
X150630691Y-96102427D01*
X150630687Y-96102425D01*
X150559177Y-96075753D01*
X150382678Y-96009923D01*
X150180293Y-95965897D01*
X150124027Y-95953657D01*
X149860000Y-95934773D01*
X149595972Y-95953657D01*
X149483440Y-95978137D01*
X149337322Y-96009923D01*
X149284244Y-96029720D01*
X149089312Y-96102425D01*
X149089308Y-96102427D01*
X148856995Y-96229280D01*
X148856989Y-96229284D01*
X148645085Y-96387913D01*
X148645084Y-96387914D01*
X148457909Y-96575089D01*
X148423868Y-96620564D01*
X148351590Y-96685487D01*
X148259969Y-96717809D01*
X148162954Y-96712608D01*
X148081714Y-96675312D01*
X147997579Y-96616400D01*
X147783484Y-96516566D01*
X147570001Y-96459363D01*
X147570000Y-96459364D01*
X147570000Y-97354498D01*
X147462315Y-97305320D01*
X147355763Y-97290000D01*
X147284237Y-97290000D01*
X147177685Y-97305320D01*
X147070000Y-97354498D01*
X147070000Y-96459364D01*
X147069998Y-96459363D01*
X146856516Y-96516566D01*
X146856505Y-96516570D01*
X146642428Y-96616396D01*
X146642420Y-96616400D01*
X146448923Y-96751889D01*
X146281889Y-96918923D01*
X146146400Y-97112420D01*
X146146396Y-97112428D01*
X146046570Y-97326505D01*
X146046566Y-97326516D01*
X145989363Y-97539998D01*
X145989364Y-97540000D01*
X146886314Y-97540000D01*
X146860507Y-97580156D01*
X146820000Y-97718111D01*
X146820000Y-97861889D01*
X146860507Y-97999844D01*
X146886314Y-98040000D01*
X145989364Y-98040000D01*
X145989363Y-98040001D01*
X141486814Y-98040001D01*
X141505549Y-97790000D01*
X141485383Y-97520897D01*
X141436179Y-97305320D01*
X141425336Y-97257812D01*
X141425334Y-97257809D01*
X141425334Y-97257805D01*
X141326743Y-97006602D01*
X141191815Y-96772898D01*
X141191813Y-96772895D01*
X141191811Y-96772892D01*
X141023562Y-96561916D01*
X140825738Y-96378362D01*
X140602778Y-96226350D01*
X140602773Y-96226348D01*
X140359649Y-96109265D01*
X140359644Y-96109263D01*
X140359641Y-96109262D01*
X140101772Y-96029720D01*
X139834929Y-95989500D01*
X139565071Y-95989500D01*
X139364938Y-96019665D01*
X139298227Y-96029720D01*
X139124439Y-96083326D01*
X139069417Y-96100299D01*
X139040353Y-96109264D01*
X138797227Y-96226348D01*
X138574257Y-96378366D01*
X138376437Y-96561916D01*
X138208189Y-96772892D01*
X138208188Y-96772892D01*
X138073257Y-97006601D01*
X138073256Y-97006604D01*
X137974667Y-97257801D01*
X137974663Y-97257812D01*
X137914616Y-97520899D01*
X137894451Y-97790000D01*
X136425549Y-97790000D01*
X136405383Y-97520897D01*
X136356179Y-97305320D01*
X136345336Y-97257812D01*
X136345334Y-97257809D01*
X136345334Y-97257805D01*
X136246743Y-97006602D01*
X136111815Y-96772898D01*
X136111813Y-96772895D01*
X136111811Y-96772892D01*
X135943562Y-96561916D01*
X135745738Y-96378362D01*
X135522778Y-96226350D01*
X135522773Y-96226348D01*
X135279649Y-96109265D01*
X135279644Y-96109263D01*
X135279641Y-96109262D01*
X135021772Y-96029720D01*
X134754929Y-95989500D01*
X134485071Y-95989500D01*
X134284938Y-96019665D01*
X134218227Y-96029720D01*
X134044439Y-96083326D01*
X133989417Y-96100299D01*
X133960353Y-96109264D01*
X133717227Y-96226348D01*
X133494257Y-96378366D01*
X133296437Y-96561916D01*
X133128189Y-96772892D01*
X133128188Y-96772892D01*
X132993257Y-97006601D01*
X132993256Y-97006604D01*
X132894667Y-97257801D01*
X132894663Y-97257812D01*
X132834616Y-97520899D01*
X132814451Y-97790000D01*
X123681242Y-97790000D01*
X123658909Y-97711951D01*
X123564698Y-97531593D01*
X123436109Y-97373891D01*
X123278407Y-97245302D01*
X123278402Y-97245299D01*
X123098053Y-97151093D01*
X123098052Y-97151092D01*
X123098049Y-97151091D01*
X122902418Y-97095114D01*
X122878541Y-97092991D01*
X122783041Y-97084500D01*
X122783037Y-97084500D01*
X121602423Y-97084500D01*
X120716961Y-97084501D01*
X120597585Y-97095113D01*
X120401954Y-97151090D01*
X120401946Y-97151093D01*
X120221597Y-97245299D01*
X120221592Y-97245302D01*
X120063893Y-97373889D01*
X120063889Y-97373893D01*
X119935302Y-97531592D01*
X119935299Y-97531597D01*
X119841093Y-97711946D01*
X119841090Y-97711954D01*
X119785115Y-97907578D01*
X119785114Y-97907582D01*
X119774500Y-98026958D01*
X115836739Y-98026958D01*
X115816141Y-97989236D01*
X115720811Y-97861889D01*
X115646801Y-97763023D01*
X115646799Y-97763021D01*
X115646797Y-97763018D01*
X115446982Y-97563203D01*
X115446978Y-97563200D01*
X115446976Y-97563198D01*
X115220766Y-97393860D01*
X115097435Y-97326516D01*
X114972749Y-97258432D01*
X114707984Y-97159680D01*
X114431861Y-97099613D01*
X114150000Y-97079454D01*
X113868138Y-97099613D01*
X113592016Y-97159680D01*
X113327253Y-97258431D01*
X113079233Y-97393860D01*
X112853023Y-97563198D01*
X112853021Y-97563200D01*
X112853018Y-97563203D01*
X112653203Y-97763018D01*
X112653200Y-97763021D01*
X112653200Y-97763022D01*
X112653198Y-97763023D01*
X112483860Y-97989233D01*
X112348431Y-98237253D01*
X112249680Y-98502016D01*
X112189613Y-98778138D01*
X112186039Y-98828110D01*
X112169454Y-99060000D01*
X97155000Y-99060000D01*
X97155000Y-91440000D01*
X132814451Y-91440000D01*
X132834616Y-91709100D01*
X132894663Y-91972187D01*
X132894667Y-91972198D01*
X132993256Y-92223395D01*
X132993257Y-92223398D01*
X133128188Y-92457107D01*
X133292426Y-92663053D01*
X133296439Y-92668085D01*
X133494259Y-92851635D01*
X133717226Y-93003651D01*
X133960359Y-93120738D01*
X134218228Y-93200280D01*
X134485071Y-93240500D01*
X134485074Y-93240500D01*
X134754926Y-93240500D01*
X134754929Y-93240500D01*
X135021772Y-93200280D01*
X135279641Y-93120738D01*
X135522775Y-93003651D01*
X135527076Y-93000719D01*
X135745738Y-92851637D01*
X135745737Y-92851637D01*
X135745741Y-92851635D01*
X135943561Y-92668085D01*
X136111815Y-92457102D01*
X136246743Y-92223398D01*
X136345334Y-91972195D01*
X136405383Y-91709103D01*
X136425549Y-91440000D01*
X137894451Y-91440000D01*
X137914616Y-91709100D01*
X137974663Y-91972187D01*
X137974667Y-91972198D01*
X138073256Y-92223395D01*
X138073257Y-92223398D01*
X138208188Y-92457107D01*
X138372426Y-92663053D01*
X138376439Y-92668085D01*
X138574259Y-92851635D01*
X138797226Y-93003651D01*
X139040359Y-93120738D01*
X139298228Y-93200280D01*
X139565071Y-93240500D01*
X139565074Y-93240500D01*
X139834926Y-93240500D01*
X139834929Y-93240500D01*
X140101772Y-93200280D01*
X140359641Y-93120738D01*
X140602775Y-93003651D01*
X140607076Y-93000719D01*
X140825738Y-92851637D01*
X140825737Y-92851637D01*
X140825741Y-92851635D01*
X141023561Y-92668085D01*
X141191815Y-92457102D01*
X141326743Y-92223398D01*
X141425334Y-91972195D01*
X141485383Y-91709103D01*
X141486814Y-91690001D01*
X145989363Y-91690001D01*
X146046566Y-91903483D01*
X146046566Y-91903485D01*
X146146399Y-92117576D01*
X146281889Y-92311076D01*
X146448923Y-92478110D01*
X146642423Y-92613600D01*
X146856511Y-92713431D01*
X147070000Y-92770635D01*
X147070000Y-91875501D01*
X147177685Y-91924680D01*
X147284237Y-91940000D01*
X147355763Y-91940000D01*
X147462315Y-91924680D01*
X147570000Y-91875501D01*
X147570000Y-92770635D01*
X147783488Y-92713431D01*
X147997577Y-92613600D01*
X148081712Y-92554688D01*
X148170639Y-92515559D01*
X148267771Y-92513439D01*
X148358321Y-92548651D01*
X148423867Y-92609435D01*
X148457913Y-92654915D01*
X148645085Y-92842087D01*
X148856989Y-93000716D01*
X149089311Y-93127574D01*
X149337322Y-93220077D01*
X149595974Y-93276343D01*
X149860000Y-93295227D01*
X150124026Y-93276343D01*
X150382678Y-93220077D01*
X150630689Y-93127574D01*
X150701338Y-93088995D01*
X150794051Y-93059964D01*
X150890819Y-93068622D01*
X150976908Y-93113652D01*
X150977950Y-93114497D01*
X150996593Y-93129698D01*
X151176951Y-93223909D01*
X151372582Y-93279886D01*
X151491963Y-93290500D01*
X153308036Y-93290499D01*
X153308039Y-93290499D01*
X153359199Y-93285950D01*
X153427418Y-93279886D01*
X153623049Y-93223909D01*
X153803407Y-93129698D01*
X153961109Y-93001109D01*
X154089698Y-92843407D01*
X154183909Y-92663049D01*
X154239886Y-92467418D01*
X154250500Y-92348037D01*
X154250499Y-90531964D01*
X154239886Y-90412582D01*
X154183909Y-90216951D01*
X154089698Y-90036593D01*
X153961109Y-89878891D01*
X153803407Y-89750302D01*
X153803405Y-89750301D01*
X153803402Y-89750299D01*
X153623053Y-89656093D01*
X153623052Y-89656092D01*
X153623049Y-89656091D01*
X153427418Y-89600114D01*
X153403541Y-89597991D01*
X153308041Y-89589500D01*
X153308037Y-89589500D01*
X152270281Y-89589500D01*
X151491961Y-89589501D01*
X151372585Y-89600113D01*
X151176954Y-89656090D01*
X151176946Y-89656093D01*
X150996596Y-89750299D01*
X150996593Y-89750301D01*
X150978024Y-89765443D01*
X150892196Y-89810969D01*
X150795479Y-89820184D01*
X150702597Y-89791686D01*
X150701340Y-89791004D01*
X150630691Y-89752427D01*
X150630687Y-89752425D01*
X150559177Y-89725753D01*
X150382678Y-89659923D01*
X150180293Y-89615897D01*
X150124027Y-89603657D01*
X149860000Y-89584773D01*
X149595972Y-89603657D01*
X149483440Y-89628137D01*
X149337322Y-89659923D01*
X149284244Y-89679720D01*
X149089312Y-89752425D01*
X149089308Y-89752427D01*
X148856995Y-89879280D01*
X148856989Y-89879284D01*
X148645085Y-90037913D01*
X148645084Y-90037914D01*
X148457909Y-90225089D01*
X148423868Y-90270564D01*
X148351590Y-90335487D01*
X148259969Y-90367809D01*
X148162954Y-90362608D01*
X148081714Y-90325312D01*
X147997579Y-90266400D01*
X147783484Y-90166566D01*
X147570001Y-90109363D01*
X147570000Y-90109364D01*
X147570000Y-91004498D01*
X147462315Y-90955320D01*
X147355763Y-90940000D01*
X147284237Y-90940000D01*
X147177685Y-90955320D01*
X147070000Y-91004498D01*
X147070000Y-90109364D01*
X147069998Y-90109363D01*
X146856516Y-90166566D01*
X146856505Y-90166570D01*
X146642428Y-90266396D01*
X146642420Y-90266400D01*
X146448923Y-90401889D01*
X146281889Y-90568923D01*
X146146400Y-90762420D01*
X146146396Y-90762428D01*
X146046570Y-90976505D01*
X146046566Y-90976516D01*
X145989363Y-91189998D01*
X145989364Y-91190000D01*
X146886314Y-91190000D01*
X146860507Y-91230156D01*
X146820000Y-91368111D01*
X146820000Y-91511889D01*
X146860507Y-91649844D01*
X146886314Y-91690000D01*
X145989364Y-91690000D01*
X145989363Y-91690001D01*
X141486814Y-91690001D01*
X141505549Y-91440000D01*
X141485383Y-91170897D01*
X141436179Y-90955320D01*
X141425336Y-90907812D01*
X141425334Y-90907809D01*
X141425334Y-90907805D01*
X141326743Y-90656602D01*
X141191815Y-90422898D01*
X141191813Y-90422895D01*
X141191811Y-90422892D01*
X141023562Y-90211916D01*
X140825738Y-90028362D01*
X140602778Y-89876350D01*
X140602773Y-89876348D01*
X140359649Y-89759265D01*
X140359644Y-89759263D01*
X140359641Y-89759262D01*
X140101772Y-89679720D01*
X139834929Y-89639500D01*
X139565071Y-89639500D01*
X139364938Y-89669665D01*
X139298227Y-89679720D01*
X139124439Y-89733326D01*
X139069417Y-89750299D01*
X139040353Y-89759264D01*
X138797227Y-89876348D01*
X138574257Y-90028366D01*
X138376437Y-90211916D01*
X138208189Y-90422892D01*
X138208188Y-90422892D01*
X138073257Y-90656601D01*
X138073256Y-90656604D01*
X137974667Y-90907801D01*
X137974663Y-90907812D01*
X137914616Y-91170899D01*
X137894451Y-91440000D01*
X136425549Y-91440000D01*
X136405383Y-91170897D01*
X136356179Y-90955320D01*
X136345336Y-90907812D01*
X136345334Y-90907809D01*
X136345334Y-90907805D01*
X136246743Y-90656602D01*
X136111815Y-90422898D01*
X136111813Y-90422895D01*
X136111811Y-90422892D01*
X135943562Y-90211916D01*
X135745738Y-90028362D01*
X135522778Y-89876350D01*
X135522773Y-89876348D01*
X135279649Y-89759265D01*
X135279644Y-89759263D01*
X135279641Y-89759262D01*
X135021772Y-89679720D01*
X134754929Y-89639500D01*
X134485071Y-89639500D01*
X134284938Y-89669665D01*
X134218227Y-89679720D01*
X134044439Y-89733326D01*
X133989417Y-89750299D01*
X133960353Y-89759264D01*
X133717227Y-89876348D01*
X133494257Y-90028366D01*
X133296437Y-90211916D01*
X133128189Y-90422892D01*
X133128188Y-90422892D01*
X132993257Y-90656601D01*
X132993256Y-90656604D01*
X132894667Y-90907801D01*
X132894663Y-90907812D01*
X132834616Y-91170899D01*
X132814451Y-91440000D01*
X97155000Y-91440000D01*
X97155000Y-86360000D01*
X104824773Y-86360000D01*
X104843657Y-86624026D01*
X104899923Y-86882678D01*
X104917854Y-86930753D01*
X104992425Y-87130687D01*
X104992427Y-87130691D01*
X105032410Y-87203915D01*
X105119284Y-87363011D01*
X105277913Y-87574915D01*
X105307253Y-87604255D01*
X105361227Y-87685034D01*
X105380181Y-87780322D01*
X105364482Y-87867337D01*
X105336403Y-87942618D01*
X105336401Y-87942628D01*
X105330000Y-88002167D01*
X105330000Y-88649999D01*
X105330001Y-88650000D01*
X106246314Y-88650000D01*
X106220507Y-88690156D01*
X106180000Y-88828111D01*
X106180000Y-88971889D01*
X106220507Y-89109844D01*
X106246314Y-89150000D01*
X105330001Y-89150000D01*
X105330000Y-89150001D01*
X105330000Y-89797832D01*
X105336401Y-89857371D01*
X105336403Y-89857378D01*
X105386646Y-89992087D01*
X105472810Y-90107187D01*
X105472812Y-90107189D01*
X105587912Y-90193353D01*
X105722621Y-90243596D01*
X105722628Y-90243598D01*
X105782167Y-90249999D01*
X105782175Y-90250000D01*
X106429999Y-90250000D01*
X106430000Y-90249999D01*
X106430000Y-89335501D01*
X106537685Y-89384680D01*
X106644237Y-89400000D01*
X106715763Y-89400000D01*
X106822315Y-89384680D01*
X106930000Y-89335501D01*
X106930000Y-90249999D01*
X106930001Y-90250000D01*
X107577825Y-90250000D01*
X107577832Y-90249999D01*
X107637371Y-90243598D01*
X107637378Y-90243596D01*
X107772087Y-90193353D01*
X107887187Y-90107189D01*
X107887189Y-90107187D01*
X107973353Y-89992087D01*
X108023596Y-89857378D01*
X108023598Y-89857371D01*
X108029999Y-89797832D01*
X108030000Y-89797825D01*
X108030000Y-89150001D01*
X108029999Y-89150000D01*
X107113686Y-89150000D01*
X107139493Y-89109844D01*
X107180000Y-88971889D01*
X107180000Y-88828111D01*
X107139493Y-88690156D01*
X107113686Y-88650000D01*
X108029999Y-88650000D01*
X108030000Y-88649999D01*
X108030000Y-88002175D01*
X108029999Y-88002167D01*
X108023598Y-87942628D01*
X108023596Y-87942618D01*
X107995518Y-87867337D01*
X107979978Y-87771433D01*
X108002321Y-87676883D01*
X108052752Y-87604250D01*
X108082077Y-87574925D01*
X108082087Y-87574915D01*
X108240716Y-87363011D01*
X108367574Y-87130689D01*
X108460077Y-86882678D01*
X108516343Y-86624026D01*
X108535227Y-86360000D01*
X112094778Y-86360000D01*
X112113643Y-86647837D01*
X112113645Y-86647849D01*
X112169919Y-86930753D01*
X112169920Y-86930760D01*
X112262639Y-87203896D01*
X112262646Y-87203915D01*
X112390216Y-87462600D01*
X112390219Y-87462606D01*
X112390222Y-87462611D01*
X112550480Y-87702454D01*
X112740673Y-87919327D01*
X112957546Y-88109520D01*
X113197389Y-88269778D01*
X113197398Y-88269782D01*
X113197399Y-88269783D01*
X113456084Y-88397353D01*
X113456091Y-88397355D01*
X113456098Y-88397359D01*
X113590895Y-88443116D01*
X113729239Y-88490079D01*
X113729242Y-88490079D01*
X113729247Y-88490081D01*
X113958369Y-88535656D01*
X114012150Y-88546354D01*
X114012155Y-88546354D01*
X114012161Y-88546356D01*
X114300000Y-88565222D01*
X114587839Y-88546356D01*
X114870753Y-88490081D01*
X114870758Y-88490079D01*
X114870760Y-88490079D01*
X114943482Y-88465392D01*
X115143902Y-88397359D01*
X115143911Y-88397354D01*
X115143915Y-88397353D01*
X115271134Y-88334614D01*
X115402611Y-88269778D01*
X115642454Y-88109520D01*
X115859327Y-87919327D01*
X116049520Y-87702454D01*
X116209778Y-87462611D01*
X116337359Y-87203902D01*
X116430081Y-86930753D01*
X116486356Y-86647839D01*
X116505222Y-86360000D01*
X150544773Y-86360000D01*
X150563657Y-86624026D01*
X150619923Y-86882678D01*
X150637854Y-86930753D01*
X150712425Y-87130687D01*
X150712427Y-87130691D01*
X150752410Y-87203915D01*
X150839284Y-87363011D01*
X150997913Y-87574915D01*
X151185085Y-87762087D01*
X151396989Y-87920716D01*
X151629311Y-88047574D01*
X151877322Y-88140077D01*
X152135974Y-88196343D01*
X152400000Y-88215227D01*
X152664026Y-88196343D01*
X152922678Y-88140077D01*
X153170689Y-88047574D01*
X153403011Y-87920716D01*
X153614915Y-87762087D01*
X153802087Y-87574915D01*
X153960716Y-87363011D01*
X154087574Y-87130689D01*
X154180077Y-86882678D01*
X154236343Y-86624026D01*
X154255227Y-86360000D01*
X154236343Y-86095974D01*
X154180077Y-85837322D01*
X154087574Y-85589311D01*
X153960716Y-85356989D01*
X153872552Y-85239216D01*
X153830624Y-85151581D01*
X153825423Y-85054565D01*
X153857745Y-84962944D01*
X153872545Y-84940793D01*
X153960716Y-84823011D01*
X154087574Y-84590689D01*
X154180077Y-84342678D01*
X154236343Y-84084026D01*
X154255227Y-83820000D01*
X154236343Y-83555974D01*
X154180077Y-83297322D01*
X154087574Y-83049311D01*
X153960716Y-82816989D01*
X153872552Y-82699216D01*
X153830624Y-82611581D01*
X153825423Y-82514565D01*
X153857745Y-82422944D01*
X153872545Y-82400793D01*
X153960716Y-82283011D01*
X154087574Y-82050689D01*
X154180077Y-81802678D01*
X154236343Y-81544026D01*
X154255227Y-81280000D01*
X154236343Y-81015974D01*
X154180077Y-80757322D01*
X154087574Y-80509311D01*
X153960716Y-80276989D01*
X153872552Y-80159216D01*
X153830624Y-80071581D01*
X153825423Y-79974565D01*
X153857745Y-79882944D01*
X153872545Y-79860793D01*
X153960716Y-79743011D01*
X154087574Y-79510689D01*
X154180077Y-79262678D01*
X154236343Y-79004026D01*
X154255227Y-78740000D01*
X154236343Y-78475974D01*
X154180077Y-78217322D01*
X154087574Y-77969311D01*
X154048994Y-77898658D01*
X154019964Y-77805943D01*
X154028623Y-77709175D01*
X154073655Y-77623087D01*
X154074230Y-77622375D01*
X154089698Y-77603407D01*
X154183909Y-77423049D01*
X154239886Y-77227418D01*
X154250500Y-77108037D01*
X154250500Y-76267768D01*
X159435787Y-76267768D01*
X159465413Y-76537012D01*
X159465414Y-76537018D01*
X159533928Y-76799088D01*
X159639869Y-77048387D01*
X159639872Y-77048394D01*
X159780976Y-77279601D01*
X159780978Y-77279605D01*
X159780982Y-77279610D01*
X159780987Y-77279616D01*
X159780990Y-77279620D01*
X159954254Y-77487819D01*
X159954255Y-77487820D01*
X160105222Y-77623087D01*
X160155996Y-77668580D01*
X160155999Y-77668583D01*
X160381903Y-77818040D01*
X160381906Y-77818041D01*
X160381910Y-77818044D01*
X160627176Y-77933020D01*
X160886569Y-78011060D01*
X161154561Y-78050500D01*
X161154567Y-78050500D01*
X161357634Y-78050500D01*
X161382610Y-78048671D01*
X161560156Y-78035677D01*
X161824553Y-77976780D01*
X162077558Y-77880014D01*
X162125817Y-77852929D01*
X162313773Y-77747444D01*
X162363334Y-77709175D01*
X162528177Y-77581888D01*
X162716186Y-77386881D01*
X162873799Y-77166579D01*
X162997656Y-76925675D01*
X163085118Y-76669305D01*
X163134319Y-76402933D01*
X163144212Y-76132235D01*
X163114586Y-75862982D01*
X163046072Y-75600912D01*
X162940130Y-75351610D01*
X162940127Y-75351605D01*
X162799023Y-75120398D01*
X162799022Y-75120397D01*
X162799018Y-75120390D01*
X162679643Y-74976946D01*
X162625745Y-74912180D01*
X162424002Y-74731418D01*
X162424000Y-74731416D01*
X162198096Y-74581959D01*
X162065900Y-74519988D01*
X161952824Y-74466980D01*
X161693431Y-74388940D01*
X161693427Y-74388939D01*
X161693426Y-74388939D01*
X161631715Y-74379857D01*
X161425439Y-74349500D01*
X161222369Y-74349500D01*
X161222366Y-74349500D01*
X161159487Y-74354102D01*
X161019844Y-74364323D01*
X161019840Y-74364323D01*
X161019837Y-74364324D01*
X160755442Y-74423221D01*
X160502436Y-74519988D01*
X160266226Y-74652555D01*
X160051826Y-74818108D01*
X159863811Y-75013122D01*
X159706204Y-75233416D01*
X159706199Y-75233424D01*
X159582344Y-75474323D01*
X159582343Y-75474325D01*
X159494882Y-75730690D01*
X159445681Y-75997062D01*
X159445680Y-75997073D01*
X159435788Y-76267765D01*
X159435787Y-76267768D01*
X154250500Y-76267768D01*
X154250499Y-75291964D01*
X154250498Y-75291958D01*
X154239886Y-75172585D01*
X154239886Y-75172582D01*
X154183909Y-74976951D01*
X154089698Y-74796593D01*
X153961109Y-74638891D01*
X153803407Y-74510302D01*
X153803402Y-74510299D01*
X153623053Y-74416093D01*
X153623052Y-74416092D01*
X153623049Y-74416091D01*
X153427418Y-74360114D01*
X153403541Y-74357991D01*
X153308041Y-74349500D01*
X153308037Y-74349500D01*
X152270281Y-74349500D01*
X151491961Y-74349501D01*
X151372585Y-74360113D01*
X151176954Y-74416090D01*
X151176946Y-74416093D01*
X150996597Y-74510299D01*
X150996592Y-74510302D01*
X150838893Y-74638889D01*
X150838889Y-74638893D01*
X150710302Y-74796592D01*
X150710299Y-74796597D01*
X150616093Y-74976946D01*
X150616090Y-74976954D01*
X150560115Y-75172578D01*
X150560114Y-75172582D01*
X150549500Y-75291958D01*
X150549501Y-77108039D01*
X150560113Y-77227414D01*
X150560113Y-77227417D01*
X150560114Y-77227418D01*
X150575046Y-77279601D01*
X150616090Y-77423045D01*
X150616093Y-77423053D01*
X150710299Y-77603402D01*
X150710306Y-77603413D01*
X150725440Y-77621973D01*
X150770968Y-77707800D01*
X150780185Y-77804517D01*
X150751688Y-77897399D01*
X150751004Y-77898660D01*
X150712427Y-77969308D01*
X150712425Y-77969312D01*
X150682144Y-78050500D01*
X150619923Y-78217322D01*
X150588137Y-78363440D01*
X150563657Y-78475972D01*
X150548081Y-78693743D01*
X150544773Y-78740000D01*
X150563657Y-79004026D01*
X150619923Y-79262678D01*
X150712426Y-79510689D01*
X150839284Y-79743011D01*
X150927444Y-79860779D01*
X150927445Y-79860780D01*
X150969375Y-79948421D01*
X150974576Y-80045436D01*
X150942254Y-80137057D01*
X150927445Y-80159220D01*
X150839284Y-80276989D01*
X150839280Y-80276995D01*
X150712427Y-80509308D01*
X150712425Y-80509312D01*
X150657526Y-80656505D01*
X150619923Y-80757322D01*
X150563657Y-81015974D01*
X150544773Y-81280000D01*
X150563657Y-81544026D01*
X150619923Y-81802678D01*
X150685753Y-81979177D01*
X150712425Y-82050687D01*
X150712427Y-82050691D01*
X150821626Y-82250674D01*
X150839284Y-82283011D01*
X150839285Y-82283012D01*
X150927445Y-82400780D01*
X150969375Y-82488421D01*
X150974576Y-82585436D01*
X150942254Y-82677057D01*
X150927448Y-82699214D01*
X150921322Y-82707399D01*
X150839284Y-82816989D01*
X150839280Y-82816995D01*
X150712427Y-83049308D01*
X150712425Y-83049312D01*
X150709402Y-83057418D01*
X150619923Y-83297322D01*
X150592348Y-83424081D01*
X150563657Y-83555972D01*
X150561144Y-83591106D01*
X150544773Y-83820000D01*
X150563657Y-84084026D01*
X150619923Y-84342678D01*
X150660035Y-84450222D01*
X150712425Y-84590687D01*
X150712427Y-84590691D01*
X150757058Y-84672427D01*
X150839284Y-84823011D01*
X150927444Y-84940779D01*
X150927445Y-84940780D01*
X150969375Y-85028421D01*
X150974576Y-85125436D01*
X150942254Y-85217057D01*
X150927448Y-85239214D01*
X150913836Y-85257399D01*
X150839284Y-85356989D01*
X150839280Y-85356995D01*
X150712427Y-85589308D01*
X150712425Y-85589312D01*
X150646595Y-85765810D01*
X150619923Y-85837322D01*
X150597569Y-85940081D01*
X150568840Y-86072150D01*
X150563657Y-86095974D01*
X150544773Y-86360000D01*
X116505222Y-86360000D01*
X116486356Y-86072161D01*
X116430081Y-85789247D01*
X116430079Y-85789242D01*
X116430079Y-85789239D01*
X116362212Y-85589312D01*
X116337359Y-85516098D01*
X116337355Y-85516091D01*
X116337353Y-85516084D01*
X116209783Y-85257399D01*
X116209782Y-85257398D01*
X116209778Y-85257389D01*
X116049520Y-85017546D01*
X115859327Y-84800673D01*
X115642454Y-84610480D01*
X115402611Y-84450222D01*
X115402606Y-84450219D01*
X115402600Y-84450216D01*
X115143915Y-84322646D01*
X115143903Y-84322641D01*
X115143902Y-84322641D01*
X115136794Y-84320228D01*
X114870760Y-84229920D01*
X114870753Y-84229919D01*
X114587849Y-84173645D01*
X114587837Y-84173643D01*
X114300000Y-84154778D01*
X114012162Y-84173643D01*
X114012150Y-84173645D01*
X113729246Y-84229919D01*
X113729239Y-84229920D01*
X113456103Y-84322639D01*
X113456084Y-84322646D01*
X113197399Y-84450216D01*
X113197382Y-84450226D01*
X112957545Y-84610480D01*
X112740674Y-84800672D01*
X112740672Y-84800674D01*
X112550480Y-85017545D01*
X112390226Y-85257382D01*
X112390216Y-85257399D01*
X112262646Y-85516084D01*
X112262639Y-85516103D01*
X112169920Y-85789239D01*
X112169919Y-85789246D01*
X112113645Y-86072150D01*
X112113643Y-86072162D01*
X112094778Y-86360000D01*
X108535227Y-86360000D01*
X108516343Y-86095974D01*
X108460077Y-85837322D01*
X108367574Y-85589311D01*
X108240716Y-85356989D01*
X108082087Y-85145085D01*
X107894915Y-84957913D01*
X107683011Y-84799284D01*
X107450689Y-84672426D01*
X107450687Y-84672425D01*
X107379177Y-84645753D01*
X107202678Y-84579923D01*
X107000293Y-84535897D01*
X106944027Y-84523657D01*
X106680000Y-84504773D01*
X106415972Y-84523657D01*
X106303440Y-84548137D01*
X106157322Y-84579923D01*
X106128452Y-84590691D01*
X105909312Y-84672425D01*
X105909308Y-84672427D01*
X105676995Y-84799280D01*
X105676989Y-84799284D01*
X105465085Y-84957913D01*
X105277913Y-85145085D01*
X105193836Y-85257399D01*
X105119284Y-85356989D01*
X105119280Y-85356995D01*
X104992427Y-85589308D01*
X104992425Y-85589312D01*
X104926595Y-85765810D01*
X104899923Y-85837322D01*
X104877569Y-85940081D01*
X104848840Y-86072150D01*
X104843657Y-86095974D01*
X104824773Y-86360000D01*
X97155000Y-86360000D01*
X97155000Y-83810000D01*
X119394778Y-83810000D01*
X119413643Y-84097837D01*
X119413645Y-84097849D01*
X119469919Y-84380753D01*
X119469920Y-84380760D01*
X119562639Y-84653896D01*
X119562646Y-84653915D01*
X119690216Y-84912600D01*
X119690226Y-84912617D01*
X119723853Y-84962944D01*
X119850480Y-85152454D01*
X120040673Y-85369327D01*
X120257546Y-85559520D01*
X120497389Y-85719778D01*
X120497398Y-85719782D01*
X120497399Y-85719783D01*
X120756084Y-85847353D01*
X120756091Y-85847355D01*
X120756098Y-85847359D01*
X120890895Y-85893116D01*
X121029239Y-85940079D01*
X121029242Y-85940079D01*
X121029247Y-85940081D01*
X121258369Y-85985656D01*
X121312150Y-85996354D01*
X121312155Y-85996354D01*
X121312161Y-85996356D01*
X121600000Y-86015222D01*
X121887839Y-85996356D01*
X122170753Y-85940081D01*
X122170758Y-85940079D01*
X122170760Y-85940079D01*
X122243482Y-85915392D01*
X122443902Y-85847359D01*
X122443911Y-85847354D01*
X122443915Y-85847353D01*
X122571134Y-85784614D01*
X122702611Y-85719778D01*
X122942454Y-85559520D01*
X123159327Y-85369327D01*
X123349520Y-85152454D01*
X123509778Y-84912611D01*
X123574614Y-84781134D01*
X123637353Y-84653915D01*
X123637354Y-84653911D01*
X123637359Y-84653902D01*
X123730081Y-84380753D01*
X123786356Y-84097839D01*
X123805222Y-83810000D01*
X123786356Y-83522161D01*
X123730081Y-83239247D01*
X123730079Y-83239242D01*
X123730079Y-83239239D01*
X123665605Y-83049308D01*
X123637359Y-82966098D01*
X123637355Y-82966091D01*
X123637353Y-82966084D01*
X123509783Y-82707399D01*
X123509782Y-82707398D01*
X123509778Y-82707389D01*
X123349520Y-82467546D01*
X123159327Y-82250673D01*
X122942454Y-82060480D01*
X122702611Y-81900222D01*
X122702606Y-81900219D01*
X122702600Y-81900216D01*
X122443915Y-81772646D01*
X122443903Y-81772641D01*
X122443902Y-81772641D01*
X122436794Y-81770228D01*
X122170760Y-81679920D01*
X122170753Y-81679919D01*
X121887849Y-81623645D01*
X121887837Y-81623643D01*
X121600000Y-81604778D01*
X121312162Y-81623643D01*
X121312150Y-81623645D01*
X121029246Y-81679919D01*
X121029239Y-81679920D01*
X120756103Y-81772639D01*
X120756084Y-81772646D01*
X120497399Y-81900216D01*
X120497382Y-81900226D01*
X120257545Y-82060480D01*
X120040674Y-82250672D01*
X120040672Y-82250674D01*
X119850480Y-82467545D01*
X119690226Y-82707382D01*
X119690216Y-82707399D01*
X119562646Y-82966084D01*
X119562639Y-82966103D01*
X119469920Y-83239239D01*
X119469919Y-83239246D01*
X119413645Y-83522150D01*
X119413643Y-83522162D01*
X119394778Y-83810000D01*
X97155000Y-83810000D01*
X97155000Y-81280000D01*
X124554747Y-81280000D01*
X124570717Y-81544027D01*
X124573743Y-81594040D01*
X124630449Y-81903469D01*
X124630455Y-81903494D01*
X124724044Y-82203831D01*
X124853164Y-82490724D01*
X125015918Y-82759951D01*
X125209931Y-83007592D01*
X125209936Y-83007597D01*
X125209940Y-83007602D01*
X125432398Y-83230060D01*
X125432402Y-83230063D01*
X125432407Y-83230068D01*
X125680048Y-83424081D01*
X125949275Y-83586835D01*
X125949277Y-83586836D01*
X125949279Y-83586837D01*
X126236165Y-83715954D01*
X126236167Y-83715954D01*
X126236168Y-83715955D01*
X126536505Y-83809544D01*
X126536509Y-83809544D01*
X126536522Y-83809549D01*
X126753340Y-83849282D01*
X126845959Y-83866256D01*
X126845960Y-83866256D01*
X126845971Y-83866258D01*
X127160000Y-83885253D01*
X127474029Y-83866258D01*
X127783478Y-83809549D01*
X128083835Y-83715954D01*
X128370721Y-83586837D01*
X128639952Y-83424081D01*
X128887602Y-83230060D01*
X129110060Y-83007602D01*
X129304081Y-82759952D01*
X129466837Y-82490721D01*
X129595954Y-82203835D01*
X129689549Y-81903478D01*
X129746258Y-81594029D01*
X129765253Y-81280000D01*
X129746258Y-80965971D01*
X129689549Y-80656522D01*
X129595954Y-80356165D01*
X129466837Y-80069279D01*
X129452423Y-80045436D01*
X129304081Y-79800048D01*
X129164557Y-79621958D01*
X144559500Y-79621958D01*
X144559501Y-82938039D01*
X144570113Y-83057414D01*
X144570113Y-83057417D01*
X144570114Y-83057418D01*
X144622142Y-83239246D01*
X144626090Y-83253045D01*
X144626093Y-83253053D01*
X144715430Y-83424081D01*
X144720302Y-83433407D01*
X144848891Y-83591109D01*
X145006593Y-83719698D01*
X145186951Y-83813909D01*
X145382582Y-83869886D01*
X145501963Y-83880500D01*
X148818036Y-83880499D01*
X148818039Y-83880499D01*
X148869199Y-83875950D01*
X148937418Y-83869886D01*
X149133049Y-83813909D01*
X149313407Y-83719698D01*
X149471109Y-83591109D01*
X149599698Y-83433407D01*
X149693909Y-83253049D01*
X149749886Y-83057418D01*
X149760500Y-82938037D01*
X149760499Y-79621964D01*
X149760498Y-79621958D01*
X149750607Y-79510691D01*
X149749886Y-79502582D01*
X149693909Y-79306951D01*
X149599698Y-79126593D01*
X149471109Y-78968891D01*
X149313407Y-78840302D01*
X149313402Y-78840299D01*
X149133053Y-78746093D01*
X149133052Y-78746092D01*
X149133049Y-78746091D01*
X148937418Y-78690114D01*
X148913541Y-78687991D01*
X148818041Y-78679500D01*
X148818037Y-78679500D01*
X146923138Y-78679500D01*
X145501961Y-78679501D01*
X145382585Y-78690113D01*
X145186954Y-78746090D01*
X145186946Y-78746093D01*
X145006597Y-78840299D01*
X145006592Y-78840302D01*
X144848893Y-78968889D01*
X144848889Y-78968893D01*
X144720302Y-79126592D01*
X144720299Y-79126597D01*
X144626093Y-79306946D01*
X144626090Y-79306954D01*
X144570115Y-79502578D01*
X144570114Y-79502582D01*
X144559500Y-79621958D01*
X129164557Y-79621958D01*
X129110068Y-79552407D01*
X129110063Y-79552402D01*
X129110060Y-79552398D01*
X128887602Y-79329940D01*
X128887597Y-79329936D01*
X128887592Y-79329931D01*
X128639951Y-79135918D01*
X128370724Y-78973164D01*
X128083831Y-78844044D01*
X127783494Y-78750455D01*
X127783480Y-78750451D01*
X127783478Y-78750451D01*
X127783475Y-78750450D01*
X127783469Y-78750449D01*
X127474040Y-78693743D01*
X127474031Y-78693742D01*
X127474029Y-78693742D01*
X127160000Y-78674747D01*
X126845971Y-78693742D01*
X126845968Y-78693742D01*
X126845959Y-78693743D01*
X126536530Y-78750449D01*
X126536505Y-78750455D01*
X126236168Y-78844044D01*
X125949275Y-78973164D01*
X125680048Y-79135918D01*
X125432407Y-79329931D01*
X125209931Y-79552407D01*
X125015918Y-79800048D01*
X124853164Y-80069275D01*
X124724044Y-80356168D01*
X124630455Y-80656505D01*
X124630449Y-80656530D01*
X124573743Y-80965959D01*
X124573742Y-80965968D01*
X124573742Y-80965971D01*
X124554747Y-81280000D01*
X97155000Y-81280000D01*
X97155000Y-76267768D01*
X99110787Y-76267768D01*
X99140413Y-76537012D01*
X99140414Y-76537018D01*
X99208928Y-76799088D01*
X99314869Y-77048387D01*
X99314872Y-77048394D01*
X99455976Y-77279601D01*
X99455978Y-77279605D01*
X99455982Y-77279610D01*
X99455987Y-77279616D01*
X99455990Y-77279620D01*
X99629254Y-77487819D01*
X99629255Y-77487820D01*
X99780222Y-77623087D01*
X99830996Y-77668580D01*
X99830999Y-77668583D01*
X100056903Y-77818040D01*
X100056906Y-77818041D01*
X100056910Y-77818044D01*
X100302176Y-77933020D01*
X100561569Y-78011060D01*
X100829561Y-78050500D01*
X100829567Y-78050500D01*
X101032634Y-78050500D01*
X101057610Y-78048671D01*
X101235156Y-78035677D01*
X101499553Y-77976780D01*
X101752558Y-77880014D01*
X101800817Y-77852929D01*
X101988773Y-77747444D01*
X102038334Y-77709175D01*
X102203177Y-77581888D01*
X102391186Y-77386881D01*
X102548799Y-77166579D01*
X102672656Y-76925675D01*
X102760118Y-76669305D01*
X102809319Y-76402933D01*
X102819212Y-76132235D01*
X102789586Y-75862982D01*
X102721072Y-75600912D01*
X102615130Y-75351610D01*
X102615127Y-75351605D01*
X102474023Y-75120398D01*
X102474022Y-75120397D01*
X102474018Y-75120390D01*
X102354643Y-74976946D01*
X102300745Y-74912180D01*
X102099002Y-74731418D01*
X102099000Y-74731416D01*
X101873096Y-74581959D01*
X101740900Y-74519988D01*
X101627824Y-74466980D01*
X101368431Y-74388940D01*
X101368427Y-74388939D01*
X101368426Y-74388939D01*
X101306715Y-74379857D01*
X101100439Y-74349500D01*
X100897369Y-74349500D01*
X100897366Y-74349500D01*
X100834487Y-74354102D01*
X100694844Y-74364323D01*
X100694840Y-74364323D01*
X100694837Y-74364324D01*
X100430442Y-74423221D01*
X100177436Y-74519988D01*
X99941226Y-74652555D01*
X99726826Y-74818108D01*
X99538811Y-75013122D01*
X99381204Y-75233416D01*
X99381199Y-75233424D01*
X99257344Y-75474323D01*
X99257343Y-75474325D01*
X99169882Y-75730690D01*
X99120681Y-75997062D01*
X99120680Y-75997073D01*
X99110788Y-76267765D01*
X99110787Y-76267768D01*
X97155000Y-76267768D01*
X97155000Y-72004000D01*
X97173954Y-71908712D01*
X97227930Y-71827930D01*
X97308712Y-71773954D01*
X97404000Y-71755000D01*
X166121000Y-71755000D01*
X166216288Y-71773954D01*
G37*
%TD.AperFunction*%
%TD*%
M02*
