%TF.GenerationSoftware,KiCad,Pcbnew,7.0.9*%
%TF.CreationDate,2024-02-06T23:46:10-08:00*%
%TF.ProjectId,AaronMotorDriver,4161726f-6e4d-46f7-946f-724472697665,rev?*%
%TF.SameCoordinates,Original*%
%TF.FileFunction,Copper,L1,Top*%
%TF.FilePolarity,Positive*%
%FSLAX46Y46*%
G04 Gerber Fmt 4.6, Leading zero omitted, Abs format (unit mm)*
G04 Created by KiCad (PCBNEW 7.0.9) date 2024-02-06 23:46:10*
%MOMM*%
%LPD*%
G01*
G04 APERTURE LIST*
%TA.AperFunction,ComponentPad*%
%ADD10C,1.600000*%
%TD*%
%TA.AperFunction,ComponentPad*%
%ADD11R,1.500000X1.050000*%
%TD*%
%TA.AperFunction,ComponentPad*%
%ADD12O,1.500000X1.050000*%
%TD*%
%TA.AperFunction,ComponentPad*%
%ADD13R,1.950000X1.950000*%
%TD*%
%TA.AperFunction,ComponentPad*%
%ADD14C,1.950000*%
%TD*%
%TA.AperFunction,ComponentPad*%
%ADD15C,2.400000*%
%TD*%
%TA.AperFunction,ComponentPad*%
%ADD16R,1.700000X1.700000*%
%TD*%
%TA.AperFunction,ComponentPad*%
%ADD17O,1.700000X1.700000*%
%TD*%
%TA.AperFunction,ComponentPad*%
%ADD18R,2.200000X2.200000*%
%TD*%
%TA.AperFunction,ComponentPad*%
%ADD19O,2.200000X2.200000*%
%TD*%
%TA.AperFunction,ComponentPad*%
%ADD20R,3.200000X3.200000*%
%TD*%
%TA.AperFunction,ComponentPad*%
%ADD21O,3.200000X3.200000*%
%TD*%
%TA.AperFunction,Conductor*%
%ADD22C,1.500000*%
%TD*%
%TA.AperFunction,Conductor*%
%ADD23C,2.500000*%
%TD*%
%TA.AperFunction,Conductor*%
%ADD24C,3.000000*%
%TD*%
%TA.AperFunction,Conductor*%
%ADD25C,0.750000*%
%TD*%
%TA.AperFunction,Conductor*%
%ADD26C,1.000000*%
%TD*%
G04 APERTURE END LIST*
D10*
%TO.P,TH5,2*%
%TO.N,Net-(J5-Pin_2)*%
X139700000Y-116840000D03*
%TO.P,TH5,1*%
%TO.N,Net-(D1-K)*%
X134620000Y-116840000D03*
%TD*%
%TO.P,TH4,2*%
%TO.N,Net-(J4-Pin_2)*%
X139700000Y-110490000D03*
%TO.P,TH4,1*%
%TO.N,Net-(D1-K)*%
X134620000Y-110490000D03*
%TD*%
%TO.P,TH3,1*%
%TO.N,Net-(D1-K)*%
X134620000Y-104140000D03*
%TO.P,TH3,2*%
%TO.N,Net-(J3-Pin_2)*%
X139700000Y-104140000D03*
%TD*%
%TO.P,TH2,2*%
%TO.N,Net-(J2-Pin_2)*%
X139700000Y-97790000D03*
%TO.P,TH2,1*%
%TO.N,Net-(D1-K)*%
X134620000Y-97790000D03*
%TD*%
%TO.P,TH1,2*%
%TO.N,Net-(J1-Pin_2)*%
X139700000Y-91440000D03*
%TO.P,TH1,1*%
%TO.N,Net-(D1-K)*%
X134620000Y-91440000D03*
%TD*%
D11*
%TO.P,Q1,1,C*%
%TO.N,Net-(D3-A)*%
X116840000Y-107950000D03*
D12*
%TO.P,Q1,2,B*%
%TO.N,RelayControl*%
X116840000Y-106680000D03*
%TO.P,Q1,3,E*%
%TO.N,GND*%
X116840000Y-105410000D03*
%TD*%
D13*
%TO.P,K1,1,COIL_1*%
%TO.N,VCC*%
X121750000Y-99060000D03*
D14*
%TO.P,K1,2,COIL_2*%
%TO.N,Net-(D3-A)*%
X114150000Y-99060000D03*
D15*
%TO.P,K1,3,COM*%
%TO.N,5V*%
X114300000Y-86360000D03*
%TO.P,K1,4,NO*%
%TO.N,Net-(D1-A)*%
X121600000Y-83810000D03*
%TD*%
D16*
%TO.P,J9,1,Pin_1*%
%TO.N,GND*%
X106680000Y-88900000D03*
D17*
%TO.P,J9,2,Pin_2*%
%TO.N,5V*%
X106680000Y-86360000D03*
%TD*%
D16*
%TO.P,J8,1,Pin_1*%
%TO.N,PWM4*%
X152400000Y-76200000D03*
D17*
%TO.P,J8,2,Pin_2*%
%TO.N,PWM3*%
X152400000Y-78740000D03*
%TO.P,J8,3,Pin_3*%
%TO.N,PWM2*%
X152400000Y-81280000D03*
%TO.P,J8,4,Pin_4*%
%TO.N,PWM1*%
X152400000Y-83820000D03*
%TO.P,J8,5,Pin_5*%
%TO.N,PWM0*%
X152400000Y-86360000D03*
%TD*%
D16*
%TO.P,J7,1,Pin_1*%
%TO.N,RelayControl*%
X106680000Y-109220000D03*
D17*
%TO.P,J7,2,Pin_2*%
%TO.N,VCC*%
X106680000Y-111760000D03*
%TD*%
%TO.P,J5,3,Pin_3*%
%TO.N,GND*%
X147320000Y-116840000D03*
%TO.P,J5,2,Pin_2*%
%TO.N,Net-(J5-Pin_2)*%
X149860000Y-116840000D03*
D16*
%TO.P,J5,1,Pin_1*%
%TO.N,PWM4*%
X152400000Y-116840000D03*
%TD*%
%TO.P,J4,1,Pin_1*%
%TO.N,PWM3*%
X152400000Y-110490000D03*
D17*
%TO.P,J4,2,Pin_2*%
%TO.N,Net-(J4-Pin_2)*%
X149860000Y-110490000D03*
%TO.P,J4,3,Pin_3*%
%TO.N,GND*%
X147320000Y-110490000D03*
%TD*%
D16*
%TO.P,J3,1,Pin_1*%
%TO.N,PWM2*%
X152400000Y-104140000D03*
D17*
%TO.P,J3,2,Pin_2*%
%TO.N,Net-(J3-Pin_2)*%
X149860000Y-104140000D03*
%TO.P,J3,3,Pin_3*%
%TO.N,GND*%
X147320000Y-104140000D03*
%TD*%
D16*
%TO.P,J2,1,Pin_1*%
%TO.N,PWM1*%
X152400000Y-97790000D03*
D17*
%TO.P,J2,2,Pin_2*%
%TO.N,Net-(J2-Pin_2)*%
X149860000Y-97790000D03*
%TO.P,J2,3,Pin_3*%
%TO.N,GND*%
X147320000Y-97790000D03*
%TD*%
%TO.P,J1,3,Pin_3*%
%TO.N,GND*%
X147320000Y-91440000D03*
%TO.P,J1,2,Pin_2*%
%TO.N,Net-(J1-Pin_2)*%
X149860000Y-91440000D03*
D16*
%TO.P,J1,1,Pin_1*%
%TO.N,PWM0*%
X152400000Y-91440000D03*
%TD*%
D18*
%TO.P,D3,1,K*%
%TO.N,Net-(D2-K)*%
X127000000Y-111760000D03*
D19*
%TO.P,D3,2,A*%
%TO.N,Net-(D3-A)*%
X127000000Y-101600000D03*
%TD*%
D18*
%TO.P,D2,1,K*%
%TO.N,Net-(D2-K)*%
X121920000Y-111760000D03*
D19*
%TO.P,D2,2,A*%
%TO.N,VCC*%
X111760000Y-111760000D03*
%TD*%
D20*
%TO.P,D1,1,K*%
%TO.N,Net-(D1-K)*%
X147160000Y-81280000D03*
D21*
%TO.P,D1,2,A*%
%TO.N,Net-(D1-A)*%
X127160000Y-81280000D03*
%TD*%
D22*
%TO.N,Net-(J2-Pin_2)*%
X149860000Y-97790000D02*
X149860000Y-98992081D01*
D23*
%TO.N,5V*%
X106680000Y-86360000D02*
X114300000Y-86360000D01*
D24*
%TO.N,Net-(D1-K)*%
X142875000Y-81280000D02*
X134620000Y-89535000D01*
X134620000Y-89535000D02*
X134620000Y-116840000D01*
X147160000Y-81280000D02*
X142875000Y-81280000D01*
D22*
%TO.N,Net-(J5-Pin_2)*%
X139700000Y-118110000D02*
X139700000Y-116840000D01*
X140970000Y-119380000D02*
X139700000Y-118110000D01*
X149860000Y-118042081D02*
X148522081Y-119380000D01*
X149860000Y-116840000D02*
X149860000Y-118042081D01*
X148522081Y-119380000D02*
X140970000Y-119380000D01*
%TO.N,Net-(J4-Pin_2)*%
X148522081Y-113030000D02*
X149860000Y-111692081D01*
X149860000Y-111692081D02*
X149860000Y-110490000D01*
X140970000Y-113030000D02*
X148522081Y-113030000D01*
X139700000Y-111760000D02*
X140970000Y-113030000D01*
X139700000Y-110490000D02*
X139700000Y-111760000D01*
%TO.N,Net-(J3-Pin_2)*%
X140970000Y-106680000D02*
X139700000Y-105410000D01*
X148522081Y-106680000D02*
X140970000Y-106680000D01*
X149860000Y-105342081D02*
X148522081Y-106680000D01*
X149860000Y-104140000D02*
X149860000Y-105342081D01*
X139700000Y-105410000D02*
X139700000Y-104140000D01*
%TO.N,Net-(J2-Pin_2)*%
X140970000Y-100330000D02*
X139700000Y-99060000D01*
X148522081Y-100330000D02*
X140970000Y-100330000D01*
X149860000Y-98992081D02*
X148522081Y-100330000D01*
X139700000Y-99060000D02*
X139700000Y-97790000D01*
%TO.N,Net-(J1-Pin_2)*%
X140970000Y-93980000D02*
X139700000Y-92710000D01*
X148522081Y-93980000D02*
X140970000Y-93980000D01*
X149860000Y-92642081D02*
X148522081Y-93980000D01*
X149860000Y-91440000D02*
X149860000Y-92642081D01*
X139700000Y-92710000D02*
X139700000Y-91440000D01*
D25*
%TO.N,PWM4*%
X156675000Y-80999745D02*
X156675000Y-112565000D01*
X152990255Y-77315000D02*
X156675000Y-80999745D01*
X152400000Y-76200000D02*
X151285000Y-77315000D01*
X151285000Y-77315000D02*
X152990255Y-77315000D01*
X156675000Y-112565000D02*
X152400000Y-116840000D01*
%TO.N,PWM3*%
X155725000Y-107165000D02*
X152400000Y-110490000D01*
X155725000Y-82065000D02*
X155725000Y-107165000D01*
X152400000Y-78740000D02*
X155725000Y-82065000D01*
%TO.N,PWM2*%
X154775000Y-101765000D02*
X152400000Y-104140000D01*
X154775000Y-83655000D02*
X154775000Y-101765000D01*
X152400000Y-81280000D02*
X154775000Y-83655000D01*
%TO.N,PWM1*%
X153825000Y-96365000D02*
X152400000Y-97790000D01*
X153825000Y-85245000D02*
X153825000Y-96365000D01*
X152400000Y-83820000D02*
X153825000Y-85245000D01*
%TO.N,PWM0*%
X152400000Y-86360000D02*
X152400000Y-91440000D01*
D26*
%TO.N,Net-(D3-A)*%
X114150000Y-99060000D02*
X119380000Y-104290000D01*
%TO.N,RelayControl*%
X114300000Y-106680000D02*
X111760000Y-109220000D01*
X116840000Y-106680000D02*
X114300000Y-106680000D01*
X111760000Y-109220000D02*
X106680000Y-109220000D01*
%TO.N,Net-(D3-A)*%
X119380000Y-106680000D02*
X118110000Y-107950000D01*
X119380000Y-104290000D02*
X119380000Y-106680000D01*
X118110000Y-107950000D02*
X116840000Y-107950000D01*
X116690000Y-96520000D02*
X114150000Y-99060000D01*
X127000000Y-100044366D02*
X123475634Y-96520000D01*
X127000000Y-101600000D02*
X127000000Y-100044366D01*
X123475634Y-96520000D02*
X116690000Y-96520000D01*
%TO.N,Net-(D2-K)*%
X121920000Y-111760000D02*
X127000000Y-111760000D01*
%TO.N,VCC*%
X116840000Y-111760000D02*
X121750000Y-106850000D01*
X111760000Y-111760000D02*
X116840000Y-111760000D01*
X106680000Y-111760000D02*
X111760000Y-111760000D01*
X121750000Y-99060000D02*
X121750000Y-106850000D01*
D24*
%TO.N,Net-(D1-A)*%
X121600000Y-83810000D02*
X124630000Y-83810000D01*
X124630000Y-83810000D02*
X127160000Y-81280000D01*
%TO.N,5V*%
X114300000Y-86360000D02*
X114290000Y-86370000D01*
%TD*%
%TA.AperFunction,Conductor*%
%TO.N,5V*%
G36*
X116148039Y-76219685D02*
G01*
X116193794Y-76272489D01*
X116205000Y-76324000D01*
X116205000Y-85966087D01*
X116185315Y-86033126D01*
X116132511Y-86078881D01*
X116063353Y-86088825D01*
X115999797Y-86059800D01*
X115962023Y-86001022D01*
X115960109Y-85993680D01*
X115929031Y-85857522D01*
X115929026Y-85857505D01*
X115835941Y-85620328D01*
X115835942Y-85620328D01*
X115708544Y-85399671D01*
X115666545Y-85347005D01*
X115016660Y-85996890D01*
X114929423Y-85858052D01*
X114801948Y-85730577D01*
X114663108Y-85643338D01*
X115313185Y-84993261D01*
X115152377Y-84883624D01*
X115152376Y-84883623D01*
X114922823Y-84773078D01*
X114922825Y-84773078D01*
X114679347Y-84697975D01*
X114679341Y-84697973D01*
X114427404Y-84660000D01*
X114172595Y-84660000D01*
X113920658Y-84697973D01*
X113920652Y-84697975D01*
X113677175Y-84773078D01*
X113447624Y-84883623D01*
X113447616Y-84883628D01*
X113286813Y-84993261D01*
X113936891Y-85643338D01*
X113798052Y-85730577D01*
X113670577Y-85858052D01*
X113583338Y-85996891D01*
X112933453Y-85347006D01*
X112891455Y-85399670D01*
X112764058Y-85620328D01*
X112670973Y-85857505D01*
X112670968Y-85857522D01*
X112614273Y-86105920D01*
X112595233Y-86359995D01*
X112595233Y-86360004D01*
X112614273Y-86614079D01*
X112670968Y-86862477D01*
X112670973Y-86862494D01*
X112764058Y-87099671D01*
X112764057Y-87099671D01*
X112891455Y-87320328D01*
X112977868Y-87428687D01*
X113004277Y-87493374D01*
X112991520Y-87562069D01*
X112943650Y-87612963D01*
X112880921Y-87630000D01*
X107845389Y-87630000D01*
X107778350Y-87610315D01*
X107772790Y-87606455D01*
X107772334Y-87606206D01*
X107772331Y-87606204D01*
X107772326Y-87606202D01*
X107640401Y-87556997D01*
X107584467Y-87515126D01*
X107560050Y-87449662D01*
X107574902Y-87381389D01*
X107596053Y-87353133D01*
X107718108Y-87231078D01*
X107853600Y-87037578D01*
X107953429Y-86823492D01*
X107953432Y-86823486D01*
X108010636Y-86610000D01*
X107113686Y-86610000D01*
X107139493Y-86569844D01*
X107180000Y-86431889D01*
X107180000Y-86288111D01*
X107139493Y-86150156D01*
X107113686Y-86110000D01*
X108010636Y-86110000D01*
X108010635Y-86109999D01*
X107953432Y-85896513D01*
X107953429Y-85896507D01*
X107853600Y-85682422D01*
X107853599Y-85682420D01*
X107718113Y-85488926D01*
X107718108Y-85488920D01*
X107551082Y-85321894D01*
X107357578Y-85186399D01*
X107143492Y-85086570D01*
X107143486Y-85086567D01*
X106930000Y-85029364D01*
X106930000Y-85924498D01*
X106822315Y-85875320D01*
X106715763Y-85860000D01*
X106644237Y-85860000D01*
X106537685Y-85875320D01*
X106430000Y-85924498D01*
X106430000Y-85029364D01*
X106429999Y-85029364D01*
X106216513Y-85086567D01*
X106216507Y-85086570D01*
X106002422Y-85186399D01*
X106002420Y-85186400D01*
X105808926Y-85321886D01*
X105808920Y-85321891D01*
X105641891Y-85488920D01*
X105641886Y-85488926D01*
X105506400Y-85682420D01*
X105506399Y-85682422D01*
X105406570Y-85896507D01*
X105406567Y-85896513D01*
X105349364Y-86109999D01*
X105349364Y-86110000D01*
X106246314Y-86110000D01*
X106220507Y-86150156D01*
X106180000Y-86288111D01*
X106180000Y-86431889D01*
X106220507Y-86569844D01*
X106246314Y-86610000D01*
X105349364Y-86610000D01*
X105406567Y-86823486D01*
X105406570Y-86823492D01*
X105506399Y-87037578D01*
X105641894Y-87231082D01*
X105763946Y-87353134D01*
X105797431Y-87414457D01*
X105792447Y-87484149D01*
X105750575Y-87540082D01*
X105719598Y-87556997D01*
X105587673Y-87606202D01*
X105579891Y-87610452D01*
X105579066Y-87608942D01*
X105523457Y-87629684D01*
X105514611Y-87630000D01*
X103629000Y-87630000D01*
X103561961Y-87610315D01*
X103516206Y-87557511D01*
X103505000Y-87506000D01*
X103505000Y-80080207D01*
X103524685Y-80013168D01*
X103565203Y-79973878D01*
X109822192Y-76219685D01*
X109825548Y-76217670D01*
X109889345Y-76200000D01*
X116081000Y-76200000D01*
X116148039Y-76219685D01*
G37*
%TD.AperFunction*%
%TD*%
%TA.AperFunction,Conductor*%
%TO.N,Net-(D1-A)*%
G36*
X129483039Y-76219685D02*
G01*
X129528794Y-76272489D01*
X129540000Y-76324000D01*
X129540000Y-87506000D01*
X129520315Y-87573039D01*
X129467511Y-87618794D01*
X129416000Y-87630000D01*
X118234000Y-87630000D01*
X118166961Y-87610315D01*
X118121206Y-87557511D01*
X118110000Y-87506000D01*
X118110000Y-83810004D01*
X119895233Y-83810004D01*
X119914273Y-84064079D01*
X119970968Y-84312477D01*
X119970973Y-84312494D01*
X120064058Y-84549671D01*
X120064057Y-84549671D01*
X120191457Y-84770332D01*
X120233452Y-84822993D01*
X120233453Y-84822993D01*
X120883338Y-84173108D01*
X120970577Y-84311948D01*
X121098052Y-84439423D01*
X121236890Y-84526661D01*
X120586813Y-85176737D01*
X120747623Y-85286375D01*
X120747624Y-85286376D01*
X120977176Y-85396921D01*
X120977174Y-85396921D01*
X121220652Y-85472024D01*
X121220658Y-85472026D01*
X121472595Y-85509999D01*
X121472604Y-85510000D01*
X121727396Y-85510000D01*
X121727404Y-85509999D01*
X121979341Y-85472026D01*
X121979347Y-85472024D01*
X122222824Y-85396921D01*
X122452381Y-85286373D01*
X122613185Y-85176737D01*
X121963108Y-84526661D01*
X122101948Y-84439423D01*
X122229423Y-84311948D01*
X122316661Y-84173108D01*
X122966545Y-84822993D01*
X123008545Y-84770327D01*
X123135941Y-84549671D01*
X123229026Y-84312494D01*
X123229031Y-84312477D01*
X123285726Y-84064079D01*
X123304767Y-83810004D01*
X123304767Y-83809995D01*
X123285726Y-83555920D01*
X123229031Y-83307522D01*
X123229026Y-83307505D01*
X123135941Y-83070328D01*
X123135942Y-83070328D01*
X123008544Y-82849671D01*
X122966546Y-82797006D01*
X122316661Y-83446890D01*
X122229423Y-83308052D01*
X122101948Y-83180577D01*
X121963108Y-83093338D01*
X122613185Y-82443261D01*
X122452377Y-82333624D01*
X122452376Y-82333623D01*
X122222823Y-82223078D01*
X122222825Y-82223078D01*
X121979347Y-82147975D01*
X121979341Y-82147973D01*
X121727404Y-82110000D01*
X121472595Y-82110000D01*
X121220658Y-82147973D01*
X121220652Y-82147975D01*
X120977175Y-82223078D01*
X120747624Y-82333623D01*
X120747616Y-82333628D01*
X120586813Y-82443261D01*
X121236891Y-83093338D01*
X121098052Y-83180577D01*
X120970577Y-83308052D01*
X120883338Y-83446891D01*
X120233453Y-82797006D01*
X120191455Y-82849670D01*
X120064058Y-83070328D01*
X119970973Y-83307505D01*
X119970968Y-83307522D01*
X119914273Y-83555920D01*
X119895233Y-83809995D01*
X119895233Y-83810004D01*
X118110000Y-83810004D01*
X118110000Y-81029999D01*
X125072192Y-81029999D01*
X125072193Y-81030000D01*
X126399917Y-81030000D01*
X126375123Y-81100857D01*
X126354938Y-81280000D01*
X126375123Y-81459143D01*
X126399917Y-81530000D01*
X125072193Y-81530000D01*
X125074697Y-81566619D01*
X125133146Y-81847888D01*
X125133150Y-81847902D01*
X125229355Y-82118595D01*
X125361527Y-82373676D01*
X125527204Y-82608385D01*
X125527204Y-82608386D01*
X125723288Y-82818341D01*
X125946135Y-82999641D01*
X125946146Y-82999648D01*
X126191607Y-83148917D01*
X126455108Y-83263371D01*
X126731737Y-83340879D01*
X126731746Y-83340881D01*
X126909999Y-83365380D01*
X126910000Y-83365380D01*
X126910000Y-82040083D01*
X126980857Y-82064877D01*
X127115074Y-82080000D01*
X127204926Y-82080000D01*
X127339143Y-82064877D01*
X127410000Y-82040083D01*
X127410000Y-83365380D01*
X127588253Y-83340881D01*
X127588262Y-83340879D01*
X127864891Y-83263371D01*
X128128392Y-83148917D01*
X128373853Y-82999648D01*
X128373864Y-82999641D01*
X128596711Y-82818341D01*
X128792795Y-82608386D01*
X128792795Y-82608385D01*
X128958472Y-82373676D01*
X129090644Y-82118595D01*
X129186849Y-81847902D01*
X129186853Y-81847888D01*
X129245302Y-81566619D01*
X129247807Y-81530000D01*
X127920083Y-81530000D01*
X127944877Y-81459143D01*
X127965062Y-81280000D01*
X127944877Y-81100857D01*
X127920083Y-81030000D01*
X129247807Y-81030000D01*
X129247807Y-81029999D01*
X129245302Y-80993380D01*
X129186853Y-80712111D01*
X129186849Y-80712097D01*
X129090644Y-80441404D01*
X128958472Y-80186323D01*
X128792795Y-79951614D01*
X128792795Y-79951613D01*
X128596711Y-79741658D01*
X128373864Y-79560358D01*
X128373853Y-79560351D01*
X128128392Y-79411082D01*
X127864891Y-79296628D01*
X127588262Y-79219120D01*
X127588255Y-79219119D01*
X127410000Y-79194618D01*
X127410000Y-80519916D01*
X127339143Y-80495123D01*
X127204926Y-80480000D01*
X127115074Y-80480000D01*
X126980857Y-80495123D01*
X126910000Y-80519916D01*
X126910000Y-79194618D01*
X126731744Y-79219119D01*
X126731737Y-79219120D01*
X126455108Y-79296628D01*
X126191607Y-79411082D01*
X125946146Y-79560351D01*
X125946135Y-79560358D01*
X125723288Y-79741658D01*
X125527204Y-79951613D01*
X125527204Y-79951614D01*
X125361527Y-80186323D01*
X125229355Y-80441404D01*
X125133150Y-80712097D01*
X125133146Y-80712111D01*
X125074697Y-80993380D01*
X125072192Y-81029999D01*
X118110000Y-81029999D01*
X118110000Y-76324000D01*
X118129685Y-76256961D01*
X118182489Y-76211206D01*
X118234000Y-76200000D01*
X129416000Y-76200000D01*
X129483039Y-76219685D01*
G37*
%TD.AperFunction*%
%TD*%
%TA.AperFunction,Conductor*%
%TO.N,Net-(D1-K)*%
G36*
X149168039Y-76219685D02*
G01*
X149213794Y-76272489D01*
X149225000Y-76324000D01*
X149225000Y-79155795D01*
X149205315Y-79222834D01*
X149152511Y-79268589D01*
X149083353Y-79278533D01*
X149026690Y-79255063D01*
X149002088Y-79236646D01*
X149002086Y-79236645D01*
X148867379Y-79186403D01*
X148867372Y-79186401D01*
X148807844Y-79180000D01*
X147410000Y-79180000D01*
X147410000Y-80519916D01*
X147339143Y-80495123D01*
X147204926Y-80480000D01*
X147115074Y-80480000D01*
X146980857Y-80495123D01*
X146910000Y-80519916D01*
X146910000Y-79180000D01*
X145512155Y-79180000D01*
X145452627Y-79186401D01*
X145452620Y-79186403D01*
X145317913Y-79236645D01*
X145317906Y-79236649D01*
X145202812Y-79322809D01*
X145202809Y-79322812D01*
X145116649Y-79437906D01*
X145116645Y-79437913D01*
X145066403Y-79572620D01*
X145066401Y-79572627D01*
X145060000Y-79632155D01*
X145060000Y-81030000D01*
X146399917Y-81030000D01*
X146375123Y-81100857D01*
X146354938Y-81280000D01*
X146375123Y-81459143D01*
X146399917Y-81530000D01*
X145060000Y-81530000D01*
X145060000Y-82927844D01*
X145066401Y-82987372D01*
X145066403Y-82987379D01*
X145116645Y-83122086D01*
X145116649Y-83122093D01*
X145202809Y-83237187D01*
X145202812Y-83237190D01*
X145317906Y-83323350D01*
X145317913Y-83323354D01*
X145452620Y-83373596D01*
X145452627Y-83373598D01*
X145512155Y-83379999D01*
X145512172Y-83380000D01*
X146910000Y-83380000D01*
X146910000Y-82040083D01*
X146980857Y-82064877D01*
X147115074Y-82080000D01*
X147204926Y-82080000D01*
X147339143Y-82064877D01*
X147410000Y-82040083D01*
X147410000Y-83380000D01*
X148807828Y-83380000D01*
X148807844Y-83379999D01*
X148867372Y-83373598D01*
X148867379Y-83373596D01*
X149002086Y-83323354D01*
X149002089Y-83323352D01*
X149026688Y-83304938D01*
X149092152Y-83280520D01*
X149160425Y-83295371D01*
X149209831Y-83344776D01*
X149225000Y-83404204D01*
X149225000Y-86871000D01*
X149205315Y-86938039D01*
X149152511Y-86983794D01*
X149101000Y-86995000D01*
X140970000Y-86995000D01*
X137155000Y-90805000D01*
X137159666Y-118066269D01*
X137159979Y-119890979D01*
X137140306Y-119958022D01*
X137087510Y-120003786D01*
X137035979Y-120015000D01*
X131569000Y-120015000D01*
X131501961Y-119995315D01*
X131456206Y-119942511D01*
X131445000Y-119891000D01*
X131445000Y-116840002D01*
X133315034Y-116840002D01*
X133334858Y-117066599D01*
X133334860Y-117066610D01*
X133393730Y-117286317D01*
X133393734Y-117286326D01*
X133489865Y-117492481D01*
X133489866Y-117492483D01*
X133540973Y-117565471D01*
X133540974Y-117565472D01*
X134222046Y-116884399D01*
X134234835Y-116965148D01*
X134292359Y-117078045D01*
X134381955Y-117167641D01*
X134494852Y-117225165D01*
X134575599Y-117237953D01*
X133894526Y-117919025D01*
X133894526Y-117919026D01*
X133967512Y-117970131D01*
X133967516Y-117970133D01*
X134173673Y-118066265D01*
X134173682Y-118066269D01*
X134393389Y-118125139D01*
X134393400Y-118125141D01*
X134619998Y-118144966D01*
X134620002Y-118144966D01*
X134846599Y-118125141D01*
X134846610Y-118125139D01*
X135066317Y-118066269D01*
X135066331Y-118066264D01*
X135272478Y-117970136D01*
X135345472Y-117919025D01*
X134664401Y-117237953D01*
X134745148Y-117225165D01*
X134858045Y-117167641D01*
X134947641Y-117078045D01*
X135005165Y-116965148D01*
X135017953Y-116884400D01*
X135699025Y-117565472D01*
X135750136Y-117492478D01*
X135846264Y-117286331D01*
X135846269Y-117286317D01*
X135905139Y-117066610D01*
X135905141Y-117066599D01*
X135924966Y-116840002D01*
X135924966Y-116839997D01*
X135905141Y-116613400D01*
X135905139Y-116613389D01*
X135846269Y-116393682D01*
X135846265Y-116393673D01*
X135750133Y-116187516D01*
X135750131Y-116187512D01*
X135699026Y-116114526D01*
X135699025Y-116114526D01*
X135017953Y-116795598D01*
X135005165Y-116714852D01*
X134947641Y-116601955D01*
X134858045Y-116512359D01*
X134745148Y-116454835D01*
X134664400Y-116442046D01*
X135345472Y-115760974D01*
X135345471Y-115760973D01*
X135272483Y-115709866D01*
X135272481Y-115709865D01*
X135066326Y-115613734D01*
X135066317Y-115613730D01*
X134846610Y-115554860D01*
X134846599Y-115554858D01*
X134620002Y-115535034D01*
X134619998Y-115535034D01*
X134393400Y-115554858D01*
X134393389Y-115554860D01*
X134173682Y-115613730D01*
X134173673Y-115613734D01*
X133967513Y-115709868D01*
X133894527Y-115760972D01*
X133894526Y-115760973D01*
X134575600Y-116442046D01*
X134494852Y-116454835D01*
X134381955Y-116512359D01*
X134292359Y-116601955D01*
X134234835Y-116714852D01*
X134222046Y-116795599D01*
X133540973Y-116114526D01*
X133540972Y-116114527D01*
X133489868Y-116187513D01*
X133393734Y-116393673D01*
X133393730Y-116393682D01*
X133334860Y-116613389D01*
X133334858Y-116613400D01*
X133315034Y-116839997D01*
X133315034Y-116840002D01*
X131445000Y-116840002D01*
X131445000Y-110490002D01*
X133315034Y-110490002D01*
X133334858Y-110716599D01*
X133334860Y-110716610D01*
X133393730Y-110936317D01*
X133393734Y-110936326D01*
X133489865Y-111142481D01*
X133489866Y-111142483D01*
X133540973Y-111215471D01*
X133540974Y-111215472D01*
X134222046Y-110534399D01*
X134234835Y-110615148D01*
X134292359Y-110728045D01*
X134381955Y-110817641D01*
X134494852Y-110875165D01*
X134575599Y-110887953D01*
X133894526Y-111569025D01*
X133894526Y-111569026D01*
X133967512Y-111620131D01*
X133967516Y-111620133D01*
X134173673Y-111716265D01*
X134173682Y-111716269D01*
X134393389Y-111775139D01*
X134393400Y-111775141D01*
X134619998Y-111794966D01*
X134620002Y-111794966D01*
X134846599Y-111775141D01*
X134846610Y-111775139D01*
X135066317Y-111716269D01*
X135066331Y-111716264D01*
X135272478Y-111620136D01*
X135345472Y-111569025D01*
X134664401Y-110887953D01*
X134745148Y-110875165D01*
X134858045Y-110817641D01*
X134947641Y-110728045D01*
X135005165Y-110615148D01*
X135017953Y-110534400D01*
X135699025Y-111215472D01*
X135750136Y-111142478D01*
X135846264Y-110936331D01*
X135846269Y-110936317D01*
X135905139Y-110716610D01*
X135905141Y-110716599D01*
X135924966Y-110490002D01*
X135924966Y-110489997D01*
X135905141Y-110263400D01*
X135905139Y-110263389D01*
X135846269Y-110043682D01*
X135846265Y-110043673D01*
X135750133Y-109837516D01*
X135750131Y-109837512D01*
X135699026Y-109764526D01*
X135699025Y-109764526D01*
X135017953Y-110445598D01*
X135005165Y-110364852D01*
X134947641Y-110251955D01*
X134858045Y-110162359D01*
X134745148Y-110104835D01*
X134664400Y-110092046D01*
X135345472Y-109410974D01*
X135345471Y-109410973D01*
X135272483Y-109359866D01*
X135272481Y-109359865D01*
X135066326Y-109263734D01*
X135066317Y-109263730D01*
X134846610Y-109204860D01*
X134846599Y-109204858D01*
X134620002Y-109185034D01*
X134619998Y-109185034D01*
X134393400Y-109204858D01*
X134393389Y-109204860D01*
X134173682Y-109263730D01*
X134173673Y-109263734D01*
X133967513Y-109359868D01*
X133894527Y-109410972D01*
X133894526Y-109410973D01*
X134575600Y-110092046D01*
X134494852Y-110104835D01*
X134381955Y-110162359D01*
X134292359Y-110251955D01*
X134234835Y-110364852D01*
X134222046Y-110445599D01*
X133540973Y-109764526D01*
X133540972Y-109764527D01*
X133489868Y-109837513D01*
X133393734Y-110043673D01*
X133393730Y-110043682D01*
X133334860Y-110263389D01*
X133334858Y-110263400D01*
X133315034Y-110489997D01*
X133315034Y-110490002D01*
X131445000Y-110490002D01*
X131445000Y-104140002D01*
X133315034Y-104140002D01*
X133334858Y-104366599D01*
X133334860Y-104366610D01*
X133393730Y-104586317D01*
X133393734Y-104586326D01*
X133489865Y-104792481D01*
X133489866Y-104792483D01*
X133540973Y-104865471D01*
X133540974Y-104865472D01*
X134222046Y-104184399D01*
X134234835Y-104265148D01*
X134292359Y-104378045D01*
X134381955Y-104467641D01*
X134494852Y-104525165D01*
X134575599Y-104537953D01*
X133894526Y-105219025D01*
X133894526Y-105219026D01*
X133967512Y-105270131D01*
X133967516Y-105270133D01*
X134173673Y-105366265D01*
X134173682Y-105366269D01*
X134393389Y-105425139D01*
X134393400Y-105425141D01*
X134619998Y-105444966D01*
X134620002Y-105444966D01*
X134846599Y-105425141D01*
X134846610Y-105425139D01*
X135066317Y-105366269D01*
X135066331Y-105366264D01*
X135272478Y-105270136D01*
X135345472Y-105219025D01*
X134664401Y-104537953D01*
X134745148Y-104525165D01*
X134858045Y-104467641D01*
X134947641Y-104378045D01*
X135005165Y-104265148D01*
X135017953Y-104184400D01*
X135699025Y-104865472D01*
X135750136Y-104792478D01*
X135846264Y-104586331D01*
X135846269Y-104586317D01*
X135905139Y-104366610D01*
X135905141Y-104366599D01*
X135924966Y-104140002D01*
X135924966Y-104139997D01*
X135905141Y-103913400D01*
X135905139Y-103913389D01*
X135846269Y-103693682D01*
X135846265Y-103693673D01*
X135750133Y-103487516D01*
X135750131Y-103487512D01*
X135699026Y-103414526D01*
X135699025Y-103414526D01*
X135017953Y-104095598D01*
X135005165Y-104014852D01*
X134947641Y-103901955D01*
X134858045Y-103812359D01*
X134745148Y-103754835D01*
X134664400Y-103742046D01*
X135345472Y-103060974D01*
X135345471Y-103060973D01*
X135272483Y-103009866D01*
X135272481Y-103009865D01*
X135066326Y-102913734D01*
X135066317Y-102913730D01*
X134846610Y-102854860D01*
X134846599Y-102854858D01*
X134620002Y-102835034D01*
X134619998Y-102835034D01*
X134393400Y-102854858D01*
X134393389Y-102854860D01*
X134173682Y-102913730D01*
X134173673Y-102913734D01*
X133967513Y-103009868D01*
X133894527Y-103060972D01*
X133894526Y-103060973D01*
X134575600Y-103742046D01*
X134494852Y-103754835D01*
X134381955Y-103812359D01*
X134292359Y-103901955D01*
X134234835Y-104014852D01*
X134222046Y-104095599D01*
X133540973Y-103414526D01*
X133540972Y-103414527D01*
X133489868Y-103487513D01*
X133393734Y-103693673D01*
X133393730Y-103693682D01*
X133334860Y-103913389D01*
X133334858Y-103913400D01*
X133315034Y-104139997D01*
X133315034Y-104140002D01*
X131445000Y-104140002D01*
X131445000Y-97790002D01*
X133315034Y-97790002D01*
X133334858Y-98016599D01*
X133334860Y-98016610D01*
X133393730Y-98236317D01*
X133393734Y-98236326D01*
X133489865Y-98442481D01*
X133489866Y-98442483D01*
X133540973Y-98515471D01*
X133540974Y-98515472D01*
X134222046Y-97834399D01*
X134234835Y-97915148D01*
X134292359Y-98028045D01*
X134381955Y-98117641D01*
X134494852Y-98175165D01*
X134575599Y-98187953D01*
X133894526Y-98869025D01*
X133894526Y-98869026D01*
X133967512Y-98920131D01*
X133967516Y-98920133D01*
X134173673Y-99016265D01*
X134173682Y-99016269D01*
X134393389Y-99075139D01*
X134393400Y-99075141D01*
X134619998Y-99094966D01*
X134620002Y-99094966D01*
X134846599Y-99075141D01*
X134846610Y-99075139D01*
X135066317Y-99016269D01*
X135066331Y-99016264D01*
X135272478Y-98920136D01*
X135345472Y-98869025D01*
X134664401Y-98187953D01*
X134745148Y-98175165D01*
X134858045Y-98117641D01*
X134947641Y-98028045D01*
X135005165Y-97915148D01*
X135017953Y-97834400D01*
X135699025Y-98515472D01*
X135750136Y-98442478D01*
X135846264Y-98236331D01*
X135846269Y-98236317D01*
X135905139Y-98016610D01*
X135905141Y-98016599D01*
X135924966Y-97790002D01*
X135924966Y-97789997D01*
X135905141Y-97563400D01*
X135905139Y-97563389D01*
X135846269Y-97343682D01*
X135846265Y-97343673D01*
X135750133Y-97137516D01*
X135750131Y-97137512D01*
X135699026Y-97064526D01*
X135699025Y-97064526D01*
X135017953Y-97745598D01*
X135005165Y-97664852D01*
X134947641Y-97551955D01*
X134858045Y-97462359D01*
X134745148Y-97404835D01*
X134664400Y-97392046D01*
X135345472Y-96710974D01*
X135345471Y-96710973D01*
X135272483Y-96659866D01*
X135272481Y-96659865D01*
X135066326Y-96563734D01*
X135066317Y-96563730D01*
X134846610Y-96504860D01*
X134846599Y-96504858D01*
X134620002Y-96485034D01*
X134619998Y-96485034D01*
X134393400Y-96504858D01*
X134393389Y-96504860D01*
X134173682Y-96563730D01*
X134173673Y-96563734D01*
X133967513Y-96659868D01*
X133894527Y-96710972D01*
X133894526Y-96710973D01*
X134575600Y-97392046D01*
X134494852Y-97404835D01*
X134381955Y-97462359D01*
X134292359Y-97551955D01*
X134234835Y-97664852D01*
X134222046Y-97745599D01*
X133540973Y-97064526D01*
X133540972Y-97064527D01*
X133489868Y-97137513D01*
X133393734Y-97343673D01*
X133393730Y-97343682D01*
X133334860Y-97563389D01*
X133334858Y-97563400D01*
X133315034Y-97789997D01*
X133315034Y-97790002D01*
X131445000Y-97790002D01*
X131445000Y-91440002D01*
X133315034Y-91440002D01*
X133334858Y-91666599D01*
X133334860Y-91666610D01*
X133393730Y-91886317D01*
X133393734Y-91886326D01*
X133489865Y-92092481D01*
X133489866Y-92092483D01*
X133540973Y-92165471D01*
X133540974Y-92165472D01*
X134222046Y-91484399D01*
X134234835Y-91565148D01*
X134292359Y-91678045D01*
X134381955Y-91767641D01*
X134494852Y-91825165D01*
X134575599Y-91837953D01*
X133894526Y-92519025D01*
X133894526Y-92519026D01*
X133967512Y-92570131D01*
X133967516Y-92570133D01*
X134173673Y-92666265D01*
X134173682Y-92666269D01*
X134393389Y-92725139D01*
X134393400Y-92725141D01*
X134619998Y-92744966D01*
X134620002Y-92744966D01*
X134846599Y-92725141D01*
X134846610Y-92725139D01*
X135066317Y-92666269D01*
X135066331Y-92666264D01*
X135272478Y-92570136D01*
X135345472Y-92519025D01*
X134664401Y-91837953D01*
X134745148Y-91825165D01*
X134858045Y-91767641D01*
X134947641Y-91678045D01*
X135005165Y-91565148D01*
X135017953Y-91484400D01*
X135699025Y-92165472D01*
X135750136Y-92092478D01*
X135846264Y-91886331D01*
X135846269Y-91886317D01*
X135905139Y-91666610D01*
X135905141Y-91666599D01*
X135924966Y-91440002D01*
X135924966Y-91439997D01*
X135905141Y-91213400D01*
X135905139Y-91213389D01*
X135846269Y-90993682D01*
X135846265Y-90993673D01*
X135750133Y-90787516D01*
X135750131Y-90787512D01*
X135699026Y-90714526D01*
X135699025Y-90714526D01*
X135017953Y-91395598D01*
X135005165Y-91314852D01*
X134947641Y-91201955D01*
X134858045Y-91112359D01*
X134745148Y-91054835D01*
X134664400Y-91042046D01*
X135345472Y-90360974D01*
X135345471Y-90360973D01*
X135272483Y-90309866D01*
X135272481Y-90309865D01*
X135066326Y-90213734D01*
X135066317Y-90213730D01*
X134846610Y-90154860D01*
X134846599Y-90154858D01*
X134620002Y-90135034D01*
X134619998Y-90135034D01*
X134393400Y-90154858D01*
X134393389Y-90154860D01*
X134173682Y-90213730D01*
X134173673Y-90213734D01*
X133967513Y-90309868D01*
X133894527Y-90360972D01*
X133894526Y-90360973D01*
X134575600Y-91042046D01*
X134494852Y-91054835D01*
X134381955Y-91112359D01*
X134292359Y-91201955D01*
X134234835Y-91314852D01*
X134222046Y-91395599D01*
X133540973Y-90714526D01*
X133540972Y-90714527D01*
X133489868Y-90787513D01*
X133393734Y-90993673D01*
X133393730Y-90993682D01*
X133334860Y-91213389D01*
X133334858Y-91213400D01*
X133315034Y-91439997D01*
X133315034Y-91440002D01*
X131445000Y-91440002D01*
X131445000Y-76324000D01*
X131464685Y-76256961D01*
X131517489Y-76211206D01*
X131569000Y-76200000D01*
X149101000Y-76200000D01*
X149168039Y-76219685D01*
G37*
%TD.AperFunction*%
%TD*%
%TA.AperFunction,Conductor*%
%TO.N,Net-(J1-Pin_2)*%
G36*
X146452983Y-90189685D02*
G01*
X146498738Y-90242489D01*
X146508682Y-90311647D01*
X146479657Y-90375203D01*
X146457069Y-90395574D01*
X146448595Y-90401507D01*
X146281505Y-90568597D01*
X146145965Y-90762169D01*
X146145964Y-90762171D01*
X146046098Y-90976335D01*
X146046094Y-90976344D01*
X145984938Y-91204586D01*
X145984936Y-91204596D01*
X145964341Y-91439999D01*
X145964341Y-91440000D01*
X145984936Y-91675403D01*
X145984938Y-91675413D01*
X146046094Y-91903655D01*
X146046096Y-91903659D01*
X146046097Y-91903663D01*
X146129155Y-92081781D01*
X146145965Y-92117830D01*
X146145967Y-92117834D01*
X146215437Y-92217046D01*
X146281505Y-92311401D01*
X146448599Y-92478495D01*
X146525478Y-92532326D01*
X146642165Y-92614032D01*
X146642167Y-92614033D01*
X146642170Y-92614035D01*
X146856337Y-92713903D01*
X147084592Y-92775063D01*
X147261034Y-92790500D01*
X147319999Y-92795659D01*
X147320000Y-92795659D01*
X147320001Y-92795659D01*
X147378966Y-92790500D01*
X147555408Y-92775063D01*
X147783663Y-92713903D01*
X147997830Y-92614035D01*
X148191401Y-92478495D01*
X148358495Y-92311401D01*
X148488730Y-92125405D01*
X148543307Y-92081781D01*
X148612805Y-92074587D01*
X148675160Y-92106110D01*
X148691879Y-92125405D01*
X148821890Y-92311078D01*
X148988917Y-92478105D01*
X149182421Y-92613600D01*
X149396507Y-92713429D01*
X149396516Y-92713433D01*
X149610000Y-92770634D01*
X149610000Y-91875501D01*
X149717685Y-91924680D01*
X149824237Y-91940000D01*
X149895763Y-91940000D01*
X150002315Y-91924680D01*
X150110000Y-91875501D01*
X150110000Y-92770633D01*
X150323483Y-92713433D01*
X150323492Y-92713429D01*
X150537578Y-92613600D01*
X150731078Y-92478108D01*
X150853133Y-92356053D01*
X150914456Y-92322568D01*
X150984148Y-92327552D01*
X151040082Y-92369423D01*
X151056997Y-92400401D01*
X151106202Y-92532326D01*
X151106204Y-92532331D01*
X151106206Y-92532334D01*
X151110452Y-92540109D01*
X151108942Y-92540933D01*
X151129684Y-92596543D01*
X151130000Y-92605389D01*
X151130000Y-95126000D01*
X151110315Y-95193039D01*
X151057511Y-95238794D01*
X151006000Y-95250000D01*
X138554000Y-95250000D01*
X138486961Y-95230315D01*
X138441206Y-95177511D01*
X138430000Y-95126000D01*
X138430000Y-92284085D01*
X138449685Y-92217046D01*
X138502489Y-92171291D01*
X138564809Y-92160557D01*
X138620974Y-92165471D01*
X139302046Y-91484399D01*
X139314835Y-91565148D01*
X139372359Y-91678045D01*
X139461955Y-91767641D01*
X139574852Y-91825165D01*
X139655599Y-91837953D01*
X138974526Y-92519025D01*
X138974526Y-92519026D01*
X139047512Y-92570131D01*
X139047516Y-92570133D01*
X139253673Y-92666265D01*
X139253682Y-92666269D01*
X139473389Y-92725139D01*
X139473400Y-92725141D01*
X139699998Y-92744966D01*
X139700002Y-92744966D01*
X139926599Y-92725141D01*
X139926610Y-92725139D01*
X140146317Y-92666269D01*
X140146331Y-92666264D01*
X140352478Y-92570136D01*
X140425472Y-92519025D01*
X139744401Y-91837953D01*
X139825148Y-91825165D01*
X139938045Y-91767641D01*
X140027641Y-91678045D01*
X140085165Y-91565148D01*
X140097953Y-91484400D01*
X140779025Y-92165472D01*
X140830136Y-92092478D01*
X140926264Y-91886331D01*
X140926269Y-91886317D01*
X140985139Y-91666610D01*
X140985141Y-91666599D01*
X141004966Y-91440002D01*
X141004966Y-91439997D01*
X140985141Y-91213400D01*
X140985139Y-91213389D01*
X140926269Y-90993682D01*
X140926265Y-90993673D01*
X140830133Y-90787516D01*
X140830131Y-90787512D01*
X140779026Y-90714526D01*
X140779025Y-90714526D01*
X140097953Y-91395598D01*
X140085165Y-91314852D01*
X140027641Y-91201955D01*
X139938045Y-91112359D01*
X139825148Y-91054835D01*
X139744400Y-91042046D01*
X140425472Y-90360973D01*
X140420558Y-90304808D01*
X140434324Y-90236308D01*
X140482939Y-90186125D01*
X140544086Y-90170000D01*
X146385944Y-90170000D01*
X146452983Y-90189685D01*
G37*
%TD.AperFunction*%
%TA.AperFunction,Conductor*%
G36*
X138922952Y-90189685D02*
G01*
X138968707Y-90242489D01*
X138979441Y-90304808D01*
X138974526Y-90360973D01*
X139655600Y-91042046D01*
X139574852Y-91054835D01*
X139461955Y-91112359D01*
X139372359Y-91201955D01*
X139314835Y-91314852D01*
X139302046Y-91395599D01*
X138620973Y-90714526D01*
X138564808Y-90719441D01*
X138496308Y-90705675D01*
X138446125Y-90657060D01*
X138430000Y-90595913D01*
X138430000Y-90294000D01*
X138449685Y-90226961D01*
X138502489Y-90181206D01*
X138554000Y-90170000D01*
X138855913Y-90170000D01*
X138922952Y-90189685D01*
G37*
%TD.AperFunction*%
%TD*%
%TA.AperFunction,Conductor*%
%TO.N,Net-(J2-Pin_2)*%
G36*
X151073039Y-95904685D02*
G01*
X151118794Y-95957489D01*
X151130000Y-96009000D01*
X151130000Y-96624610D01*
X151110315Y-96691649D01*
X151106454Y-96697209D01*
X151106202Y-96697671D01*
X151056997Y-96829598D01*
X151015126Y-96885532D01*
X150949661Y-96909949D01*
X150881388Y-96895097D01*
X150853134Y-96873946D01*
X150731082Y-96751894D01*
X150537578Y-96616399D01*
X150323492Y-96516570D01*
X150323486Y-96516567D01*
X150110000Y-96459364D01*
X150110000Y-97354498D01*
X150002315Y-97305320D01*
X149895763Y-97290000D01*
X149824237Y-97290000D01*
X149717685Y-97305320D01*
X149610000Y-97354498D01*
X149610000Y-96459364D01*
X149609999Y-96459364D01*
X149396513Y-96516567D01*
X149396507Y-96516570D01*
X149182422Y-96616399D01*
X149182420Y-96616400D01*
X148988926Y-96751886D01*
X148988920Y-96751891D01*
X148821891Y-96918920D01*
X148821890Y-96918922D01*
X148691880Y-97104595D01*
X148637303Y-97148219D01*
X148567804Y-97155412D01*
X148505450Y-97123890D01*
X148488730Y-97104594D01*
X148358494Y-96918597D01*
X148191402Y-96751506D01*
X148191395Y-96751501D01*
X147997834Y-96615967D01*
X147997830Y-96615965D01*
X147997828Y-96615964D01*
X147783663Y-96516097D01*
X147783659Y-96516096D01*
X147783655Y-96516094D01*
X147555413Y-96454938D01*
X147555403Y-96454936D01*
X147320001Y-96434341D01*
X147319999Y-96434341D01*
X147084596Y-96454936D01*
X147084586Y-96454938D01*
X146856344Y-96516094D01*
X146856335Y-96516098D01*
X146642171Y-96615964D01*
X146642169Y-96615965D01*
X146448597Y-96751505D01*
X146281505Y-96918597D01*
X146145965Y-97112169D01*
X146145964Y-97112171D01*
X146046098Y-97326335D01*
X146046094Y-97326344D01*
X145984938Y-97554586D01*
X145984936Y-97554596D01*
X145964341Y-97789999D01*
X145964341Y-97790000D01*
X145984936Y-98025403D01*
X145984938Y-98025413D01*
X146046094Y-98253655D01*
X146046096Y-98253659D01*
X146046097Y-98253663D01*
X146129155Y-98431781D01*
X146145965Y-98467830D01*
X146145967Y-98467834D01*
X146215437Y-98567046D01*
X146281505Y-98661401D01*
X146448599Y-98828495D01*
X146525478Y-98882326D01*
X146642165Y-98964032D01*
X146642167Y-98964033D01*
X146642170Y-98964035D01*
X146856337Y-99063903D01*
X147084592Y-99125063D01*
X147261034Y-99140500D01*
X147319999Y-99145659D01*
X147320000Y-99145659D01*
X147320001Y-99145659D01*
X147378966Y-99140500D01*
X147555408Y-99125063D01*
X147783663Y-99063903D01*
X147997830Y-98964035D01*
X148191401Y-98828495D01*
X148358495Y-98661401D01*
X148488730Y-98475405D01*
X148543307Y-98431781D01*
X148612805Y-98424587D01*
X148675160Y-98456110D01*
X148691879Y-98475405D01*
X148821890Y-98661078D01*
X148988917Y-98828105D01*
X149182421Y-98963600D01*
X149396507Y-99063429D01*
X149396516Y-99063433D01*
X149610000Y-99120634D01*
X149610000Y-98225501D01*
X149717685Y-98274680D01*
X149824237Y-98290000D01*
X149895763Y-98290000D01*
X150002315Y-98274680D01*
X150110000Y-98225501D01*
X150110000Y-99120633D01*
X150323483Y-99063433D01*
X150323492Y-99063429D01*
X150537578Y-98963600D01*
X150731078Y-98828108D01*
X150853133Y-98706053D01*
X150914456Y-98672568D01*
X150984148Y-98677552D01*
X151040082Y-98719423D01*
X151056997Y-98750401D01*
X151106202Y-98882326D01*
X151106204Y-98882331D01*
X151106206Y-98882334D01*
X151110452Y-98890109D01*
X151108942Y-98890933D01*
X151129684Y-98946543D01*
X151130000Y-98955389D01*
X151130000Y-101476000D01*
X151110315Y-101543039D01*
X151057511Y-101588794D01*
X151006000Y-101600000D01*
X138554000Y-101600000D01*
X138486961Y-101580315D01*
X138441206Y-101527511D01*
X138430000Y-101476000D01*
X138430000Y-98634085D01*
X138449685Y-98567046D01*
X138502489Y-98521291D01*
X138564809Y-98510557D01*
X138620974Y-98515471D01*
X139302046Y-97834399D01*
X139314835Y-97915148D01*
X139372359Y-98028045D01*
X139461955Y-98117641D01*
X139574852Y-98175165D01*
X139655599Y-98187953D01*
X138974526Y-98869025D01*
X138974526Y-98869026D01*
X139047512Y-98920131D01*
X139047516Y-98920133D01*
X139253673Y-99016265D01*
X139253682Y-99016269D01*
X139473389Y-99075139D01*
X139473400Y-99075141D01*
X139699998Y-99094966D01*
X139700002Y-99094966D01*
X139926599Y-99075141D01*
X139926610Y-99075139D01*
X140146317Y-99016269D01*
X140146331Y-99016264D01*
X140352478Y-98920136D01*
X140425472Y-98869025D01*
X139744401Y-98187953D01*
X139825148Y-98175165D01*
X139938045Y-98117641D01*
X140027641Y-98028045D01*
X140085165Y-97915148D01*
X140097953Y-97834400D01*
X140779025Y-98515472D01*
X140830136Y-98442478D01*
X140926264Y-98236331D01*
X140926269Y-98236317D01*
X140985139Y-98016610D01*
X140985141Y-98016599D01*
X141004966Y-97790002D01*
X141004966Y-97789997D01*
X140985141Y-97563400D01*
X140985139Y-97563389D01*
X140926269Y-97343682D01*
X140926265Y-97343673D01*
X140830133Y-97137516D01*
X140830131Y-97137512D01*
X140779026Y-97064526D01*
X140779025Y-97064526D01*
X140097953Y-97745598D01*
X140085165Y-97664852D01*
X140027641Y-97551955D01*
X139938045Y-97462359D01*
X139825148Y-97404835D01*
X139744400Y-97392046D01*
X140425472Y-96710974D01*
X140425471Y-96710973D01*
X140352483Y-96659866D01*
X140352481Y-96659865D01*
X140146326Y-96563734D01*
X140146317Y-96563730D01*
X139926610Y-96504860D01*
X139926599Y-96504858D01*
X139700002Y-96485034D01*
X139699998Y-96485034D01*
X139473400Y-96504858D01*
X139473389Y-96504860D01*
X139253682Y-96563730D01*
X139253673Y-96563734D01*
X139047513Y-96659868D01*
X138974527Y-96710972D01*
X138974526Y-96710973D01*
X139655600Y-97392046D01*
X139574852Y-97404835D01*
X139461955Y-97462359D01*
X139372359Y-97551955D01*
X139314835Y-97664852D01*
X139302046Y-97745599D01*
X138620973Y-97064526D01*
X138564808Y-97069441D01*
X138496308Y-97055675D01*
X138446125Y-97007060D01*
X138430000Y-96945913D01*
X138430000Y-96009000D01*
X138449685Y-95941961D01*
X138502489Y-95896206D01*
X138554000Y-95885000D01*
X151006000Y-95885000D01*
X151073039Y-95904685D01*
G37*
%TD.AperFunction*%
%TD*%
%TA.AperFunction,Conductor*%
%TO.N,Net-(J3-Pin_2)*%
G36*
X151073039Y-102254685D02*
G01*
X151118794Y-102307489D01*
X151130000Y-102359000D01*
X151130000Y-102974610D01*
X151110315Y-103041649D01*
X151106454Y-103047209D01*
X151106202Y-103047671D01*
X151056997Y-103179598D01*
X151015126Y-103235532D01*
X150949661Y-103259949D01*
X150881388Y-103245097D01*
X150853134Y-103223946D01*
X150731082Y-103101894D01*
X150537578Y-102966399D01*
X150323492Y-102866570D01*
X150323486Y-102866567D01*
X150110000Y-102809364D01*
X150110000Y-103704498D01*
X150002315Y-103655320D01*
X149895763Y-103640000D01*
X149824237Y-103640000D01*
X149717685Y-103655320D01*
X149610000Y-103704498D01*
X149610000Y-102809364D01*
X149609999Y-102809364D01*
X149396513Y-102866567D01*
X149396507Y-102866570D01*
X149182422Y-102966399D01*
X149182420Y-102966400D01*
X148988926Y-103101886D01*
X148988920Y-103101891D01*
X148821891Y-103268920D01*
X148821890Y-103268922D01*
X148691880Y-103454595D01*
X148637303Y-103498219D01*
X148567804Y-103505412D01*
X148505450Y-103473890D01*
X148488730Y-103454594D01*
X148358494Y-103268597D01*
X148191402Y-103101506D01*
X148191395Y-103101501D01*
X147997834Y-102965967D01*
X147997830Y-102965965D01*
X147997828Y-102965964D01*
X147783663Y-102866097D01*
X147783659Y-102866096D01*
X147783655Y-102866094D01*
X147555413Y-102804938D01*
X147555403Y-102804936D01*
X147320001Y-102784341D01*
X147319999Y-102784341D01*
X147084596Y-102804936D01*
X147084586Y-102804938D01*
X146856344Y-102866094D01*
X146856335Y-102866098D01*
X146642171Y-102965964D01*
X146642169Y-102965965D01*
X146448597Y-103101505D01*
X146281505Y-103268597D01*
X146145965Y-103462169D01*
X146145964Y-103462171D01*
X146046098Y-103676335D01*
X146046094Y-103676344D01*
X145984938Y-103904586D01*
X145984936Y-103904596D01*
X145964341Y-104139999D01*
X145964341Y-104140000D01*
X145984936Y-104375403D01*
X145984938Y-104375413D01*
X146046094Y-104603655D01*
X146046096Y-104603659D01*
X146046097Y-104603663D01*
X146129155Y-104781781D01*
X146145965Y-104817830D01*
X146145967Y-104817834D01*
X146215437Y-104917046D01*
X146281505Y-105011401D01*
X146448599Y-105178495D01*
X146525478Y-105232326D01*
X146642165Y-105314032D01*
X146642167Y-105314033D01*
X146642170Y-105314035D01*
X146856337Y-105413903D01*
X147084592Y-105475063D01*
X147261034Y-105490500D01*
X147319999Y-105495659D01*
X147320000Y-105495659D01*
X147320001Y-105495659D01*
X147378966Y-105490500D01*
X147555408Y-105475063D01*
X147783663Y-105413903D01*
X147997830Y-105314035D01*
X148191401Y-105178495D01*
X148358495Y-105011401D01*
X148488730Y-104825405D01*
X148543307Y-104781781D01*
X148612805Y-104774587D01*
X148675160Y-104806110D01*
X148691879Y-104825405D01*
X148821890Y-105011078D01*
X148988917Y-105178105D01*
X149182421Y-105313600D01*
X149396507Y-105413429D01*
X149396516Y-105413433D01*
X149610000Y-105470634D01*
X149610000Y-104575501D01*
X149717685Y-104624680D01*
X149824237Y-104640000D01*
X149895763Y-104640000D01*
X150002315Y-104624680D01*
X150110000Y-104575501D01*
X150110000Y-105470633D01*
X150323483Y-105413433D01*
X150323492Y-105413429D01*
X150537578Y-105313600D01*
X150731078Y-105178108D01*
X150853133Y-105056053D01*
X150914456Y-105022568D01*
X150984148Y-105027552D01*
X151040082Y-105069423D01*
X151056997Y-105100401D01*
X151106202Y-105232326D01*
X151106204Y-105232331D01*
X151106206Y-105232334D01*
X151110452Y-105240109D01*
X151108942Y-105240933D01*
X151129684Y-105296543D01*
X151130000Y-105305389D01*
X151130000Y-107826000D01*
X151110315Y-107893039D01*
X151057511Y-107938794D01*
X151006000Y-107950000D01*
X138554000Y-107950000D01*
X138486961Y-107930315D01*
X138441206Y-107877511D01*
X138430000Y-107826000D01*
X138430000Y-104984085D01*
X138449685Y-104917046D01*
X138502489Y-104871291D01*
X138564809Y-104860557D01*
X138620974Y-104865471D01*
X139302046Y-104184399D01*
X139314835Y-104265148D01*
X139372359Y-104378045D01*
X139461955Y-104467641D01*
X139574852Y-104525165D01*
X139655599Y-104537953D01*
X138974526Y-105219025D01*
X138974526Y-105219026D01*
X139047512Y-105270131D01*
X139047516Y-105270133D01*
X139253673Y-105366265D01*
X139253682Y-105366269D01*
X139473389Y-105425139D01*
X139473400Y-105425141D01*
X139699998Y-105444966D01*
X139700002Y-105444966D01*
X139926599Y-105425141D01*
X139926610Y-105425139D01*
X140146317Y-105366269D01*
X140146331Y-105366264D01*
X140352478Y-105270136D01*
X140425472Y-105219025D01*
X139744401Y-104537953D01*
X139825148Y-104525165D01*
X139938045Y-104467641D01*
X140027641Y-104378045D01*
X140085165Y-104265148D01*
X140097953Y-104184400D01*
X140779025Y-104865472D01*
X140830136Y-104792478D01*
X140926264Y-104586331D01*
X140926269Y-104586317D01*
X140985139Y-104366610D01*
X140985141Y-104366599D01*
X141004966Y-104140002D01*
X141004966Y-104139997D01*
X140985141Y-103913400D01*
X140985139Y-103913389D01*
X140926269Y-103693682D01*
X140926265Y-103693673D01*
X140830133Y-103487516D01*
X140830131Y-103487512D01*
X140779026Y-103414526D01*
X140779025Y-103414526D01*
X140097953Y-104095598D01*
X140085165Y-104014852D01*
X140027641Y-103901955D01*
X139938045Y-103812359D01*
X139825148Y-103754835D01*
X139744400Y-103742046D01*
X140425472Y-103060974D01*
X140425471Y-103060973D01*
X140352483Y-103009866D01*
X140352481Y-103009865D01*
X140146326Y-102913734D01*
X140146317Y-102913730D01*
X139926610Y-102854860D01*
X139926599Y-102854858D01*
X139700002Y-102835034D01*
X139699998Y-102835034D01*
X139473400Y-102854858D01*
X139473389Y-102854860D01*
X139253682Y-102913730D01*
X139253673Y-102913734D01*
X139047513Y-103009868D01*
X138974527Y-103060972D01*
X138974526Y-103060973D01*
X139655600Y-103742046D01*
X139574852Y-103754835D01*
X139461955Y-103812359D01*
X139372359Y-103901955D01*
X139314835Y-104014852D01*
X139302046Y-104095599D01*
X138620973Y-103414526D01*
X138564808Y-103419441D01*
X138496308Y-103405675D01*
X138446125Y-103357060D01*
X138430000Y-103295913D01*
X138430000Y-102359000D01*
X138449685Y-102291961D01*
X138502489Y-102246206D01*
X138554000Y-102235000D01*
X151006000Y-102235000D01*
X151073039Y-102254685D01*
G37*
%TD.AperFunction*%
%TD*%
%TA.AperFunction,Conductor*%
%TO.N,Net-(J4-Pin_2)*%
G36*
X151073039Y-108604685D02*
G01*
X151118794Y-108657489D01*
X151130000Y-108709000D01*
X151130000Y-109324610D01*
X151110315Y-109391649D01*
X151106454Y-109397209D01*
X151106202Y-109397671D01*
X151056997Y-109529598D01*
X151015126Y-109585532D01*
X150949661Y-109609949D01*
X150881388Y-109595097D01*
X150853134Y-109573946D01*
X150731082Y-109451894D01*
X150537578Y-109316399D01*
X150323492Y-109216570D01*
X150323486Y-109216567D01*
X150110000Y-109159364D01*
X150110000Y-110054498D01*
X150002315Y-110005320D01*
X149895763Y-109990000D01*
X149824237Y-109990000D01*
X149717685Y-110005320D01*
X149610000Y-110054498D01*
X149610000Y-109159364D01*
X149609999Y-109159364D01*
X149396513Y-109216567D01*
X149396507Y-109216570D01*
X149182422Y-109316399D01*
X149182420Y-109316400D01*
X148988926Y-109451886D01*
X148988920Y-109451891D01*
X148821891Y-109618920D01*
X148821890Y-109618922D01*
X148691880Y-109804595D01*
X148637303Y-109848219D01*
X148567804Y-109855412D01*
X148505450Y-109823890D01*
X148488730Y-109804594D01*
X148358494Y-109618597D01*
X148191402Y-109451506D01*
X148191395Y-109451501D01*
X147997834Y-109315967D01*
X147997830Y-109315965D01*
X147997828Y-109315964D01*
X147783663Y-109216097D01*
X147783659Y-109216096D01*
X147783655Y-109216094D01*
X147555413Y-109154938D01*
X147555403Y-109154936D01*
X147320001Y-109134341D01*
X147319999Y-109134341D01*
X147084596Y-109154936D01*
X147084586Y-109154938D01*
X146856344Y-109216094D01*
X146856335Y-109216098D01*
X146642171Y-109315964D01*
X146642169Y-109315965D01*
X146448597Y-109451505D01*
X146281505Y-109618597D01*
X146145965Y-109812169D01*
X146145964Y-109812171D01*
X146046098Y-110026335D01*
X146046094Y-110026344D01*
X145984938Y-110254586D01*
X145984936Y-110254596D01*
X145964341Y-110489999D01*
X145964341Y-110490000D01*
X145984936Y-110725403D01*
X145984938Y-110725413D01*
X146046094Y-110953655D01*
X146046096Y-110953659D01*
X146046097Y-110953663D01*
X146129155Y-111131781D01*
X146145965Y-111167830D01*
X146145967Y-111167834D01*
X146215437Y-111267046D01*
X146281505Y-111361401D01*
X146448599Y-111528495D01*
X146525478Y-111582326D01*
X146642165Y-111664032D01*
X146642167Y-111664033D01*
X146642170Y-111664035D01*
X146856337Y-111763903D01*
X147084592Y-111825063D01*
X147261034Y-111840500D01*
X147319999Y-111845659D01*
X147320000Y-111845659D01*
X147320001Y-111845659D01*
X147378966Y-111840500D01*
X147555408Y-111825063D01*
X147783663Y-111763903D01*
X147997830Y-111664035D01*
X148191401Y-111528495D01*
X148358495Y-111361401D01*
X148488730Y-111175405D01*
X148543307Y-111131781D01*
X148612805Y-111124587D01*
X148675160Y-111156110D01*
X148691879Y-111175405D01*
X148821890Y-111361078D01*
X148988917Y-111528105D01*
X149182421Y-111663600D01*
X149396507Y-111763429D01*
X149396516Y-111763433D01*
X149610000Y-111820634D01*
X149610000Y-110925501D01*
X149717685Y-110974680D01*
X149824237Y-110990000D01*
X149895763Y-110990000D01*
X150002315Y-110974680D01*
X150110000Y-110925501D01*
X150110000Y-111820633D01*
X150323483Y-111763433D01*
X150323492Y-111763429D01*
X150537578Y-111663600D01*
X150731078Y-111528108D01*
X150853133Y-111406053D01*
X150914456Y-111372568D01*
X150984148Y-111377552D01*
X151040082Y-111419423D01*
X151056997Y-111450401D01*
X151106202Y-111582326D01*
X151106204Y-111582331D01*
X151106206Y-111582334D01*
X151110452Y-111590109D01*
X151108942Y-111590933D01*
X151129684Y-111646543D01*
X151130000Y-111655389D01*
X151130000Y-114176000D01*
X151110315Y-114243039D01*
X151057511Y-114288794D01*
X151006000Y-114300000D01*
X138554000Y-114300000D01*
X138486961Y-114280315D01*
X138441206Y-114227511D01*
X138430000Y-114176000D01*
X138430000Y-111334085D01*
X138449685Y-111267046D01*
X138502489Y-111221291D01*
X138564809Y-111210557D01*
X138620974Y-111215471D01*
X139302046Y-110534399D01*
X139314835Y-110615148D01*
X139372359Y-110728045D01*
X139461955Y-110817641D01*
X139574852Y-110875165D01*
X139655599Y-110887953D01*
X138974526Y-111569025D01*
X138974526Y-111569026D01*
X139047512Y-111620131D01*
X139047516Y-111620133D01*
X139253673Y-111716265D01*
X139253682Y-111716269D01*
X139473389Y-111775139D01*
X139473400Y-111775141D01*
X139699998Y-111794966D01*
X139700002Y-111794966D01*
X139926599Y-111775141D01*
X139926610Y-111775139D01*
X140146317Y-111716269D01*
X140146331Y-111716264D01*
X140352478Y-111620136D01*
X140425472Y-111569025D01*
X139744401Y-110887953D01*
X139825148Y-110875165D01*
X139938045Y-110817641D01*
X140027641Y-110728045D01*
X140085165Y-110615148D01*
X140097953Y-110534400D01*
X140779025Y-111215472D01*
X140830136Y-111142478D01*
X140926264Y-110936331D01*
X140926269Y-110936317D01*
X140985139Y-110716610D01*
X140985141Y-110716599D01*
X141004966Y-110490002D01*
X141004966Y-110489997D01*
X140985141Y-110263400D01*
X140985139Y-110263389D01*
X140926269Y-110043682D01*
X140926265Y-110043673D01*
X140830133Y-109837516D01*
X140830131Y-109837512D01*
X140779026Y-109764526D01*
X140779025Y-109764526D01*
X140097953Y-110445598D01*
X140085165Y-110364852D01*
X140027641Y-110251955D01*
X139938045Y-110162359D01*
X139825148Y-110104835D01*
X139744400Y-110092046D01*
X140425472Y-109410974D01*
X140425471Y-109410973D01*
X140352483Y-109359866D01*
X140352481Y-109359865D01*
X140146326Y-109263734D01*
X140146317Y-109263730D01*
X139926610Y-109204860D01*
X139926599Y-109204858D01*
X139700002Y-109185034D01*
X139699998Y-109185034D01*
X139473400Y-109204858D01*
X139473389Y-109204860D01*
X139253682Y-109263730D01*
X139253673Y-109263734D01*
X139047513Y-109359868D01*
X138974527Y-109410972D01*
X138974526Y-109410973D01*
X139655600Y-110092046D01*
X139574852Y-110104835D01*
X139461955Y-110162359D01*
X139372359Y-110251955D01*
X139314835Y-110364852D01*
X139302046Y-110445599D01*
X138620973Y-109764526D01*
X138564808Y-109769441D01*
X138496308Y-109755675D01*
X138446125Y-109707060D01*
X138430000Y-109645913D01*
X138430000Y-108709000D01*
X138449685Y-108641961D01*
X138502489Y-108596206D01*
X138554000Y-108585000D01*
X151006000Y-108585000D01*
X151073039Y-108604685D01*
G37*
%TD.AperFunction*%
%TD*%
%TA.AperFunction,Conductor*%
%TO.N,Net-(J5-Pin_2)*%
G36*
X151073039Y-114954685D02*
G01*
X151118794Y-115007489D01*
X151130000Y-115059000D01*
X151130000Y-115674610D01*
X151110315Y-115741649D01*
X151106454Y-115747209D01*
X151106202Y-115747671D01*
X151056997Y-115879598D01*
X151015126Y-115935532D01*
X150949661Y-115959949D01*
X150881388Y-115945097D01*
X150853134Y-115923946D01*
X150731082Y-115801894D01*
X150537578Y-115666399D01*
X150323492Y-115566570D01*
X150323486Y-115566567D01*
X150110000Y-115509364D01*
X150110000Y-116404498D01*
X150002315Y-116355320D01*
X149895763Y-116340000D01*
X149824237Y-116340000D01*
X149717685Y-116355320D01*
X149610000Y-116404498D01*
X149610000Y-115509364D01*
X149609999Y-115509364D01*
X149396513Y-115566567D01*
X149396507Y-115566570D01*
X149182422Y-115666399D01*
X149182420Y-115666400D01*
X148988926Y-115801886D01*
X148988920Y-115801891D01*
X148821891Y-115968920D01*
X148821890Y-115968922D01*
X148691880Y-116154595D01*
X148637303Y-116198219D01*
X148567804Y-116205412D01*
X148505450Y-116173890D01*
X148488730Y-116154594D01*
X148358494Y-115968597D01*
X148191402Y-115801506D01*
X148191395Y-115801501D01*
X147997834Y-115665967D01*
X147997830Y-115665965D01*
X147997828Y-115665964D01*
X147783663Y-115566097D01*
X147783659Y-115566096D01*
X147783655Y-115566094D01*
X147555413Y-115504938D01*
X147555403Y-115504936D01*
X147320001Y-115484341D01*
X147319999Y-115484341D01*
X147084596Y-115504936D01*
X147084586Y-115504938D01*
X146856344Y-115566094D01*
X146856335Y-115566098D01*
X146642171Y-115665964D01*
X146642169Y-115665965D01*
X146448597Y-115801505D01*
X146281505Y-115968597D01*
X146145965Y-116162169D01*
X146145964Y-116162171D01*
X146046098Y-116376335D01*
X146046094Y-116376344D01*
X145984938Y-116604586D01*
X145984936Y-116604596D01*
X145964341Y-116839999D01*
X145964341Y-116840000D01*
X145984936Y-117075403D01*
X145984938Y-117075413D01*
X146046094Y-117303655D01*
X146046096Y-117303659D01*
X146046097Y-117303663D01*
X146129155Y-117481781D01*
X146145965Y-117517830D01*
X146145967Y-117517834D01*
X146215437Y-117617046D01*
X146281505Y-117711401D01*
X146448599Y-117878495D01*
X146525478Y-117932326D01*
X146642165Y-118014032D01*
X146642167Y-118014033D01*
X146642170Y-118014035D01*
X146856337Y-118113903D01*
X147084592Y-118175063D01*
X147261034Y-118190500D01*
X147319999Y-118195659D01*
X147320000Y-118195659D01*
X147320001Y-118195659D01*
X147378966Y-118190500D01*
X147555408Y-118175063D01*
X147783663Y-118113903D01*
X147997830Y-118014035D01*
X148191401Y-117878495D01*
X148358495Y-117711401D01*
X148488730Y-117525405D01*
X148543307Y-117481781D01*
X148612805Y-117474587D01*
X148675160Y-117506110D01*
X148691879Y-117525405D01*
X148821890Y-117711078D01*
X148988917Y-117878105D01*
X149182421Y-118013600D01*
X149396507Y-118113429D01*
X149396516Y-118113433D01*
X149610000Y-118170634D01*
X149610000Y-117275501D01*
X149717685Y-117324680D01*
X149824237Y-117340000D01*
X149895763Y-117340000D01*
X150002315Y-117324680D01*
X150110000Y-117275501D01*
X150110000Y-118170633D01*
X150323483Y-118113433D01*
X150323492Y-118113429D01*
X150537578Y-118013600D01*
X150731078Y-117878108D01*
X150853133Y-117756053D01*
X150914456Y-117722568D01*
X150984148Y-117727552D01*
X151040082Y-117769423D01*
X151056997Y-117800401D01*
X151106202Y-117932326D01*
X151106204Y-117932331D01*
X151106206Y-117932334D01*
X151110452Y-117940109D01*
X151108942Y-117940933D01*
X151129684Y-117996543D01*
X151130000Y-118005389D01*
X151130000Y-120526000D01*
X151110315Y-120593039D01*
X151057511Y-120638794D01*
X151006000Y-120650000D01*
X138554000Y-120650000D01*
X138486961Y-120630315D01*
X138441206Y-120577511D01*
X138430000Y-120526000D01*
X138430000Y-117684085D01*
X138449685Y-117617046D01*
X138502489Y-117571291D01*
X138564809Y-117560557D01*
X138620974Y-117565471D01*
X139302046Y-116884399D01*
X139314835Y-116965148D01*
X139372359Y-117078045D01*
X139461955Y-117167641D01*
X139574852Y-117225165D01*
X139655599Y-117237953D01*
X138974526Y-117919025D01*
X138974526Y-117919026D01*
X139047512Y-117970131D01*
X139047516Y-117970133D01*
X139253673Y-118066265D01*
X139253682Y-118066269D01*
X139473389Y-118125139D01*
X139473400Y-118125141D01*
X139699998Y-118144966D01*
X139700002Y-118144966D01*
X139926599Y-118125141D01*
X139926610Y-118125139D01*
X140146317Y-118066269D01*
X140146331Y-118066264D01*
X140352478Y-117970136D01*
X140425472Y-117919025D01*
X139744401Y-117237953D01*
X139825148Y-117225165D01*
X139938045Y-117167641D01*
X140027641Y-117078045D01*
X140085165Y-116965148D01*
X140097953Y-116884400D01*
X140779025Y-117565472D01*
X140830136Y-117492478D01*
X140926264Y-117286331D01*
X140926269Y-117286317D01*
X140985139Y-117066610D01*
X140985141Y-117066599D01*
X141004966Y-116840002D01*
X141004966Y-116839997D01*
X140985141Y-116613400D01*
X140985139Y-116613389D01*
X140926269Y-116393682D01*
X140926265Y-116393673D01*
X140830133Y-116187516D01*
X140830131Y-116187512D01*
X140779026Y-116114526D01*
X140779025Y-116114526D01*
X140097953Y-116795598D01*
X140085165Y-116714852D01*
X140027641Y-116601955D01*
X139938045Y-116512359D01*
X139825148Y-116454835D01*
X139744400Y-116442046D01*
X140425472Y-115760974D01*
X140425471Y-115760973D01*
X140352483Y-115709866D01*
X140352481Y-115709865D01*
X140146326Y-115613734D01*
X140146317Y-115613730D01*
X139926610Y-115554860D01*
X139926599Y-115554858D01*
X139700002Y-115535034D01*
X139699998Y-115535034D01*
X139473400Y-115554858D01*
X139473389Y-115554860D01*
X139253682Y-115613730D01*
X139253673Y-115613734D01*
X139047513Y-115709868D01*
X138974527Y-115760972D01*
X138974526Y-115760973D01*
X139655600Y-116442046D01*
X139574852Y-116454835D01*
X139461955Y-116512359D01*
X139372359Y-116601955D01*
X139314835Y-116714852D01*
X139302046Y-116795599D01*
X138620973Y-116114526D01*
X138564808Y-116119441D01*
X138496308Y-116105675D01*
X138446125Y-116057060D01*
X138430000Y-115995913D01*
X138430000Y-115059000D01*
X138449685Y-114991961D01*
X138502489Y-114946206D01*
X138554000Y-114935000D01*
X151006000Y-114935000D01*
X151073039Y-114954685D01*
G37*
%TD.AperFunction*%
%TD*%
M02*
