%TF.GenerationSoftware,KiCad,Pcbnew,7.0.9*%
%TF.CreationDate,2024-02-06T23:46:42-08:00*%
%TF.ProjectId,AaronMotorDriver,4161726f-6e4d-46f7-946f-724472697665,rev?*%
%TF.SameCoordinates,Original*%
%TF.FileFunction,Drillmap*%
%TF.FilePolarity,Positive*%
%FSLAX45Y45*%
G04 Gerber Fmt 4.5, Leading zero omitted, Abs format (unit mm)*
G04 Created by KiCad (PCBNEW 7.0.9) date 2024-02-06 23:46:42*
%MOMM*%
%LPD*%
G01*
G04 APERTURE LIST*
%ADD10C,0.200000*%
%ADD11C,0.320000*%
G04 APERTURE END LIST*
D10*
X16700500Y-7112000D02*
X16700500Y-12128500D01*
X9652000Y-7112000D02*
X16700500Y-7112000D01*
X9652000Y-12128500D02*
X9652000Y-7112000D01*
X16700500Y-12128500D02*
X9652000Y-12128500D01*
D11*
X9936500Y-7460000D02*
X10256500Y-7780000D01*
X10256500Y-7460000D02*
X9936500Y-7780000D01*
X9936500Y-11333500D02*
X10256500Y-11653500D01*
X10256500Y-11333500D02*
X9936500Y-11653500D01*
X15969000Y-7460000D02*
X16289000Y-7780000D01*
X16289000Y-7460000D02*
X15969000Y-7780000D01*
X15969000Y-11333500D02*
X16289000Y-11653500D01*
X16289000Y-11333500D02*
X15969000Y-11653500D01*
D10*
X9902777Y-12449984D02*
X9902777Y-12249984D01*
X9902777Y-12249984D02*
X9950396Y-12249984D01*
X9950396Y-12249984D02*
X9978967Y-12259508D01*
X9978967Y-12259508D02*
X9998015Y-12278555D01*
X9998015Y-12278555D02*
X10007539Y-12297603D01*
X10007539Y-12297603D02*
X10017063Y-12335698D01*
X10017063Y-12335698D02*
X10017063Y-12364269D01*
X10017063Y-12364269D02*
X10007539Y-12402365D01*
X10007539Y-12402365D02*
X9998015Y-12421412D01*
X9998015Y-12421412D02*
X9978967Y-12440460D01*
X9978967Y-12440460D02*
X9950396Y-12449984D01*
X9950396Y-12449984D02*
X9902777Y-12449984D01*
X10102777Y-12449984D02*
X10102777Y-12316650D01*
X10102777Y-12354746D02*
X10112301Y-12335698D01*
X10112301Y-12335698D02*
X10121824Y-12326174D01*
X10121824Y-12326174D02*
X10140872Y-12316650D01*
X10140872Y-12316650D02*
X10159920Y-12316650D01*
X10226586Y-12449984D02*
X10226586Y-12316650D01*
X10226586Y-12249984D02*
X10217063Y-12259508D01*
X10217063Y-12259508D02*
X10226586Y-12269031D01*
X10226586Y-12269031D02*
X10236110Y-12259508D01*
X10236110Y-12259508D02*
X10226586Y-12249984D01*
X10226586Y-12249984D02*
X10226586Y-12269031D01*
X10350396Y-12449984D02*
X10331348Y-12440460D01*
X10331348Y-12440460D02*
X10321824Y-12421412D01*
X10321824Y-12421412D02*
X10321824Y-12249984D01*
X10455158Y-12449984D02*
X10436110Y-12440460D01*
X10436110Y-12440460D02*
X10426586Y-12421412D01*
X10426586Y-12421412D02*
X10426586Y-12249984D01*
X10683729Y-12449984D02*
X10683729Y-12249984D01*
X10683729Y-12249984D02*
X10750396Y-12392841D01*
X10750396Y-12392841D02*
X10817063Y-12249984D01*
X10817063Y-12249984D02*
X10817063Y-12449984D01*
X10998015Y-12449984D02*
X10998015Y-12345222D01*
X10998015Y-12345222D02*
X10988491Y-12326174D01*
X10988491Y-12326174D02*
X10969444Y-12316650D01*
X10969444Y-12316650D02*
X10931348Y-12316650D01*
X10931348Y-12316650D02*
X10912301Y-12326174D01*
X10998015Y-12440460D02*
X10978967Y-12449984D01*
X10978967Y-12449984D02*
X10931348Y-12449984D01*
X10931348Y-12449984D02*
X10912301Y-12440460D01*
X10912301Y-12440460D02*
X10902777Y-12421412D01*
X10902777Y-12421412D02*
X10902777Y-12402365D01*
X10902777Y-12402365D02*
X10912301Y-12383317D01*
X10912301Y-12383317D02*
X10931348Y-12373793D01*
X10931348Y-12373793D02*
X10978967Y-12373793D01*
X10978967Y-12373793D02*
X10998015Y-12364269D01*
X11093253Y-12316650D02*
X11093253Y-12516650D01*
X11093253Y-12326174D02*
X11112301Y-12316650D01*
X11112301Y-12316650D02*
X11150396Y-12316650D01*
X11150396Y-12316650D02*
X11169444Y-12326174D01*
X11169444Y-12326174D02*
X11178967Y-12335698D01*
X11178967Y-12335698D02*
X11188491Y-12354746D01*
X11188491Y-12354746D02*
X11188491Y-12411888D01*
X11188491Y-12411888D02*
X11178967Y-12430936D01*
X11178967Y-12430936D02*
X11169444Y-12440460D01*
X11169444Y-12440460D02*
X11150396Y-12449984D01*
X11150396Y-12449984D02*
X11112301Y-12449984D01*
X11112301Y-12449984D02*
X11093253Y-12440460D01*
X11274205Y-12430936D02*
X11283729Y-12440460D01*
X11283729Y-12440460D02*
X11274205Y-12449984D01*
X11274205Y-12449984D02*
X11264682Y-12440460D01*
X11264682Y-12440460D02*
X11274205Y-12430936D01*
X11274205Y-12430936D02*
X11274205Y-12449984D01*
X11274205Y-12326174D02*
X11283729Y-12335698D01*
X11283729Y-12335698D02*
X11274205Y-12345222D01*
X11274205Y-12345222D02*
X11264682Y-12335698D01*
X11264682Y-12335698D02*
X11274205Y-12326174D01*
X11274205Y-12326174D02*
X11274205Y-12345222D01*
X9442000Y-12678500D02*
X9642000Y-12878500D01*
X9642000Y-12678500D02*
X9442000Y-12878500D01*
X9883729Y-12669984D02*
X10007539Y-12669984D01*
X10007539Y-12669984D02*
X9940872Y-12746174D01*
X9940872Y-12746174D02*
X9969444Y-12746174D01*
X9969444Y-12746174D02*
X9988491Y-12755698D01*
X9988491Y-12755698D02*
X9998015Y-12765222D01*
X9998015Y-12765222D02*
X10007539Y-12784269D01*
X10007539Y-12784269D02*
X10007539Y-12831888D01*
X10007539Y-12831888D02*
X9998015Y-12850936D01*
X9998015Y-12850936D02*
X9988491Y-12860460D01*
X9988491Y-12860460D02*
X9969444Y-12869984D01*
X9969444Y-12869984D02*
X9912301Y-12869984D01*
X9912301Y-12869984D02*
X9893253Y-12860460D01*
X9893253Y-12860460D02*
X9883729Y-12850936D01*
X10093253Y-12850936D02*
X10102777Y-12860460D01*
X10102777Y-12860460D02*
X10093253Y-12869984D01*
X10093253Y-12869984D02*
X10083729Y-12860460D01*
X10083729Y-12860460D02*
X10093253Y-12850936D01*
X10093253Y-12850936D02*
X10093253Y-12869984D01*
X10178967Y-12689031D02*
X10188491Y-12679508D01*
X10188491Y-12679508D02*
X10207539Y-12669984D01*
X10207539Y-12669984D02*
X10255158Y-12669984D01*
X10255158Y-12669984D02*
X10274205Y-12679508D01*
X10274205Y-12679508D02*
X10283729Y-12689031D01*
X10283729Y-12689031D02*
X10293253Y-12708079D01*
X10293253Y-12708079D02*
X10293253Y-12727127D01*
X10293253Y-12727127D02*
X10283729Y-12755698D01*
X10283729Y-12755698D02*
X10169444Y-12869984D01*
X10169444Y-12869984D02*
X10293253Y-12869984D01*
X10417063Y-12669984D02*
X10436110Y-12669984D01*
X10436110Y-12669984D02*
X10455158Y-12679508D01*
X10455158Y-12679508D02*
X10464682Y-12689031D01*
X10464682Y-12689031D02*
X10474205Y-12708079D01*
X10474205Y-12708079D02*
X10483729Y-12746174D01*
X10483729Y-12746174D02*
X10483729Y-12793793D01*
X10483729Y-12793793D02*
X10474205Y-12831888D01*
X10474205Y-12831888D02*
X10464682Y-12850936D01*
X10464682Y-12850936D02*
X10455158Y-12860460D01*
X10455158Y-12860460D02*
X10436110Y-12869984D01*
X10436110Y-12869984D02*
X10417063Y-12869984D01*
X10417063Y-12869984D02*
X10398015Y-12860460D01*
X10398015Y-12860460D02*
X10388491Y-12850936D01*
X10388491Y-12850936D02*
X10378967Y-12831888D01*
X10378967Y-12831888D02*
X10369444Y-12793793D01*
X10369444Y-12793793D02*
X10369444Y-12746174D01*
X10369444Y-12746174D02*
X10378967Y-12708079D01*
X10378967Y-12708079D02*
X10388491Y-12689031D01*
X10388491Y-12689031D02*
X10398015Y-12679508D01*
X10398015Y-12679508D02*
X10417063Y-12669984D01*
X10607539Y-12669984D02*
X10626586Y-12669984D01*
X10626586Y-12669984D02*
X10645634Y-12679508D01*
X10645634Y-12679508D02*
X10655158Y-12689031D01*
X10655158Y-12689031D02*
X10664682Y-12708079D01*
X10664682Y-12708079D02*
X10674205Y-12746174D01*
X10674205Y-12746174D02*
X10674205Y-12793793D01*
X10674205Y-12793793D02*
X10664682Y-12831888D01*
X10664682Y-12831888D02*
X10655158Y-12850936D01*
X10655158Y-12850936D02*
X10645634Y-12860460D01*
X10645634Y-12860460D02*
X10626586Y-12869984D01*
X10626586Y-12869984D02*
X10607539Y-12869984D01*
X10607539Y-12869984D02*
X10588491Y-12860460D01*
X10588491Y-12860460D02*
X10578967Y-12850936D01*
X10578967Y-12850936D02*
X10569444Y-12831888D01*
X10569444Y-12831888D02*
X10559920Y-12793793D01*
X10559920Y-12793793D02*
X10559920Y-12746174D01*
X10559920Y-12746174D02*
X10569444Y-12708079D01*
X10569444Y-12708079D02*
X10578967Y-12689031D01*
X10578967Y-12689031D02*
X10588491Y-12679508D01*
X10588491Y-12679508D02*
X10607539Y-12669984D01*
X10759920Y-12869984D02*
X10759920Y-12736650D01*
X10759920Y-12755698D02*
X10769444Y-12746174D01*
X10769444Y-12746174D02*
X10788491Y-12736650D01*
X10788491Y-12736650D02*
X10817063Y-12736650D01*
X10817063Y-12736650D02*
X10836110Y-12746174D01*
X10836110Y-12746174D02*
X10845634Y-12765222D01*
X10845634Y-12765222D02*
X10845634Y-12869984D01*
X10845634Y-12765222D02*
X10855158Y-12746174D01*
X10855158Y-12746174D02*
X10874205Y-12736650D01*
X10874205Y-12736650D02*
X10902777Y-12736650D01*
X10902777Y-12736650D02*
X10921825Y-12746174D01*
X10921825Y-12746174D02*
X10931348Y-12765222D01*
X10931348Y-12765222D02*
X10931348Y-12869984D01*
X11026586Y-12869984D02*
X11026586Y-12736650D01*
X11026586Y-12755698D02*
X11036110Y-12746174D01*
X11036110Y-12746174D02*
X11055158Y-12736650D01*
X11055158Y-12736650D02*
X11083729Y-12736650D01*
X11083729Y-12736650D02*
X11102777Y-12746174D01*
X11102777Y-12746174D02*
X11112301Y-12765222D01*
X11112301Y-12765222D02*
X11112301Y-12869984D01*
X11112301Y-12765222D02*
X11121825Y-12746174D01*
X11121825Y-12746174D02*
X11140872Y-12736650D01*
X11140872Y-12736650D02*
X11169444Y-12736650D01*
X11169444Y-12736650D02*
X11188491Y-12746174D01*
X11188491Y-12746174D02*
X11198015Y-12765222D01*
X11198015Y-12765222D02*
X11198015Y-12869984D01*
X11588491Y-12660460D02*
X11417063Y-12917603D01*
X11845634Y-12669984D02*
X11864682Y-12669984D01*
X11864682Y-12669984D02*
X11883729Y-12679508D01*
X11883729Y-12679508D02*
X11893253Y-12689031D01*
X11893253Y-12689031D02*
X11902777Y-12708079D01*
X11902777Y-12708079D02*
X11912301Y-12746174D01*
X11912301Y-12746174D02*
X11912301Y-12793793D01*
X11912301Y-12793793D02*
X11902777Y-12831888D01*
X11902777Y-12831888D02*
X11893253Y-12850936D01*
X11893253Y-12850936D02*
X11883729Y-12860460D01*
X11883729Y-12860460D02*
X11864682Y-12869984D01*
X11864682Y-12869984D02*
X11845634Y-12869984D01*
X11845634Y-12869984D02*
X11826586Y-12860460D01*
X11826586Y-12860460D02*
X11817063Y-12850936D01*
X11817063Y-12850936D02*
X11807539Y-12831888D01*
X11807539Y-12831888D02*
X11798015Y-12793793D01*
X11798015Y-12793793D02*
X11798015Y-12746174D01*
X11798015Y-12746174D02*
X11807539Y-12708079D01*
X11807539Y-12708079D02*
X11817063Y-12689031D01*
X11817063Y-12689031D02*
X11826586Y-12679508D01*
X11826586Y-12679508D02*
X11845634Y-12669984D01*
X11998015Y-12850936D02*
X12007539Y-12860460D01*
X12007539Y-12860460D02*
X11998015Y-12869984D01*
X11998015Y-12869984D02*
X11988491Y-12860460D01*
X11988491Y-12860460D02*
X11998015Y-12850936D01*
X11998015Y-12850936D02*
X11998015Y-12869984D01*
X12198015Y-12869984D02*
X12083729Y-12869984D01*
X12140872Y-12869984D02*
X12140872Y-12669984D01*
X12140872Y-12669984D02*
X12121825Y-12698555D01*
X12121825Y-12698555D02*
X12102777Y-12717603D01*
X12102777Y-12717603D02*
X12083729Y-12727127D01*
X12274206Y-12689031D02*
X12283729Y-12679508D01*
X12283729Y-12679508D02*
X12302777Y-12669984D01*
X12302777Y-12669984D02*
X12350396Y-12669984D01*
X12350396Y-12669984D02*
X12369444Y-12679508D01*
X12369444Y-12679508D02*
X12378967Y-12689031D01*
X12378967Y-12689031D02*
X12388491Y-12708079D01*
X12388491Y-12708079D02*
X12388491Y-12727127D01*
X12388491Y-12727127D02*
X12378967Y-12755698D01*
X12378967Y-12755698D02*
X12264682Y-12869984D01*
X12264682Y-12869984D02*
X12388491Y-12869984D01*
X12559920Y-12669984D02*
X12521825Y-12669984D01*
X12521825Y-12669984D02*
X12502777Y-12679508D01*
X12502777Y-12679508D02*
X12493253Y-12689031D01*
X12493253Y-12689031D02*
X12474206Y-12717603D01*
X12474206Y-12717603D02*
X12464682Y-12755698D01*
X12464682Y-12755698D02*
X12464682Y-12831888D01*
X12464682Y-12831888D02*
X12474206Y-12850936D01*
X12474206Y-12850936D02*
X12483729Y-12860460D01*
X12483729Y-12860460D02*
X12502777Y-12869984D01*
X12502777Y-12869984D02*
X12540872Y-12869984D01*
X12540872Y-12869984D02*
X12559920Y-12860460D01*
X12559920Y-12860460D02*
X12569444Y-12850936D01*
X12569444Y-12850936D02*
X12578967Y-12831888D01*
X12578967Y-12831888D02*
X12578967Y-12784269D01*
X12578967Y-12784269D02*
X12569444Y-12765222D01*
X12569444Y-12765222D02*
X12559920Y-12755698D01*
X12559920Y-12755698D02*
X12540872Y-12746174D01*
X12540872Y-12746174D02*
X12502777Y-12746174D01*
X12502777Y-12746174D02*
X12483729Y-12755698D01*
X12483729Y-12755698D02*
X12474206Y-12765222D01*
X12474206Y-12765222D02*
X12464682Y-12784269D01*
X12702777Y-12669984D02*
X12721825Y-12669984D01*
X12721825Y-12669984D02*
X12740872Y-12679508D01*
X12740872Y-12679508D02*
X12750396Y-12689031D01*
X12750396Y-12689031D02*
X12759920Y-12708079D01*
X12759920Y-12708079D02*
X12769444Y-12746174D01*
X12769444Y-12746174D02*
X12769444Y-12793793D01*
X12769444Y-12793793D02*
X12759920Y-12831888D01*
X12759920Y-12831888D02*
X12750396Y-12850936D01*
X12750396Y-12850936D02*
X12740872Y-12860460D01*
X12740872Y-12860460D02*
X12721825Y-12869984D01*
X12721825Y-12869984D02*
X12702777Y-12869984D01*
X12702777Y-12869984D02*
X12683729Y-12860460D01*
X12683729Y-12860460D02*
X12674206Y-12850936D01*
X12674206Y-12850936D02*
X12664682Y-12831888D01*
X12664682Y-12831888D02*
X12655158Y-12793793D01*
X12655158Y-12793793D02*
X12655158Y-12746174D01*
X12655158Y-12746174D02*
X12664682Y-12708079D01*
X12664682Y-12708079D02*
X12674206Y-12689031D01*
X12674206Y-12689031D02*
X12683729Y-12679508D01*
X12683729Y-12679508D02*
X12702777Y-12669984D01*
X12845634Y-12669984D02*
X12845634Y-12708079D01*
X12921825Y-12669984D02*
X12921825Y-12708079D01*
X13217063Y-12946174D02*
X13207539Y-12936650D01*
X13207539Y-12936650D02*
X13188491Y-12908079D01*
X13188491Y-12908079D02*
X13178968Y-12889031D01*
X13178968Y-12889031D02*
X13169444Y-12860460D01*
X13169444Y-12860460D02*
X13159920Y-12812841D01*
X13159920Y-12812841D02*
X13159920Y-12774746D01*
X13159920Y-12774746D02*
X13169444Y-12727127D01*
X13169444Y-12727127D02*
X13178968Y-12698555D01*
X13178968Y-12698555D02*
X13188491Y-12679508D01*
X13188491Y-12679508D02*
X13207539Y-12650936D01*
X13207539Y-12650936D02*
X13217063Y-12641412D01*
X13378968Y-12736650D02*
X13378968Y-12869984D01*
X13331348Y-12660460D02*
X13283729Y-12803317D01*
X13283729Y-12803317D02*
X13407539Y-12803317D01*
X13636110Y-12869984D02*
X13636110Y-12669984D01*
X13721825Y-12869984D02*
X13721825Y-12765222D01*
X13721825Y-12765222D02*
X13712301Y-12746174D01*
X13712301Y-12746174D02*
X13693253Y-12736650D01*
X13693253Y-12736650D02*
X13664682Y-12736650D01*
X13664682Y-12736650D02*
X13645634Y-12746174D01*
X13645634Y-12746174D02*
X13636110Y-12755698D01*
X13845634Y-12869984D02*
X13826587Y-12860460D01*
X13826587Y-12860460D02*
X13817063Y-12850936D01*
X13817063Y-12850936D02*
X13807539Y-12831888D01*
X13807539Y-12831888D02*
X13807539Y-12774746D01*
X13807539Y-12774746D02*
X13817063Y-12755698D01*
X13817063Y-12755698D02*
X13826587Y-12746174D01*
X13826587Y-12746174D02*
X13845634Y-12736650D01*
X13845634Y-12736650D02*
X13874206Y-12736650D01*
X13874206Y-12736650D02*
X13893253Y-12746174D01*
X13893253Y-12746174D02*
X13902777Y-12755698D01*
X13902777Y-12755698D02*
X13912301Y-12774746D01*
X13912301Y-12774746D02*
X13912301Y-12831888D01*
X13912301Y-12831888D02*
X13902777Y-12850936D01*
X13902777Y-12850936D02*
X13893253Y-12860460D01*
X13893253Y-12860460D02*
X13874206Y-12869984D01*
X13874206Y-12869984D02*
X13845634Y-12869984D01*
X14026587Y-12869984D02*
X14007539Y-12860460D01*
X14007539Y-12860460D02*
X13998015Y-12841412D01*
X13998015Y-12841412D02*
X13998015Y-12669984D01*
X14178968Y-12860460D02*
X14159920Y-12869984D01*
X14159920Y-12869984D02*
X14121825Y-12869984D01*
X14121825Y-12869984D02*
X14102777Y-12860460D01*
X14102777Y-12860460D02*
X14093253Y-12841412D01*
X14093253Y-12841412D02*
X14093253Y-12765222D01*
X14093253Y-12765222D02*
X14102777Y-12746174D01*
X14102777Y-12746174D02*
X14121825Y-12736650D01*
X14121825Y-12736650D02*
X14159920Y-12736650D01*
X14159920Y-12736650D02*
X14178968Y-12746174D01*
X14178968Y-12746174D02*
X14188491Y-12765222D01*
X14188491Y-12765222D02*
X14188491Y-12784269D01*
X14188491Y-12784269D02*
X14093253Y-12803317D01*
X14264682Y-12860460D02*
X14283730Y-12869984D01*
X14283730Y-12869984D02*
X14321825Y-12869984D01*
X14321825Y-12869984D02*
X14340872Y-12860460D01*
X14340872Y-12860460D02*
X14350396Y-12841412D01*
X14350396Y-12841412D02*
X14350396Y-12831888D01*
X14350396Y-12831888D02*
X14340872Y-12812841D01*
X14340872Y-12812841D02*
X14321825Y-12803317D01*
X14321825Y-12803317D02*
X14293253Y-12803317D01*
X14293253Y-12803317D02*
X14274206Y-12793793D01*
X14274206Y-12793793D02*
X14264682Y-12774746D01*
X14264682Y-12774746D02*
X14264682Y-12765222D01*
X14264682Y-12765222D02*
X14274206Y-12746174D01*
X14274206Y-12746174D02*
X14293253Y-12736650D01*
X14293253Y-12736650D02*
X14321825Y-12736650D01*
X14321825Y-12736650D02*
X14340872Y-12746174D01*
X14417063Y-12946174D02*
X14426587Y-12936650D01*
X14426587Y-12936650D02*
X14445634Y-12908079D01*
X14445634Y-12908079D02*
X14455158Y-12889031D01*
X14455158Y-12889031D02*
X14464682Y-12860460D01*
X14464682Y-12860460D02*
X14474206Y-12812841D01*
X14474206Y-12812841D02*
X14474206Y-12774746D01*
X14474206Y-12774746D02*
X14464682Y-12727127D01*
X14464682Y-12727127D02*
X14455158Y-12698555D01*
X14455158Y-12698555D02*
X14445634Y-12679508D01*
X14445634Y-12679508D02*
X14426587Y-12650936D01*
X14426587Y-12650936D02*
X14417063Y-12641412D01*
X14778968Y-12946174D02*
X14769444Y-12936650D01*
X14769444Y-12936650D02*
X14750396Y-12908079D01*
X14750396Y-12908079D02*
X14740872Y-12889031D01*
X14740872Y-12889031D02*
X14731349Y-12860460D01*
X14731349Y-12860460D02*
X14721825Y-12812841D01*
X14721825Y-12812841D02*
X14721825Y-12774746D01*
X14721825Y-12774746D02*
X14731349Y-12727127D01*
X14731349Y-12727127D02*
X14740872Y-12698555D01*
X14740872Y-12698555D02*
X14750396Y-12679508D01*
X14750396Y-12679508D02*
X14769444Y-12650936D01*
X14769444Y-12650936D02*
X14778968Y-12641412D01*
X14855158Y-12736650D02*
X14855158Y-12869984D01*
X14855158Y-12755698D02*
X14864682Y-12746174D01*
X14864682Y-12746174D02*
X14883730Y-12736650D01*
X14883730Y-12736650D02*
X14912301Y-12736650D01*
X14912301Y-12736650D02*
X14931349Y-12746174D01*
X14931349Y-12746174D02*
X14940872Y-12765222D01*
X14940872Y-12765222D02*
X14940872Y-12869984D01*
X15064682Y-12869984D02*
X15045634Y-12860460D01*
X15045634Y-12860460D02*
X15036111Y-12850936D01*
X15036111Y-12850936D02*
X15026587Y-12831888D01*
X15026587Y-12831888D02*
X15026587Y-12774746D01*
X15026587Y-12774746D02*
X15036111Y-12755698D01*
X15036111Y-12755698D02*
X15045634Y-12746174D01*
X15045634Y-12746174D02*
X15064682Y-12736650D01*
X15064682Y-12736650D02*
X15093253Y-12736650D01*
X15093253Y-12736650D02*
X15112301Y-12746174D01*
X15112301Y-12746174D02*
X15121825Y-12755698D01*
X15121825Y-12755698D02*
X15131349Y-12774746D01*
X15131349Y-12774746D02*
X15131349Y-12831888D01*
X15131349Y-12831888D02*
X15121825Y-12850936D01*
X15121825Y-12850936D02*
X15112301Y-12860460D01*
X15112301Y-12860460D02*
X15093253Y-12869984D01*
X15093253Y-12869984D02*
X15064682Y-12869984D01*
X15188492Y-12736650D02*
X15264682Y-12736650D01*
X15217063Y-12669984D02*
X15217063Y-12841412D01*
X15217063Y-12841412D02*
X15226587Y-12860460D01*
X15226587Y-12860460D02*
X15245634Y-12869984D01*
X15245634Y-12869984D02*
X15264682Y-12869984D01*
X15483730Y-12736650D02*
X15483730Y-12936650D01*
X15483730Y-12746174D02*
X15502777Y-12736650D01*
X15502777Y-12736650D02*
X15540873Y-12736650D01*
X15540873Y-12736650D02*
X15559920Y-12746174D01*
X15559920Y-12746174D02*
X15569444Y-12755698D01*
X15569444Y-12755698D02*
X15578968Y-12774746D01*
X15578968Y-12774746D02*
X15578968Y-12831888D01*
X15578968Y-12831888D02*
X15569444Y-12850936D01*
X15569444Y-12850936D02*
X15559920Y-12860460D01*
X15559920Y-12860460D02*
X15540873Y-12869984D01*
X15540873Y-12869984D02*
X15502777Y-12869984D01*
X15502777Y-12869984D02*
X15483730Y-12860460D01*
X15693253Y-12869984D02*
X15674206Y-12860460D01*
X15674206Y-12860460D02*
X15664682Y-12841412D01*
X15664682Y-12841412D02*
X15664682Y-12669984D01*
X15855158Y-12869984D02*
X15855158Y-12765222D01*
X15855158Y-12765222D02*
X15845634Y-12746174D01*
X15845634Y-12746174D02*
X15826587Y-12736650D01*
X15826587Y-12736650D02*
X15788492Y-12736650D01*
X15788492Y-12736650D02*
X15769444Y-12746174D01*
X15855158Y-12860460D02*
X15836111Y-12869984D01*
X15836111Y-12869984D02*
X15788492Y-12869984D01*
X15788492Y-12869984D02*
X15769444Y-12860460D01*
X15769444Y-12860460D02*
X15759920Y-12841412D01*
X15759920Y-12841412D02*
X15759920Y-12822365D01*
X15759920Y-12822365D02*
X15769444Y-12803317D01*
X15769444Y-12803317D02*
X15788492Y-12793793D01*
X15788492Y-12793793D02*
X15836111Y-12793793D01*
X15836111Y-12793793D02*
X15855158Y-12784269D01*
X15921825Y-12736650D02*
X15998015Y-12736650D01*
X15950396Y-12669984D02*
X15950396Y-12841412D01*
X15950396Y-12841412D02*
X15959920Y-12860460D01*
X15959920Y-12860460D02*
X15978968Y-12869984D01*
X15978968Y-12869984D02*
X15998015Y-12869984D01*
X16140873Y-12860460D02*
X16121825Y-12869984D01*
X16121825Y-12869984D02*
X16083730Y-12869984D01*
X16083730Y-12869984D02*
X16064682Y-12860460D01*
X16064682Y-12860460D02*
X16055158Y-12841412D01*
X16055158Y-12841412D02*
X16055158Y-12765222D01*
X16055158Y-12765222D02*
X16064682Y-12746174D01*
X16064682Y-12746174D02*
X16083730Y-12736650D01*
X16083730Y-12736650D02*
X16121825Y-12736650D01*
X16121825Y-12736650D02*
X16140873Y-12746174D01*
X16140873Y-12746174D02*
X16150396Y-12765222D01*
X16150396Y-12765222D02*
X16150396Y-12784269D01*
X16150396Y-12784269D02*
X16055158Y-12803317D01*
X16321825Y-12869984D02*
X16321825Y-12669984D01*
X16321825Y-12860460D02*
X16302777Y-12869984D01*
X16302777Y-12869984D02*
X16264682Y-12869984D01*
X16264682Y-12869984D02*
X16245634Y-12860460D01*
X16245634Y-12860460D02*
X16236111Y-12850936D01*
X16236111Y-12850936D02*
X16226587Y-12831888D01*
X16226587Y-12831888D02*
X16226587Y-12774746D01*
X16226587Y-12774746D02*
X16236111Y-12755698D01*
X16236111Y-12755698D02*
X16245634Y-12746174D01*
X16245634Y-12746174D02*
X16264682Y-12736650D01*
X16264682Y-12736650D02*
X16302777Y-12736650D01*
X16302777Y-12736650D02*
X16321825Y-12746174D01*
X16398015Y-12946174D02*
X16407539Y-12936650D01*
X16407539Y-12936650D02*
X16426587Y-12908079D01*
X16426587Y-12908079D02*
X16436111Y-12889031D01*
X16436111Y-12889031D02*
X16445634Y-12860460D01*
X16445634Y-12860460D02*
X16455158Y-12812841D01*
X16455158Y-12812841D02*
X16455158Y-12774746D01*
X16455158Y-12774746D02*
X16445634Y-12727127D01*
X16445634Y-12727127D02*
X16436111Y-12698555D01*
X16436111Y-12698555D02*
X16426587Y-12679508D01*
X16426587Y-12679508D02*
X16407539Y-12650936D01*
X16407539Y-12650936D02*
X16398015Y-12641412D01*
M02*
